<svg width="524" height="29" viewBox="0 0 524 29" fill="none" xmlns="http://www.w3.org/2000/svg">
<path d="M5.93066 22.293C4.84668 22.293 3.85547 22.0195 2.95703 21.4727C2.06836 20.9258 1.36035 20.1934 0.833008 19.2754C0.31543 18.3477 0.0566406 17.3174 0.0566406 16.1846L0.0859375 6.82422C0.0859375 5.71094 0.339844 4.70508 0.847656 3.80664C1.35547 2.89844 2.05371 2.1709 2.94238 1.62402C3.84082 1.06738 4.83691 0.789062 5.93066 0.789062C7.04395 0.789062 8.03516 1.05762 8.9043 1.59473C9.7832 2.13184 10.4814 2.85938 10.999 3.77734C11.5264 4.68555 11.79 5.70117 11.79 6.82422V8.20117C11.79 8.2793 11.751 8.31836 11.6729 8.31836H8.30371C8.22559 8.31836 8.18652 8.2793 8.18652 8.20117V6.82422C8.18652 6.16016 7.97168 5.58887 7.54199 5.11035C7.1123 4.63184 6.5752 4.39258 5.93066 4.39258C5.21777 4.39258 4.6709 4.63672 4.29004 5.125C3.90918 5.61328 3.71875 6.17969 3.71875 6.82422V16.1846C3.71875 16.917 3.93359 17.5176 4.36328 17.9863C4.79297 18.4453 5.31543 18.6748 5.93066 18.6748C6.5752 18.6748 7.1123 18.4209 7.54199 17.9131C7.97168 17.3955 8.18652 16.8193 8.18652 16.1846V14.793C8.18652 14.7148 8.22559 14.6758 8.30371 14.6758H11.7021C11.7803 14.6758 11.8193 14.7148 11.8193 14.793V16.1846C11.8193 17.3076 11.5557 18.333 11.0283 19.2607C10.4912 20.1787 9.7832 20.916 8.9043 21.4727C8.02539 22.0195 7.03418 22.293 5.93066 22.293ZM12.9912 21.8535L16.7119 1.24316C16.7314 1.16504 16.7803 1.12598 16.8584 1.12598H21.209C21.2871 1.12598 21.3359 1.16504 21.3555 1.24316L24.9297 21.8535C24.9395 21.9512 24.9004 22 24.8125 22H21.4873C21.3896 22 21.3359 21.9512 21.3262 21.8535L21.0039 19.6562H16.917L16.5947 21.8535C16.585 21.9512 16.5361 22 16.4482 22H13.1084C13.0303 22 12.9912 21.9512 12.9912 21.8535ZM18.8652 8.02539L17.5176 16.4482H20.4033L19.1729 8.02539L18.9971 6.91211L18.8652 8.02539ZM33.2061 22H29.8223C29.7344 22 29.6904 21.9512 29.6904 21.8535V4.74414H25.7939C25.6963 4.74414 25.6475 4.69531 25.6475 4.59766L25.6768 1.24316C25.6768 1.16504 25.7158 1.12598 25.7939 1.12598H37.1904C37.2979 1.12598 37.3516 1.16504 37.3516 1.24316V4.59766C37.3516 4.69531 37.3125 4.74414 37.2344 4.74414H33.2939L33.3232 21.8535C33.3232 21.9512 33.2842 22 33.2061 22ZM48.6309 22H38.9336C38.8555 22 38.8164 21.9512 38.8164 21.8535L38.8457 1.24316C38.8457 1.16504 38.8848 1.12598 38.9629 1.12598H48.6016C48.6797 1.12598 48.7188 1.1748 48.7188 1.27246V4.62695C48.7188 4.70508 48.6797 4.74414 48.6016 4.74414H42.4492V9.43164H48.6016C48.6797 9.43164 48.7188 9.4707 48.7188 9.54883L48.748 12.9473C48.748 13.0254 48.709 13.0645 48.6309 13.0645H42.4492V18.3086H48.6309C48.709 18.3086 48.748 18.3574 48.748 18.4551V21.8828C48.748 21.9609 48.709 22 48.6309 22ZM56.9072 22.293C55.8232 22.293 54.8467 22.0244 53.9775 21.4873C53.0986 20.9502 52.3906 20.2275 51.8535 19.3193C51.3262 18.4111 51.0625 17.3955 51.0625 16.2725V6.76562C51.0625 5.67188 51.3311 4.67578 51.8682 3.77734C52.3955 2.86914 53.1035 2.14648 53.9922 1.60938C54.8809 1.0625 55.8525 0.789062 56.9072 0.789062C58.0107 0.789062 59.0068 1.05273 59.8955 1.58008C60.7842 2.11719 61.4873 2.83496 62.0049 3.7334C62.5322 4.63184 62.7959 5.64258 62.7959 6.76562V8.14258C62.7959 8.2207 62.7471 8.25977 62.6494 8.25977H59.2803C59.2021 8.25977 59.1631 8.2207 59.1631 8.14258V7C59.1631 6.23828 58.9482 5.6084 58.5186 5.11035C58.0889 4.6123 57.5518 4.36328 56.9072 4.36328C56.3311 4.36328 55.8184 4.60254 55.3691 5.08105C54.9199 5.55957 54.6953 6.12109 54.6953 6.76562V16.2725C54.6953 16.9268 54.915 17.4932 55.3545 17.9717C55.7939 18.4404 56.3115 18.6748 56.9072 18.6748C57.5518 18.6748 58.0889 18.4453 58.5186 17.9863C58.9482 17.5176 59.1631 16.9463 59.1631 16.2725V14.793H57.0684C56.9609 14.793 56.9072 14.7441 56.9072 14.6465V11.292C56.9072 11.1943 56.9609 11.1455 57.0684 11.1455H62.6787C62.7568 11.1455 62.7959 11.1943 62.7959 11.292V16.2725C62.7959 17.3955 62.5322 18.4111 62.0049 19.3193C61.4678 20.2275 60.7598 20.9502 59.8809 21.4873C59.002 22.0244 58.0107 22.293 56.9072 22.293ZM70.4717 22.293C69.4072 22.293 68.4258 22.0195 67.5273 21.4727C66.6387 20.9258 65.9209 20.1982 65.374 19.29C64.8369 18.3721 64.5684 17.3662 64.5684 16.2725L64.5977 6.76562C64.5977 5.65234 64.8662 4.65137 65.4033 3.7627C65.9307 2.86426 66.6436 2.14648 67.542 1.60938C68.4404 1.0625 69.417 0.789062 70.4717 0.789062C71.5654 0.789062 72.5469 1.05762 73.416 1.59473C74.2949 2.13184 74.998 2.85449 75.5254 3.7627C76.0625 4.66113 76.3311 5.66211 76.3311 6.76562L76.3604 16.2725C76.3604 17.3662 76.0967 18.3672 75.5693 19.2754C75.0322 20.1934 74.3193 20.9258 73.4307 21.4727C72.542 22.0195 71.5557 22.293 70.4717 22.293ZM70.4717 18.6748C71.0771 18.6748 71.6045 18.4307 72.0537 17.9424C72.5029 17.4443 72.7275 16.8877 72.7275 16.2725L72.6982 6.76562C72.6982 6.10156 72.4883 5.54004 72.0684 5.08105C71.6484 4.62207 71.1162 4.39258 70.4717 4.39258C69.8564 4.39258 69.3291 4.61719 68.8896 5.06641C68.4502 5.51562 68.2305 6.08203 68.2305 6.76562V16.2725C68.2305 16.9268 68.4502 17.4932 68.8896 17.9717C69.3291 18.4404 69.8564 18.6748 70.4717 18.6748ZM82.1465 22H78.748C78.6699 22 78.6309 21.9512 78.6309 21.8535L78.6895 1.24316C78.6895 1.16504 78.7285 1.12598 78.8066 1.12598H84.8711C85.9551 1.12598 86.9512 1.38965 87.8594 1.91699C88.7676 2.44434 89.4902 3.15234 90.0273 4.04102C90.5742 4.92969 90.8477 5.93555 90.8477 7.05859C90.8477 7.79102 90.7354 8.45508 90.5107 9.05078C90.2861 9.64648 90.0225 10.1494 89.7197 10.5596C89.4268 10.9697 89.1582 11.2725 88.9141 11.4678C89.998 12.6689 90.54 14.0801 90.54 15.7012L90.5693 21.8535C90.5693 21.9512 90.5205 22 90.4229 22H87.0244C86.9463 22 86.9072 21.9707 86.9072 21.9121V15.7012C86.9072 14.9785 86.6533 14.3535 86.1455 13.8262C85.6377 13.2988 85.0127 13.0352 84.2705 13.0352H82.293L82.2637 21.8535C82.2637 21.9512 82.2246 22 82.1465 22ZM84.8711 4.71484H82.293V9.43164H84.8711C85.4863 9.43164 86.0332 9.20215 86.5117 8.74316C87 8.28418 87.2441 7.72266 87.2441 7.05859C87.2441 6.42383 87.0098 5.87695 86.541 5.41797C86.0723 4.94922 85.5156 4.71484 84.8711 4.71484ZM99.3584 22H95.916C95.8477 22 95.8135 21.9609 95.8135 21.8828L95.8428 13.3574L91.8291 1.24316C91.8096 1.16504 91.8389 1.12598 91.917 1.12598H95.2568C95.3545 1.12598 95.4131 1.16504 95.4326 1.24316L97.6445 9.31445L99.9004 1.24316C99.9199 1.16504 99.9688 1.12598 100.047 1.12598H103.416C103.494 1.12598 103.523 1.16504 103.504 1.24316L99.4463 13.2402L99.4756 21.8828C99.4756 21.9609 99.4365 22 99.3584 22ZM108.66 13.0938H105.262C105.184 13.0938 105.145 13.0547 105.145 12.9766V9.57812C105.145 9.5 105.184 9.46094 105.262 9.46094H108.66C108.738 9.46094 108.777 9.5 108.777 9.57812V12.9766C108.777 13.0547 108.738 13.0938 108.66 13.0938ZM108.66 22H105.262C105.184 22 105.145 21.9609 105.145 21.8828V18.4844C105.145 18.4062 105.184 18.3672 105.262 18.3672H108.66C108.738 18.3672 108.777 18.4062 108.777 18.4844V21.8828C108.777 21.9609 108.738 22 108.66 22ZM128.846 22H119.148C119.07 22 119.031 21.9512 119.031 21.8535L119.061 1.27246C119.061 1.1748 119.109 1.12598 119.207 1.12598H122.547C122.645 1.12598 122.693 1.1748 122.693 1.27246L122.664 18.3086H128.846C128.943 18.3086 128.992 18.3574 128.992 18.4551V21.8535C128.992 21.9512 128.943 22 128.846 22ZM134.5 22H131.102C131.004 22 130.955 21.9512 130.955 21.8535L130.984 1.24316C130.984 1.16504 131.023 1.12598 131.102 1.12598H134.471C134.549 1.12598 134.588 1.16504 134.588 1.24316L134.617 21.8535C134.617 21.9512 134.578 22 134.5 22ZM143.655 22H140.271C140.184 22 140.14 21.9512 140.14 21.8535V4.74414H136.243C136.146 4.74414 136.097 4.69531 136.097 4.59766L136.126 1.24316C136.126 1.16504 136.165 1.12598 136.243 1.12598H147.64C147.747 1.12598 147.801 1.16504 147.801 1.24316V4.59766C147.801 4.69531 147.762 4.74414 147.684 4.74414H143.743L143.772 21.8535C143.772 21.9512 143.733 22 143.655 22ZM159.08 22H149.383C149.305 22 149.266 21.9512 149.266 21.8535L149.295 1.24316C149.295 1.16504 149.334 1.12598 149.412 1.12598H159.051C159.129 1.12598 159.168 1.1748 159.168 1.27246V4.62695C159.168 4.70508 159.129 4.74414 159.051 4.74414H152.898V9.43164H159.051C159.129 9.43164 159.168 9.4707 159.168 9.54883L159.197 12.9473C159.197 13.0254 159.158 13.0645 159.08 13.0645H152.898V18.3086H159.08C159.158 18.3086 159.197 18.3574 159.197 18.4551V21.8828C159.197 21.9609 159.158 22 159.08 22ZM165.379 22H161.98C161.902 22 161.863 21.9512 161.863 21.8535L161.922 1.24316C161.922 1.16504 161.961 1.12598 162.039 1.12598H168.104C169.188 1.12598 170.184 1.38965 171.092 1.91699C172 2.44434 172.723 3.15234 173.26 4.04102C173.807 4.92969 174.08 5.93555 174.08 7.05859C174.08 7.79102 173.968 8.45508 173.743 9.05078C173.519 9.64648 173.255 10.1494 172.952 10.5596C172.659 10.9697 172.391 11.2725 172.146 11.4678C173.23 12.6689 173.772 14.0801 173.772 15.7012L173.802 21.8535C173.802 21.9512 173.753 22 173.655 22H170.257C170.179 22 170.14 21.9707 170.14 21.9121V15.7012C170.14 14.9785 169.886 14.3535 169.378 13.8262C168.87 13.2988 168.245 13.0352 167.503 13.0352H165.525L165.496 21.8535C165.496 21.9512 165.457 22 165.379 22ZM168.104 4.71484H165.525V9.43164H168.104C168.719 9.43164 169.266 9.20215 169.744 8.74316C170.232 8.28418 170.477 7.72266 170.477 7.05859C170.477 6.42383 170.242 5.87695 169.773 5.41797C169.305 4.94922 168.748 4.71484 168.104 4.71484ZM175.325 21.8535L179.046 1.24316C179.065 1.16504 179.114 1.12598 179.192 1.12598H183.543C183.621 1.12598 183.67 1.16504 183.689 1.24316L187.264 21.8535C187.273 21.9512 187.234 22 187.146 22H183.821C183.724 22 183.67 21.9512 183.66 21.8535L183.338 19.6562H179.251L178.929 21.8535C178.919 21.9512 178.87 22 178.782 22H175.442C175.364 22 175.325 21.9512 175.325 21.8535ZM181.199 8.02539L179.852 16.4482H182.737L181.507 8.02539L181.331 6.91211L181.199 8.02539ZM192.654 22H189.256C189.178 22 189.139 21.9512 189.139 21.8535L189.197 1.24316C189.197 1.16504 189.236 1.12598 189.314 1.12598H195.379C196.463 1.12598 197.459 1.38965 198.367 1.91699C199.275 2.44434 199.998 3.15234 200.535 4.04102C201.082 4.92969 201.355 5.93555 201.355 7.05859C201.355 7.79102 201.243 8.45508 201.019 9.05078C200.794 9.64648 200.53 10.1494 200.228 10.5596C199.935 10.9697 199.666 11.2725 199.422 11.4678C200.506 12.6689 201.048 14.0801 201.048 15.7012L201.077 21.8535C201.077 21.9512 201.028 22 200.931 22H197.532C197.454 22 197.415 21.9707 197.415 21.9121V15.7012C197.415 14.9785 197.161 14.3535 196.653 13.8262C196.146 13.2988 195.521 13.0352 194.778 13.0352H192.801L192.771 21.8535C192.771 21.9512 192.732 22 192.654 22ZM195.379 4.71484H192.801V9.43164H195.379C195.994 9.43164 196.541 9.20215 197.02 8.74316C197.508 8.28418 197.752 7.72266 197.752 7.05859C197.752 6.42383 197.518 5.87695 197.049 5.41797C196.58 4.94922 196.023 4.71484 195.379 4.71484ZM208.958 22H205.516C205.447 22 205.413 21.9609 205.413 21.8828L205.442 13.3574L201.429 1.24316C201.409 1.16504 201.438 1.12598 201.517 1.12598H204.856C204.954 1.12598 205.013 1.16504 205.032 1.24316L207.244 9.31445L209.5 1.24316C209.52 1.16504 209.568 1.12598 209.646 1.12598H213.016C213.094 1.12598 213.123 1.16504 213.104 1.24316L209.046 13.2402L209.075 21.8828C209.075 21.9609 209.036 22 208.958 22ZM226.053 22H222.684C222.586 22 222.537 21.9512 222.537 21.8535L222.596 1.24316C222.596 1.16504 222.635 1.12598 222.713 1.12598H232.322C232.42 1.12598 232.469 1.16504 232.469 1.24316V4.62695C232.469 4.70508 232.43 4.74414 232.352 4.74414H226.199V9.40234H232.352C232.43 9.40234 232.469 9.45117 232.469 9.54883L232.498 12.9473C232.498 13.0254 232.449 13.0645 232.352 13.0645H226.199V21.8535C226.199 21.9512 226.15 22 226.053 22ZM238.709 22H235.311C235.213 22 235.164 21.9512 235.164 21.8535L235.193 1.24316C235.193 1.16504 235.232 1.12598 235.311 1.12598H238.68C238.758 1.12598 238.797 1.16504 238.797 1.24316L238.826 21.8535C238.826 21.9512 238.787 22 238.709 22ZM246.985 22.293C245.901 22.293 244.91 22.0195 244.012 21.4727C243.123 20.9258 242.415 20.1934 241.888 19.2754C241.37 18.3477 241.111 17.3174 241.111 16.1846L241.141 6.82422C241.141 5.71094 241.395 4.70508 241.902 3.80664C242.41 2.89844 243.108 2.1709 243.997 1.62402C244.896 1.06738 245.892 0.789062 246.985 0.789062C248.099 0.789062 249.09 1.05762 249.959 1.59473C250.838 2.13184 251.536 2.85938 252.054 3.77734C252.581 4.68555 252.845 5.70117 252.845 6.82422V8.20117C252.845 8.2793 252.806 8.31836 252.728 8.31836H249.358C249.28 8.31836 249.241 8.2793 249.241 8.20117V6.82422C249.241 6.16016 249.026 5.58887 248.597 5.11035C248.167 4.63184 247.63 4.39258 246.985 4.39258C246.272 4.39258 245.726 4.63672 245.345 5.125C244.964 5.61328 244.773 6.17969 244.773 6.82422V16.1846C244.773 16.917 244.988 17.5176 245.418 17.9863C245.848 18.4453 246.37 18.6748 246.985 18.6748C247.63 18.6748 248.167 18.4209 248.597 17.9131C249.026 17.3955 249.241 16.8193 249.241 16.1846V14.793C249.241 14.7148 249.28 14.6758 249.358 14.6758H252.757C252.835 14.6758 252.874 14.7148 252.874 14.793V16.1846C252.874 17.3076 252.61 18.333 252.083 19.2607C251.546 20.1787 250.838 20.916 249.959 21.4727C249.08 22.0195 248.089 22.293 246.985 22.293ZM261.458 22H258.074C257.986 22 257.942 21.9512 257.942 21.8535V4.74414H254.046C253.948 4.74414 253.899 4.69531 253.899 4.59766L253.929 1.24316C253.929 1.16504 253.968 1.12598 254.046 1.12598H265.442C265.55 1.12598 265.604 1.16504 265.604 1.24316V4.59766C265.604 4.69531 265.564 4.74414 265.486 4.74414H261.546L261.575 21.8535C261.575 21.9512 261.536 22 261.458 22ZM270.613 22H267.215C267.117 22 267.068 21.9512 267.068 21.8535L267.098 1.24316C267.098 1.16504 267.137 1.12598 267.215 1.12598H270.584C270.662 1.12598 270.701 1.16504 270.701 1.24316L270.73 21.8535C270.73 21.9512 270.691 22 270.613 22ZM278.919 22.293C277.854 22.293 276.873 22.0195 275.975 21.4727C275.086 20.9258 274.368 20.1982 273.821 19.29C273.284 18.3721 273.016 17.3662 273.016 16.2725L273.045 6.76562C273.045 5.65234 273.313 4.65137 273.851 3.7627C274.378 2.86426 275.091 2.14648 275.989 1.60938C276.888 1.0625 277.864 0.789062 278.919 0.789062C280.013 0.789062 280.994 1.05762 281.863 1.59473C282.742 2.13184 283.445 2.85449 283.973 3.7627C284.51 4.66113 284.778 5.66211 284.778 6.76562L284.808 16.2725C284.808 17.3662 284.544 18.3672 284.017 19.2754C283.479 20.1934 282.767 20.9258 281.878 21.4727C280.989 22.0195 280.003 22.293 278.919 22.293ZM278.919 18.6748C279.524 18.6748 280.052 18.4307 280.501 17.9424C280.95 17.4443 281.175 16.8877 281.175 16.2725L281.146 6.76562C281.146 6.10156 280.936 5.54004 280.516 5.08105C280.096 4.62207 279.563 4.39258 278.919 4.39258C278.304 4.39258 277.776 4.61719 277.337 5.06641C276.897 5.51562 276.678 6.08203 276.678 6.76562V16.2725C276.678 16.9268 276.897 17.4932 277.337 17.9717C277.776 18.4404 278.304 18.6748 278.919 18.6748ZM290.345 22H287.342C287.186 22 287.107 21.9316 287.107 21.7949L287.078 1.36035C287.078 1.2041 287.156 1.12598 287.312 1.12598H290.022L295.091 12.9473L294.944 1.36035C294.944 1.2041 295.032 1.12598 295.208 1.12598H298.182C298.299 1.12598 298.357 1.2041 298.357 1.36035L298.387 21.8242C298.387 21.9414 298.338 22 298.24 22H295.604L290.403 10.9551L290.623 21.7656C290.623 21.9219 290.53 22 290.345 22ZM312.2 22H308.904C308.826 22 308.787 21.9609 308.787 21.8828V1.24316C308.787 1.16504 308.826 1.12598 308.904 1.12598H312.142C312.229 1.12598 312.273 1.16504 312.273 1.24316V21.8828C312.273 21.9609 312.249 22 312.2 22ZM326.043 22H322.645C322.566 22 322.527 21.9512 322.527 21.8535L322.557 1.24316C322.557 1.16504 322.605 1.12598 322.703 1.12598H326.043C326.141 1.12598 326.189 1.16504 326.189 1.24316L326.16 9.40234H330.657V1.24316C330.657 1.16504 330.696 1.12598 330.774 1.12598H334.114C334.212 1.12598 334.261 1.16504 334.261 1.24316L334.319 21.8535C334.319 21.9512 334.271 22 334.173 22H330.804C330.706 22 330.657 21.9512 330.657 21.8535V13.0352H326.16V21.8535C326.16 21.9512 326.121 22 326.043 22ZM340.311 22H336.912C336.814 22 336.766 21.9512 336.766 21.8535L336.795 1.24316C336.795 1.16504 336.834 1.12598 336.912 1.12598H340.281C340.359 1.12598 340.398 1.16504 340.398 1.24316L340.428 21.8535C340.428 21.9512 340.389 22 340.311 22ZM348.162 22.293C347.098 22.293 346.116 22.0195 345.218 21.4727C344.329 20.9258 343.616 20.1982 343.079 19.29C342.552 18.3721 342.288 17.3662 342.288 16.2725V14.8955C342.288 14.7881 342.337 14.7344 342.435 14.7344H345.804C345.882 14.7344 345.921 14.7881 345.921 14.8955V16.2725C345.921 16.9268 346.141 17.4932 346.58 17.9717C347.02 18.4404 347.547 18.6748 348.162 18.6748C348.787 18.6748 349.319 18.4355 349.759 17.957C350.198 17.4688 350.418 16.9072 350.418 16.2725C350.418 15.54 349.939 14.9004 348.982 14.3535C348.826 14.2559 348.621 14.1387 348.367 14.002C348.123 13.8555 347.83 13.6895 347.488 13.5039C347.146 13.3184 346.814 13.1377 346.492 12.9619C346.17 12.7764 345.857 12.6006 345.555 12.4346C344.461 11.79 343.646 10.9844 343.108 10.0176C342.581 9.04102 342.317 7.94727 342.317 6.73633C342.317 5.62305 342.591 4.61719 343.138 3.71875C343.685 2.83008 344.397 2.12695 345.276 1.60938C346.165 1.08203 347.127 0.818359 348.162 0.818359C349.227 0.818359 350.203 1.08203 351.092 1.60938C351.98 2.14648 352.688 2.85938 353.216 3.74805C353.753 4.63672 354.021 5.63281 354.021 6.73633V9.19727C354.021 9.27539 353.982 9.31445 353.904 9.31445H350.535C350.457 9.31445 350.418 9.27539 350.418 9.19727L350.389 6.73633C350.389 6.0332 350.169 5.46191 349.729 5.02246C349.29 4.58301 348.768 4.36328 348.162 4.36328C347.547 4.36328 347.02 4.59766 346.58 5.06641C346.141 5.53516 345.921 6.0918 345.921 6.73633C345.921 7.39062 346.058 7.9375 346.331 8.37695C346.614 8.81641 347.127 9.23633 347.869 9.63672C347.947 9.67578 348.128 9.77344 348.411 9.92969C348.694 10.0859 349.007 10.2617 349.349 10.457C349.7 10.6426 350.018 10.8135 350.301 10.9697C350.584 11.1162 350.755 11.2041 350.813 11.2334C351.81 11.79 352.596 12.4736 353.172 13.2842C353.758 14.0947 354.051 15.0908 354.051 16.2725C354.051 17.415 353.787 18.4404 353.26 19.3486C352.723 20.2568 352.01 20.9746 351.121 21.502C350.232 22.0293 349.246 22.293 348.162 22.293ZM361.917 22H358.533C358.445 22 358.401 21.9512 358.401 21.8535V4.74414H354.505C354.407 4.74414 354.358 4.69531 354.358 4.59766L354.388 1.24316C354.388 1.16504 354.427 1.12598 354.505 1.12598H365.901C366.009 1.12598 366.062 1.16504 366.062 1.24316V4.59766C366.062 4.69531 366.023 4.74414 365.945 4.74414H362.005L362.034 21.8535C362.034 21.9512 361.995 22 361.917 22ZM372.464 22.293C371.399 22.293 370.418 22.0195 369.52 21.4727C368.631 20.9258 367.913 20.1982 367.366 19.29C366.829 18.3721 366.561 17.3662 366.561 16.2725L366.59 6.76562C366.59 5.65234 366.858 4.65137 367.396 3.7627C367.923 2.86426 368.636 2.14648 369.534 1.60938C370.433 1.0625 371.409 0.789062 372.464 0.789062C373.558 0.789062 374.539 1.05762 375.408 1.59473C376.287 2.13184 376.99 2.85449 377.518 3.7627C378.055 4.66113 378.323 5.66211 378.323 6.76562L378.353 16.2725C378.353 17.3662 378.089 18.3672 377.562 19.2754C377.024 20.1934 376.312 20.9258 375.423 21.4727C374.534 22.0195 373.548 22.293 372.464 22.293ZM372.464 18.6748C373.069 18.6748 373.597 18.4307 374.046 17.9424C374.495 17.4443 374.72 16.8877 374.72 16.2725L374.69 6.76562C374.69 6.10156 374.48 5.54004 374.061 5.08105C373.641 4.62207 373.108 4.39258 372.464 4.39258C371.849 4.39258 371.321 4.61719 370.882 5.06641C370.442 5.51562 370.223 6.08203 370.223 6.76562V16.2725C370.223 16.9268 370.442 17.4932 370.882 17.9717C371.321 18.4404 371.849 18.6748 372.464 18.6748ZM384.139 22H380.74C380.662 22 380.623 21.9512 380.623 21.8535L380.682 1.24316C380.682 1.16504 380.721 1.12598 380.799 1.12598H386.863C387.947 1.12598 388.943 1.38965 389.852 1.91699C390.76 2.44434 391.482 3.15234 392.02 4.04102C392.566 4.92969 392.84 5.93555 392.84 7.05859C392.84 7.79102 392.728 8.45508 392.503 9.05078C392.278 9.64648 392.015 10.1494 391.712 10.5596C391.419 10.9697 391.15 11.2725 390.906 11.4678C391.99 12.6689 392.532 14.0801 392.532 15.7012L392.562 21.8535C392.562 21.9512 392.513 22 392.415 22H389.017C388.938 22 388.899 21.9707 388.899 21.9121V15.7012C388.899 14.9785 388.646 14.3535 388.138 13.8262C387.63 13.2988 387.005 13.0352 386.263 13.0352H384.285L384.256 21.8535C384.256 21.9512 384.217 22 384.139 22ZM386.863 4.71484H384.285V9.43164H386.863C387.479 9.43164 388.025 9.20215 388.504 8.74316C388.992 8.28418 389.236 7.72266 389.236 7.05859C389.236 6.42383 389.002 5.87695 388.533 5.41797C388.064 4.94922 387.508 4.71484 386.863 4.71484ZM398.641 22H395.242C395.145 22 395.096 21.9512 395.096 21.8535L395.125 1.24316C395.125 1.16504 395.164 1.12598 395.242 1.12598H398.611C398.689 1.12598 398.729 1.16504 398.729 1.24316L398.758 21.8535C398.758 21.9512 398.719 22 398.641 22ZM406.917 22.293C405.833 22.293 404.842 22.0195 403.943 21.4727C403.055 20.9258 402.347 20.1934 401.819 19.2754C401.302 18.3477 401.043 17.3174 401.043 16.1846L401.072 6.82422C401.072 5.71094 401.326 4.70508 401.834 3.80664C402.342 2.89844 403.04 2.1709 403.929 1.62402C404.827 1.06738 405.823 0.789062 406.917 0.789062C408.03 0.789062 409.021 1.05762 409.891 1.59473C410.77 2.13184 411.468 2.85938 411.985 3.77734C412.513 4.68555 412.776 5.70117 412.776 6.82422V8.20117C412.776 8.2793 412.737 8.31836 412.659 8.31836H409.29C409.212 8.31836 409.173 8.2793 409.173 8.20117V6.82422C409.173 6.16016 408.958 5.58887 408.528 5.11035C408.099 4.63184 407.562 4.39258 406.917 4.39258C406.204 4.39258 405.657 4.63672 405.276 5.125C404.896 5.61328 404.705 6.17969 404.705 6.82422V16.1846C404.705 16.917 404.92 17.5176 405.35 17.9863C405.779 18.4453 406.302 18.6748 406.917 18.6748C407.562 18.6748 408.099 18.4209 408.528 17.9131C408.958 17.3955 409.173 16.8193 409.173 16.1846V14.793C409.173 14.7148 409.212 14.6758 409.29 14.6758H412.688C412.767 14.6758 412.806 14.7148 412.806 14.793V16.1846C412.806 17.3076 412.542 18.333 412.015 19.2607C411.478 20.1787 410.77 20.916 409.891 21.4727C409.012 22.0195 408.021 22.293 406.917 22.293ZM413.978 21.8535L417.698 1.24316C417.718 1.16504 417.767 1.12598 417.845 1.12598H422.195C422.273 1.12598 422.322 1.16504 422.342 1.24316L425.916 21.8535C425.926 21.9512 425.887 22 425.799 22H422.474C422.376 22 422.322 21.9512 422.312 21.8535L421.99 19.6562H417.903L417.581 21.8535C417.571 21.9512 417.522 22 417.435 22H414.095C414.017 22 413.978 21.9512 413.978 21.8535ZM419.852 8.02539L418.504 16.4482H421.39L420.159 8.02539L419.983 6.91211L419.852 8.02539ZM437.605 22H427.908C427.83 22 427.791 21.9512 427.791 21.8535L427.82 1.27246C427.82 1.1748 427.869 1.12598 427.967 1.12598H431.307C431.404 1.12598 431.453 1.1748 431.453 1.27246L431.424 18.3086H437.605C437.703 18.3086 437.752 18.3574 437.752 18.4551V21.8535C437.752 21.9512 437.703 22 437.605 22ZM451.023 22H447.654C447.557 22 447.508 21.9512 447.508 21.8535L447.566 1.24316C447.566 1.16504 447.605 1.12598 447.684 1.12598H457.293C457.391 1.12598 457.439 1.16504 457.439 1.24316V4.62695C457.439 4.70508 457.4 4.74414 457.322 4.74414H451.17V9.40234H457.322C457.4 9.40234 457.439 9.45117 457.439 9.54883L457.469 12.9473C457.469 13.0254 457.42 13.0645 457.322 13.0645H451.17V21.8535C451.17 21.9512 451.121 22 451.023 22ZM463.68 22H460.281C460.184 22 460.135 21.9512 460.135 21.8535L460.164 1.24316C460.164 1.16504 460.203 1.12598 460.281 1.12598H463.65C463.729 1.12598 463.768 1.16504 463.768 1.24316L463.797 21.8535C463.797 21.9512 463.758 22 463.68 22ZM471.956 22.293C470.872 22.293 469.881 22.0195 468.982 21.4727C468.094 20.9258 467.386 20.1934 466.858 19.2754C466.341 18.3477 466.082 17.3174 466.082 16.1846L466.111 6.82422C466.111 5.71094 466.365 4.70508 466.873 3.80664C467.381 2.89844 468.079 2.1709 468.968 1.62402C469.866 1.06738 470.862 0.789062 471.956 0.789062C473.069 0.789062 474.061 1.05762 474.93 1.59473C475.809 2.13184 476.507 2.85938 477.024 3.77734C477.552 4.68555 477.815 5.70117 477.815 6.82422V8.20117C477.815 8.2793 477.776 8.31836 477.698 8.31836H474.329C474.251 8.31836 474.212 8.2793 474.212 8.20117V6.82422C474.212 6.16016 473.997 5.58887 473.567 5.11035C473.138 4.63184 472.601 4.39258 471.956 4.39258C471.243 4.39258 470.696 4.63672 470.315 5.125C469.935 5.61328 469.744 6.17969 469.744 6.82422V16.1846C469.744 16.917 469.959 17.5176 470.389 17.9863C470.818 18.4453 471.341 18.6748 471.956 18.6748C472.601 18.6748 473.138 18.4209 473.567 17.9131C473.997 17.3955 474.212 16.8193 474.212 16.1846V14.793C474.212 14.7148 474.251 14.6758 474.329 14.6758H477.728C477.806 14.6758 477.845 14.7148 477.845 14.793V16.1846C477.845 17.3076 477.581 18.333 477.054 19.2607C476.517 20.1787 475.809 20.916 474.93 21.4727C474.051 22.0195 473.06 22.293 471.956 22.293ZM486.429 22H483.045C482.957 22 482.913 21.9512 482.913 21.8535V4.74414H479.017C478.919 4.74414 478.87 4.69531 478.87 4.59766L478.899 1.24316C478.899 1.16504 478.938 1.12598 479.017 1.12598H490.413C490.521 1.12598 490.574 1.16504 490.574 1.24316V4.59766C490.574 4.69531 490.535 4.74414 490.457 4.74414H486.517L486.546 21.8535C486.546 21.9512 486.507 22 486.429 22ZM495.584 22H492.186C492.088 22 492.039 21.9512 492.039 21.8535L492.068 1.24316C492.068 1.16504 492.107 1.12598 492.186 1.12598H495.555C495.633 1.12598 495.672 1.16504 495.672 1.24316L495.701 21.8535C495.701 21.9512 495.662 22 495.584 22ZM503.89 22.293C502.825 22.293 501.844 22.0195 500.945 21.4727C500.057 20.9258 499.339 20.1982 498.792 19.29C498.255 18.3721 497.986 17.3662 497.986 16.2725L498.016 6.76562C498.016 5.65234 498.284 4.65137 498.821 3.7627C499.349 2.86426 500.062 2.14648 500.96 1.60938C501.858 1.0625 502.835 0.789062 503.89 0.789062C504.983 0.789062 505.965 1.05762 506.834 1.59473C507.713 2.13184 508.416 2.85449 508.943 3.7627C509.48 4.66113 509.749 5.66211 509.749 6.76562L509.778 16.2725C509.778 17.3662 509.515 18.3672 508.987 19.2754C508.45 20.1934 507.737 20.9258 506.849 21.4727C505.96 22.0195 504.974 22.293 503.89 22.293ZM503.89 18.6748C504.495 18.6748 505.022 18.4307 505.472 17.9424C505.921 17.4443 506.146 16.8877 506.146 16.2725L506.116 6.76562C506.116 6.10156 505.906 5.54004 505.486 5.08105C505.066 4.62207 504.534 4.39258 503.89 4.39258C503.274 4.39258 502.747 4.61719 502.308 5.06641C501.868 5.51562 501.648 6.08203 501.648 6.76562V16.2725C501.648 16.9268 501.868 17.4932 502.308 17.9717C502.747 18.4404 503.274 18.6748 503.89 18.6748ZM515.315 22H512.312C512.156 22 512.078 21.9316 512.078 21.7949L512.049 1.36035C512.049 1.2041 512.127 1.12598 512.283 1.12598H514.993L520.062 12.9473L519.915 1.36035C519.915 1.2041 520.003 1.12598 520.179 1.12598H523.152C523.27 1.12598 523.328 1.2041 523.328 1.36035L523.357 21.8242C523.357 21.9414 523.309 22 523.211 22H520.574L515.374 10.9551L515.594 21.7656C515.594 21.9219 515.501 22 515.315 22Z" fill="black"/>
<line x1="121" y1="28.25" x2="306" y2="28.25" stroke="black" stroke-width="1.5"/>
<line x1="327" y1="28.25" x2="521" y2="28.25" stroke="black" stroke-width="1.5"/>
</svg>

