<svg width="649" height="29" viewBox="0 0 649 29" fill="none" xmlns="http://www.w3.org/2000/svg">
<path d="M6.1582 22.293C5.07422 22.293 4.08301 22.0195 3.18457 21.4727C2.2959 20.9258 1.58789 20.1934 1.06055 19.2754C0.542969 18.3477 0.28418 17.3174 0.28418 16.1846L0.313477 6.82422C0.313477 5.71094 0.567383 4.70508 1.0752 3.80664C1.58301 2.89844 2.28125 2.1709 3.16992 1.62402C4.06836 1.06738 5.06445 0.789062 6.1582 0.789062C7.27148 0.789062 8.2627 1.05762 9.13184 1.59473C10.0107 2.13184 10.709 2.85938 11.2266 3.77734C11.7539 4.68555 12.0176 5.70117 12.0176 6.82422V8.20117C12.0176 8.2793 11.9785 8.31836 11.9004 8.31836H8.53125C8.45312 8.31836 8.41406 8.2793 8.41406 8.20117V6.82422C8.41406 6.16016 8.19922 5.58887 7.76953 5.11035C7.33984 4.63184 6.80273 4.39258 6.1582 4.39258C5.44531 4.39258 4.89844 4.63672 4.51758 5.125C4.13672 5.61328 3.94629 6.17969 3.94629 6.82422V16.1846C3.94629 16.917 4.16113 17.5176 4.59082 17.9863C5.02051 18.4453 5.54297 18.6748 6.1582 18.6748C6.80273 18.6748 7.33984 18.4209 7.76953 17.9131C8.19922 17.3955 8.41406 16.8193 8.41406 16.1846V14.793C8.41406 14.7148 8.45312 14.6758 8.53125 14.6758H11.9297C12.0078 14.6758 12.0469 14.7148 12.0469 14.793V16.1846C12.0469 17.3076 11.7832 18.333 11.2559 19.2607C10.7188 20.1787 10.0107 20.916 9.13184 21.4727C8.25293 22.0195 7.26172 22.293 6.1582 22.293ZM13.2188 21.8535L16.9395 1.24316C16.959 1.16504 17.0078 1.12598 17.0859 1.12598H21.4365C21.5146 1.12598 21.5635 1.16504 21.583 1.24316L25.1572 21.8535C25.167 21.9512 25.1279 22 25.04 22H21.7148C21.6172 22 21.5635 21.9512 21.5537 21.8535L21.2314 19.6562H17.1445L16.8223 21.8535C16.8125 21.9512 16.7637 22 16.6758 22H13.3359C13.2578 22 13.2188 21.9512 13.2188 21.8535ZM19.0928 8.02539L17.7451 16.4482H20.6309L19.4004 8.02539L19.2246 6.91211L19.0928 8.02539ZM33.4336 22H30.0498C29.9619 22 29.918 21.9512 29.918 21.8535V4.74414H26.0215C25.9238 4.74414 25.875 4.69531 25.875 4.59766L25.9043 1.24316C25.9043 1.16504 25.9434 1.12598 26.0215 1.12598H37.418C37.5254 1.12598 37.5791 1.16504 37.5791 1.24316V4.59766C37.5791 4.69531 37.54 4.74414 37.4619 4.74414H33.5215L33.5508 21.8535C33.5508 21.9512 33.5117 22 33.4336 22ZM48.8584 22H39.1611C39.083 22 39.0439 21.9512 39.0439 21.8535L39.0732 1.24316C39.0732 1.16504 39.1123 1.12598 39.1904 1.12598H48.8291C48.9072 1.12598 48.9463 1.1748 48.9463 1.27246V4.62695C48.9463 4.70508 48.9072 4.74414 48.8291 4.74414H42.6768V9.43164H48.8291C48.9072 9.43164 48.9463 9.4707 48.9463 9.54883L48.9756 12.9473C48.9756 13.0254 48.9365 13.0645 48.8584 13.0645H42.6768V18.3086H48.8584C48.9365 18.3086 48.9756 18.3574 48.9756 18.4551V21.8828C48.9756 21.9609 48.9365 22 48.8584 22ZM57.1348 22.293C56.0508 22.293 55.0742 22.0244 54.2051 21.4873C53.3262 20.9502 52.6182 20.2275 52.0811 19.3193C51.5537 18.4111 51.29 17.3955 51.29 16.2725V6.76562C51.29 5.67188 51.5586 4.67578 52.0957 3.77734C52.623 2.86914 53.3311 2.14648 54.2197 1.60938C55.1084 1.0625 56.0801 0.789062 57.1348 0.789062C58.2383 0.789062 59.2344 1.05273 60.123 1.58008C61.0117 2.11719 61.7148 2.83496 62.2324 3.7334C62.7598 4.63184 63.0234 5.64258 63.0234 6.76562V8.14258C63.0234 8.2207 62.9746 8.25977 62.877 8.25977H59.5078C59.4297 8.25977 59.3906 8.2207 59.3906 8.14258V7C59.3906 6.23828 59.1758 5.6084 58.7461 5.11035C58.3164 4.6123 57.7793 4.36328 57.1348 4.36328C56.5586 4.36328 56.0459 4.60254 55.5967 5.08105C55.1475 5.55957 54.9229 6.12109 54.9229 6.76562V16.2725C54.9229 16.9268 55.1426 17.4932 55.582 17.9717C56.0215 18.4404 56.5391 18.6748 57.1348 18.6748C57.7793 18.6748 58.3164 18.4453 58.7461 17.9863C59.1758 17.5176 59.3906 16.9463 59.3906 16.2725V14.793H57.2959C57.1885 14.793 57.1348 14.7441 57.1348 14.6465V11.292C57.1348 11.1943 57.1885 11.1455 57.2959 11.1455H62.9062C62.9844 11.1455 63.0234 11.1943 63.0234 11.292V16.2725C63.0234 17.3955 62.7598 18.4111 62.2324 19.3193C61.6953 20.2275 60.9873 20.9502 60.1084 21.4873C59.2295 22.0244 58.2383 22.293 57.1348 22.293ZM70.6992 22.293C69.6348 22.293 68.6533 22.0195 67.7549 21.4727C66.8662 20.9258 66.1484 20.1982 65.6016 19.29C65.0645 18.3721 64.7959 17.3662 64.7959 16.2725L64.8252 6.76562C64.8252 5.65234 65.0938 4.65137 65.6309 3.7627C66.1582 2.86426 66.8711 2.14648 67.7695 1.60938C68.668 1.0625 69.6445 0.789062 70.6992 0.789062C71.793 0.789062 72.7744 1.05762 73.6436 1.59473C74.5225 2.13184 75.2256 2.85449 75.7529 3.7627C76.29 4.66113 76.5586 5.66211 76.5586 6.76562L76.5879 16.2725C76.5879 17.3662 76.3242 18.3672 75.7969 19.2754C75.2598 20.1934 74.5469 20.9258 73.6582 21.4727C72.7695 22.0195 71.7832 22.293 70.6992 22.293ZM70.6992 18.6748C71.3047 18.6748 71.832 18.4307 72.2812 17.9424C72.7305 17.4443 72.9551 16.8877 72.9551 16.2725L72.9258 6.76562C72.9258 6.10156 72.7158 5.54004 72.2959 5.08105C71.876 4.62207 71.3438 4.39258 70.6992 4.39258C70.084 4.39258 69.5566 4.61719 69.1172 5.06641C68.6777 5.51562 68.458 6.08203 68.458 6.76562V16.2725C68.458 16.9268 68.6777 17.4932 69.1172 17.9717C69.5566 18.4404 70.084 18.6748 70.6992 18.6748ZM82.374 22H78.9756C78.8975 22 78.8584 21.9512 78.8584 21.8535L78.917 1.24316C78.917 1.16504 78.9561 1.12598 79.0342 1.12598H85.0986C86.1826 1.12598 87.1787 1.38965 88.0869 1.91699C88.9951 2.44434 89.7178 3.15234 90.2549 4.04102C90.8018 4.92969 91.0752 5.93555 91.0752 7.05859C91.0752 7.79102 90.9629 8.45508 90.7383 9.05078C90.5137 9.64648 90.25 10.1494 89.9473 10.5596C89.6543 10.9697 89.3857 11.2725 89.1416 11.4678C90.2256 12.6689 90.7676 14.0801 90.7676 15.7012L90.7969 21.8535C90.7969 21.9512 90.748 22 90.6504 22H87.252C87.1738 22 87.1348 21.9707 87.1348 21.9121V15.7012C87.1348 14.9785 86.8809 14.3535 86.373 13.8262C85.8652 13.2988 85.2402 13.0352 84.498 13.0352H82.5205L82.4912 21.8535C82.4912 21.9512 82.4521 22 82.374 22ZM85.0986 4.71484H82.5205V9.43164H85.0986C85.7139 9.43164 86.2607 9.20215 86.7393 8.74316C87.2275 8.28418 87.4717 7.72266 87.4717 7.05859C87.4717 6.42383 87.2373 5.87695 86.7686 5.41797C86.2998 4.94922 85.7432 4.71484 85.0986 4.71484ZM99.5859 22H96.1436C96.0752 22 96.041 21.9609 96.041 21.8828L96.0703 13.3574L92.0566 1.24316C92.0371 1.16504 92.0664 1.12598 92.1445 1.12598H95.4844C95.582 1.12598 95.6406 1.16504 95.6602 1.24316L97.8721 9.31445L100.128 1.24316C100.147 1.16504 100.196 1.12598 100.274 1.12598H103.644C103.722 1.12598 103.751 1.16504 103.731 1.24316L99.6738 13.2402L99.7031 21.8828C99.7031 21.9609 99.6641 22 99.5859 22ZM108.888 13.0938H105.489C105.411 13.0938 105.372 13.0547 105.372 12.9766V9.57812C105.372 9.5 105.411 9.46094 105.489 9.46094H108.888C108.966 9.46094 109.005 9.5 109.005 9.57812V12.9766C109.005 13.0547 108.966 13.0938 108.888 13.0938ZM108.888 22H105.489C105.411 22 105.372 21.9609 105.372 21.8828V18.4844C105.372 18.4062 105.411 18.3672 105.489 18.3672H108.888C108.966 18.3672 109.005 18.4062 109.005 18.4844V21.8828C109.005 21.9609 108.966 22 108.888 22ZM124.752 22H119.376C119.298 22 119.259 21.9512 119.259 21.8535L119.317 1.24316C119.317 1.16504 119.356 1.12598 119.435 1.12598H125.206C126.329 1.12598 127.35 1.39941 128.268 1.94629C129.166 2.49316 129.874 3.2207 130.392 4.12891C130.909 5.02734 131.168 6.00391 131.168 7.05859C131.168 7.91797 130.973 8.71875 130.582 9.46094C130.191 10.2031 129.728 10.8037 129.19 11.2627C129.767 11.8389 130.216 12.5078 130.538 13.2695C130.86 14.0312 131.021 14.832 131.021 15.6719C131.021 16.834 130.743 17.8936 130.187 18.8506C129.62 19.8076 128.863 20.5742 127.916 21.1504C126.969 21.7168 125.914 22 124.752 22ZM125.206 4.68555H122.921V9.40234H125.206C125.899 9.40234 126.461 9.1582 126.891 8.66992C127.32 8.17188 127.535 7.63477 127.535 7.05859C127.535 6.42383 127.306 5.87207 126.847 5.40332C126.388 4.9248 125.841 4.68555 125.206 4.68555ZM124.752 13.0352H122.921L122.892 18.3379H124.752C125.475 18.3379 126.095 18.0742 126.612 17.5469C127.13 17.0195 127.389 16.3945 127.389 15.6719C127.389 14.9492 127.13 14.3291 126.612 13.8115C126.095 13.2939 125.475 13.0352 124.752 13.0352ZM136.72 22H133.321C133.224 22 133.175 21.9512 133.175 21.8535L133.204 1.24316C133.204 1.16504 133.243 1.12598 133.321 1.12598H136.69C136.769 1.12598 136.808 1.16504 136.808 1.24316L136.837 21.8535C136.837 21.9512 136.798 22 136.72 22ZM145.025 22.293C143.961 22.293 142.979 22.0195 142.081 21.4727C141.192 20.9258 140.475 20.1982 139.928 19.29C139.391 18.3721 139.122 17.3662 139.122 16.2725L139.151 6.76562C139.151 5.65234 139.42 4.65137 139.957 3.7627C140.484 2.86426 141.197 2.14648 142.096 1.60938C142.994 1.0625 143.971 0.789062 145.025 0.789062C146.119 0.789062 147.101 1.05762 147.97 1.59473C148.849 2.13184 149.552 2.85449 150.079 3.7627C150.616 4.66113 150.885 5.66211 150.885 6.76562L150.914 16.2725C150.914 17.3662 150.65 18.3672 150.123 19.2754C149.586 20.1934 148.873 20.9258 147.984 21.4727C147.096 22.0195 146.109 22.293 145.025 22.293ZM145.025 18.6748C145.631 18.6748 146.158 18.4307 146.607 17.9424C147.057 17.4443 147.281 16.8877 147.281 16.2725L147.252 6.76562C147.252 6.10156 147.042 5.54004 146.622 5.08105C146.202 4.62207 145.67 4.39258 145.025 4.39258C144.41 4.39258 143.883 4.61719 143.443 5.06641C143.004 5.51562 142.784 6.08203 142.784 6.76562V16.2725C142.784 16.9268 143.004 17.4932 143.443 17.9717C143.883 18.4404 144.41 18.6748 145.025 18.6748ZM158.678 22.293C157.594 22.293 156.617 22.0244 155.748 21.4873C154.869 20.9502 154.161 20.2275 153.624 19.3193C153.097 18.4111 152.833 17.3955 152.833 16.2725V6.76562C152.833 5.67188 153.102 4.67578 153.639 3.77734C154.166 2.86914 154.874 2.14648 155.763 1.60938C156.651 1.0625 157.623 0.789062 158.678 0.789062C159.781 0.789062 160.777 1.05273 161.666 1.58008C162.555 2.11719 163.258 2.83496 163.775 3.7334C164.303 4.63184 164.566 5.64258 164.566 6.76562V8.14258C164.566 8.2207 164.518 8.25977 164.42 8.25977H161.051C160.973 8.25977 160.934 8.2207 160.934 8.14258V7C160.934 6.23828 160.719 5.6084 160.289 5.11035C159.859 4.6123 159.322 4.36328 158.678 4.36328C158.102 4.36328 157.589 4.60254 157.14 5.08105C156.69 5.55957 156.466 6.12109 156.466 6.76562V16.2725C156.466 16.9268 156.686 17.4932 157.125 17.9717C157.564 18.4404 158.082 18.6748 158.678 18.6748C159.322 18.6748 159.859 18.4453 160.289 17.9863C160.719 17.5176 160.934 16.9463 160.934 16.2725V14.793H158.839C158.731 14.793 158.678 14.7441 158.678 14.6465V11.292C158.678 11.1943 158.731 11.1455 158.839 11.1455H164.449C164.527 11.1455 164.566 11.1943 164.566 11.292V16.2725C164.566 17.3955 164.303 18.4111 163.775 19.3193C163.238 20.2275 162.53 20.9502 161.651 21.4873C160.772 22.0244 159.781 22.293 158.678 22.293ZM170.206 22H166.808C166.729 22 166.69 21.9512 166.69 21.8535L166.749 1.24316C166.749 1.16504 166.788 1.12598 166.866 1.12598H172.931C174.015 1.12598 175.011 1.38965 175.919 1.91699C176.827 2.44434 177.55 3.15234 178.087 4.04102C178.634 4.92969 178.907 5.93555 178.907 7.05859C178.907 7.79102 178.795 8.45508 178.57 9.05078C178.346 9.64648 178.082 10.1494 177.779 10.5596C177.486 10.9697 177.218 11.2725 176.974 11.4678C178.058 12.6689 178.6 14.0801 178.6 15.7012L178.629 21.8535C178.629 21.9512 178.58 22 178.482 22H175.084C175.006 22 174.967 21.9707 174.967 21.9121V15.7012C174.967 14.9785 174.713 14.3535 174.205 13.8262C173.697 13.2988 173.072 13.0352 172.33 13.0352H170.353L170.323 21.8535C170.323 21.9512 170.284 22 170.206 22ZM172.931 4.71484H170.353V9.43164H172.931C173.546 9.43164 174.093 9.20215 174.571 8.74316C175.06 8.28418 175.304 7.72266 175.304 7.05859C175.304 6.42383 175.069 5.87695 174.601 5.41797C174.132 4.94922 173.575 4.71484 172.931 4.71484ZM179.537 21.8535L183.258 1.24316C183.277 1.16504 183.326 1.12598 183.404 1.12598H187.755C187.833 1.12598 187.882 1.16504 187.901 1.24316L191.476 21.8535C191.485 21.9512 191.446 22 191.358 22H188.033C187.936 22 187.882 21.9512 187.872 21.8535L187.55 19.6562H183.463L183.141 21.8535C183.131 21.9512 183.082 22 182.994 22H179.654C179.576 22 179.537 21.9512 179.537 21.8535ZM185.411 8.02539L184.063 16.4482H186.949L185.719 8.02539L185.543 6.91211L185.411 8.02539ZM196.866 22H193.497C193.399 22 193.351 21.9512 193.351 21.8535L193.409 1.24316C193.409 1.16504 193.448 1.12598 193.526 1.12598H199.298C201.134 1.12598 202.584 1.6875 203.648 2.81055C204.723 3.92383 205.26 5.44238 205.26 7.36621C205.26 8.77246 204.981 9.99805 204.425 11.043C203.858 12.0781 203.126 12.8789 202.228 13.4453C201.329 14.0117 200.353 14.2949 199.298 14.2949H197.013V21.8535C197.013 21.9512 196.964 22 196.866 22ZM199.298 4.68555L197.013 4.71484V10.6621H199.298C199.933 10.6621 200.484 10.3594 200.953 9.75391C201.422 9.13867 201.656 8.34277 201.656 7.36621C201.656 6.58496 201.446 5.94531 201.026 5.44727C200.606 4.93945 200.03 4.68555 199.298 4.68555ZM210.812 22H207.413C207.335 22 207.296 21.9512 207.296 21.8535L207.325 1.24316C207.325 1.16504 207.374 1.12598 207.472 1.12598H210.812C210.909 1.12598 210.958 1.16504 210.958 1.24316L210.929 9.40234H215.426V1.24316C215.426 1.16504 215.465 1.12598 215.543 1.12598H218.883C218.98 1.12598 219.029 1.16504 219.029 1.24316L219.088 21.8535C219.088 21.9512 219.039 22 218.941 22H215.572C215.475 22 215.426 21.9512 215.426 21.8535V13.0352H210.929V21.8535C210.929 21.9512 210.89 22 210.812 22ZM227.174 22H223.731C223.663 22 223.629 21.9609 223.629 21.8828L223.658 13.3574L219.645 1.24316C219.625 1.16504 219.654 1.12598 219.732 1.12598H223.072C223.17 1.12598 223.229 1.16504 223.248 1.24316L225.46 9.31445L227.716 1.24316C227.735 1.16504 227.784 1.12598 227.862 1.12598H231.231C231.31 1.12598 231.339 1.16504 231.319 1.24316L227.262 13.2402L227.291 21.8828C227.291 21.9609 227.252 22 227.174 22ZM251.197 22L245.865 22.0293C244.693 22.0293 243.658 21.7363 242.76 21.1504C241.871 20.5742 241.173 19.8467 240.665 18.9678C240.167 18.0889 239.918 17.21 239.918 16.3311V14.3535C239.918 13.6699 240.079 13.0107 240.401 12.376C240.724 11.7314 241.144 11.1602 241.661 10.6621C241.241 10.2031 240.909 9.6416 240.665 8.97754C240.431 8.30371 240.313 7.55664 240.313 6.73633C240.313 5.70117 240.558 4.75391 241.046 3.89453C241.534 3.04492 242.193 2.37109 243.023 1.87305C243.854 1.375 244.776 1.12598 245.792 1.12598H249.85C249.986 1.12598 250.055 1.19434 250.055 1.33105V4.50977C250.055 4.62695 249.996 4.68555 249.879 4.68555H245.792C245.294 4.68555 244.859 4.88574 244.488 5.28613C244.117 5.68652 243.932 6.16992 243.932 6.73633C243.932 7.41016 244.088 7.9375 244.4 8.31836C244.713 8.69922 245.177 8.88965 245.792 8.88965H253.951C254.059 8.88965 254.112 8.93848 254.112 9.03613V12.376C254.112 12.4541 254.073 12.4932 253.995 12.4932H251.344L251.314 21.8828C251.314 21.9609 251.275 22 251.197 22ZM245.865 18.4258L247.813 18.3965L247.843 12.4932H245.763C245.343 12.4932 244.962 12.5957 244.62 12.8008C243.868 13.2598 243.492 13.7773 243.492 14.3535V16.3311C243.492 16.624 243.59 16.9365 243.785 17.2686C243.98 17.6006 244.254 17.8789 244.605 18.1035C244.957 18.3184 245.377 18.4258 245.865 18.4258ZM266.974 22H263.575C263.497 22 263.458 21.9512 263.458 21.8535L263.517 1.24316C263.517 1.16504 263.556 1.12598 263.634 1.12598H267.296C267.374 1.12598 267.442 1.16504 267.501 1.24316L270.24 5.19824L272.965 1.24316C273.023 1.16504 273.097 1.12598 273.185 1.12598H276.861C276.949 1.12598 276.993 1.16504 276.993 1.24316L277.052 21.8535C277.052 21.9512 277.013 22 276.935 22H273.536C273.458 22 273.419 21.9512 273.419 21.8535L273.39 6.5459L270.24 11.1162L267.12 6.5459L267.091 21.8535C267.091 21.9512 267.052 22 266.974 22ZM289.386 22H279.688C279.61 22 279.571 21.9512 279.571 21.8535L279.601 1.24316C279.601 1.16504 279.64 1.12598 279.718 1.12598H289.356C289.435 1.12598 289.474 1.1748 289.474 1.27246V4.62695C289.474 4.70508 289.435 4.74414 289.356 4.74414H283.204V9.43164H289.356C289.435 9.43164 289.474 9.4707 289.474 9.54883L289.503 12.9473C289.503 13.0254 289.464 13.0645 289.386 13.0645H283.204V18.3086H289.386C289.464 18.3086 289.503 18.3574 289.503 18.4551V21.8828C289.503 21.9609 289.464 22 289.386 22ZM295.685 22H292.286C292.208 22 292.169 21.9512 292.169 21.8535L292.228 1.24316C292.228 1.16504 292.267 1.12598 292.345 1.12598H296.007C296.085 1.12598 296.153 1.16504 296.212 1.24316L298.951 5.19824L301.676 1.24316C301.734 1.16504 301.808 1.12598 301.896 1.12598H305.572C305.66 1.12598 305.704 1.16504 305.704 1.24316L305.763 21.8535C305.763 21.9512 305.724 22 305.646 22H302.247C302.169 22 302.13 21.9512 302.13 21.8535L302.101 6.5459L298.951 11.1162L295.831 6.5459L295.802 21.8535C295.802 21.9512 295.763 22 295.685 22ZM313.834 22.293C312.77 22.293 311.788 22.0195 310.89 21.4727C310.001 20.9258 309.283 20.1982 308.736 19.29C308.199 18.3721 307.931 17.3662 307.931 16.2725L307.96 6.76562C307.96 5.65234 308.229 4.65137 308.766 3.7627C309.293 2.86426 310.006 2.14648 310.904 1.60938C311.803 1.0625 312.779 0.789062 313.834 0.789062C314.928 0.789062 315.909 1.05762 316.778 1.59473C317.657 2.13184 318.36 2.85449 318.888 3.7627C319.425 4.66113 319.693 5.66211 319.693 6.76562L319.723 16.2725C319.723 17.3662 319.459 18.3672 318.932 19.2754C318.395 20.1934 317.682 20.9258 316.793 21.4727C315.904 22.0195 314.918 22.293 313.834 22.293ZM313.834 18.6748C314.439 18.6748 314.967 18.4307 315.416 17.9424C315.865 17.4443 316.09 16.8877 316.09 16.2725L316.061 6.76562C316.061 6.10156 315.851 5.54004 315.431 5.08105C315.011 4.62207 314.479 4.39258 313.834 4.39258C313.219 4.39258 312.691 4.61719 312.252 5.06641C311.812 5.51562 311.593 6.08203 311.593 6.76562V16.2725C311.593 16.9268 311.812 17.4932 312.252 17.9717C312.691 18.4404 313.219 18.6748 313.834 18.6748ZM325.538 22H322.14C322.042 22 321.993 21.9512 321.993 21.8535L322.022 1.24316C322.022 1.16504 322.062 1.12598 322.14 1.12598H325.509C325.587 1.12598 325.626 1.16504 325.626 1.24316L325.655 21.8535C325.655 21.9512 325.616 22 325.538 22ZM331.808 22H328.409C328.331 22 328.292 21.9512 328.292 21.8535L328.351 1.24316C328.351 1.16504 328.39 1.12598 328.468 1.12598H334.532C335.616 1.12598 336.612 1.38965 337.521 1.91699C338.429 2.44434 339.151 3.15234 339.688 4.04102C340.235 4.92969 340.509 5.93555 340.509 7.05859C340.509 7.79102 340.396 8.45508 340.172 9.05078C339.947 9.64648 339.684 10.1494 339.381 10.5596C339.088 10.9697 338.819 11.2725 338.575 11.4678C339.659 12.6689 340.201 14.0801 340.201 15.7012L340.23 21.8535C340.23 21.9512 340.182 22 340.084 22H336.686C336.607 22 336.568 21.9707 336.568 21.9121V15.7012C336.568 14.9785 336.314 14.3535 335.807 13.8262C335.299 13.2988 334.674 13.0352 333.932 13.0352H331.954L331.925 21.8535C331.925 21.9512 331.886 22 331.808 22ZM334.532 4.71484H331.954V9.43164H334.532C335.147 9.43164 335.694 9.20215 336.173 8.74316C336.661 8.28418 336.905 7.72266 336.905 7.05859C336.905 6.42383 336.671 5.87695 336.202 5.41797C335.733 4.94922 335.177 4.71484 334.532 4.71484ZM353.971 22H350.675C350.597 22 350.558 21.9609 350.558 21.8828V1.24316C350.558 1.16504 350.597 1.12598 350.675 1.12598H353.912C354 1.12598 354.044 1.16504 354.044 1.24316V21.8828C354.044 21.9609 354.02 22 353.971 22ZM367.813 22H364.444C364.347 22 364.298 21.9512 364.298 21.8535L364.356 1.24316C364.356 1.16504 364.396 1.12598 364.474 1.12598H370.245C372.081 1.12598 373.531 1.6875 374.596 2.81055C375.67 3.92383 376.207 5.44238 376.207 7.36621C376.207 8.77246 375.929 9.99805 375.372 11.043C374.806 12.0781 374.073 12.8789 373.175 13.4453C372.276 14.0117 371.3 14.2949 370.245 14.2949H367.96V21.8535C367.96 21.9512 367.911 22 367.813 22ZM370.245 4.68555L367.96 4.71484V10.6621H370.245C370.88 10.6621 371.432 10.3594 371.9 9.75391C372.369 9.13867 372.604 8.34277 372.604 7.36621C372.604 6.58496 372.394 5.94531 371.974 5.44727C371.554 4.93945 370.978 4.68555 370.245 4.68555ZM387.823 22H378.126C378.048 22 378.009 21.9512 378.009 21.8535L378.038 1.24316C378.038 1.16504 378.077 1.12598 378.155 1.12598H387.794C387.872 1.12598 387.911 1.1748 387.911 1.27246V4.62695C387.911 4.70508 387.872 4.74414 387.794 4.74414H381.642V9.43164H387.794C387.872 9.43164 387.911 9.4707 387.911 9.54883L387.94 12.9473C387.94 13.0254 387.901 13.0645 387.823 13.0645H381.642V18.3086H387.823C387.901 18.3086 387.94 18.3574 387.94 18.4551V21.8828C387.94 21.9609 387.901 22 387.823 22ZM394.122 22H390.724C390.646 22 390.606 21.9512 390.606 21.8535L390.665 1.24316C390.665 1.16504 390.704 1.12598 390.782 1.12598H396.847C397.931 1.12598 398.927 1.38965 399.835 1.91699C400.743 2.44434 401.466 3.15234 402.003 4.04102C402.55 4.92969 402.823 5.93555 402.823 7.05859C402.823 7.79102 402.711 8.45508 402.486 9.05078C402.262 9.64648 401.998 10.1494 401.695 10.5596C401.402 10.9697 401.134 11.2725 400.89 11.4678C401.974 12.6689 402.516 14.0801 402.516 15.7012L402.545 21.8535C402.545 21.9512 402.496 22 402.398 22H399C398.922 22 398.883 21.9707 398.883 21.9121V15.7012C398.883 14.9785 398.629 14.3535 398.121 13.8262C397.613 13.2988 396.988 13.0352 396.246 13.0352H394.269L394.239 21.8535C394.239 21.9512 394.2 22 394.122 22ZM396.847 4.71484H394.269V9.43164H396.847C397.462 9.43164 398.009 9.20215 398.487 8.74316C398.976 8.28418 399.22 7.72266 399.22 7.05859C399.22 6.42383 398.985 5.87695 398.517 5.41797C398.048 4.94922 397.491 4.71484 396.847 4.71484ZM408.595 22H405.226C405.128 22 405.079 21.9512 405.079 21.8535L405.138 1.24316C405.138 1.16504 405.177 1.12598 405.255 1.12598H414.864C414.962 1.12598 415.011 1.16504 415.011 1.24316V4.62695C415.011 4.70508 414.972 4.74414 414.894 4.74414H408.741V9.40234H414.894C414.972 9.40234 415.011 9.45117 415.011 9.54883L415.04 12.9473C415.04 13.0254 414.991 13.0645 414.894 13.0645H408.741V21.8535C408.741 21.9512 408.692 22 408.595 22ZM423.258 22.293C422.193 22.293 421.212 22.0195 420.313 21.4727C419.425 20.9258 418.707 20.1982 418.16 19.29C417.623 18.3721 417.354 17.3662 417.354 16.2725L417.384 6.76562C417.384 5.65234 417.652 4.65137 418.189 3.7627C418.717 2.86426 419.43 2.14648 420.328 1.60938C421.227 1.0625 422.203 0.789062 423.258 0.789062C424.352 0.789062 425.333 1.05762 426.202 1.59473C427.081 2.13184 427.784 2.85449 428.312 3.7627C428.849 4.66113 429.117 5.66211 429.117 6.76562L429.146 16.2725C429.146 17.3662 428.883 18.3672 428.355 19.2754C427.818 20.1934 427.105 20.9258 426.217 21.4727C425.328 22.0195 424.342 22.293 423.258 22.293ZM423.258 18.6748C423.863 18.6748 424.391 18.4307 424.84 17.9424C425.289 17.4443 425.514 16.8877 425.514 16.2725L425.484 6.76562C425.484 6.10156 425.274 5.54004 424.854 5.08105C424.435 4.62207 423.902 4.39258 423.258 4.39258C422.643 4.39258 422.115 4.61719 421.676 5.06641C421.236 5.51562 421.017 6.08203 421.017 6.76562V16.2725C421.017 16.9268 421.236 17.4932 421.676 17.9717C422.115 18.4404 422.643 18.6748 423.258 18.6748ZM434.933 22H431.534C431.456 22 431.417 21.9512 431.417 21.8535L431.476 1.24316C431.476 1.16504 431.515 1.12598 431.593 1.12598H437.657C438.741 1.12598 439.737 1.38965 440.646 1.91699C441.554 2.44434 442.276 3.15234 442.813 4.04102C443.36 4.92969 443.634 5.93555 443.634 7.05859C443.634 7.79102 443.521 8.45508 443.297 9.05078C443.072 9.64648 442.809 10.1494 442.506 10.5596C442.213 10.9697 441.944 11.2725 441.7 11.4678C442.784 12.6689 443.326 14.0801 443.326 15.7012L443.355 21.8535C443.355 21.9512 443.307 22 443.209 22H439.811C439.732 22 439.693 21.9707 439.693 21.9121V15.7012C439.693 14.9785 439.439 14.3535 438.932 13.8262C438.424 13.2988 437.799 13.0352 437.057 13.0352H435.079L435.05 21.8535C435.05 21.9512 435.011 22 434.933 22ZM437.657 4.71484H435.079V9.43164H437.657C438.272 9.43164 438.819 9.20215 439.298 8.74316C439.786 8.28418 440.03 7.72266 440.03 7.05859C440.03 6.42383 439.796 5.87695 439.327 5.41797C438.858 4.94922 438.302 4.71484 437.657 4.71484ZM449.405 22H446.007C445.929 22 445.89 21.9512 445.89 21.8535L445.948 1.24316C445.948 1.16504 445.987 1.12598 446.065 1.12598H449.728C449.806 1.12598 449.874 1.16504 449.933 1.24316L452.672 5.19824L455.396 1.24316C455.455 1.16504 455.528 1.12598 455.616 1.12598H459.293C459.381 1.12598 459.425 1.16504 459.425 1.24316L459.483 21.8535C459.483 21.9512 459.444 22 459.366 22H455.968C455.89 22 455.851 21.9512 455.851 21.8535L455.821 6.5459L452.672 11.1162L449.552 6.5459L449.522 21.8535C449.522 21.9512 449.483 22 449.405 22ZM465.548 22H462.149C462.052 22 462.003 21.9512 462.003 21.8535L462.032 1.24316C462.032 1.16504 462.071 1.12598 462.149 1.12598H465.519C465.597 1.12598 465.636 1.16504 465.636 1.24316L465.665 21.8535C465.665 21.9512 465.626 22 465.548 22ZM471.568 22H468.565C468.409 22 468.331 21.9316 468.331 21.7949L468.302 1.36035C468.302 1.2041 468.38 1.12598 468.536 1.12598H471.246L476.314 12.9473L476.168 1.36035C476.168 1.2041 476.256 1.12598 476.432 1.12598H479.405C479.522 1.12598 479.581 1.2041 479.581 1.36035L479.61 21.8242C479.61 21.9414 479.562 22 479.464 22H476.827L471.627 10.9551L471.847 21.7656C471.847 21.9219 471.754 22 471.568 22ZM487.711 22.293C486.627 22.293 485.65 22.0244 484.781 21.4873C483.902 20.9502 483.194 20.2275 482.657 19.3193C482.13 18.4111 481.866 17.3955 481.866 16.2725V6.76562C481.866 5.67188 482.135 4.67578 482.672 3.77734C483.199 2.86914 483.907 2.14648 484.796 1.60938C485.685 1.0625 486.656 0.789062 487.711 0.789062C488.814 0.789062 489.811 1.05273 490.699 1.58008C491.588 2.11719 492.291 2.83496 492.809 3.7334C493.336 4.63184 493.6 5.64258 493.6 6.76562V8.14258C493.6 8.2207 493.551 8.25977 493.453 8.25977H490.084C490.006 8.25977 489.967 8.2207 489.967 8.14258V7C489.967 6.23828 489.752 5.6084 489.322 5.11035C488.893 4.6123 488.355 4.36328 487.711 4.36328C487.135 4.36328 486.622 4.60254 486.173 5.08105C485.724 5.55957 485.499 6.12109 485.499 6.76562V16.2725C485.499 16.9268 485.719 17.4932 486.158 17.9717C486.598 18.4404 487.115 18.6748 487.711 18.6748C488.355 18.6748 488.893 18.4453 489.322 17.9863C489.752 17.5176 489.967 16.9463 489.967 16.2725V14.793H487.872C487.765 14.793 487.711 14.7441 487.711 14.6465V11.292C487.711 11.1943 487.765 11.1455 487.872 11.1455H493.482C493.561 11.1455 493.6 11.1943 493.6 11.292V16.2725C493.6 17.3955 493.336 18.4111 492.809 19.3193C492.271 20.2275 491.563 20.9502 490.685 21.4873C489.806 22.0244 488.814 22.293 487.711 22.293ZM502.506 21.8535L506.227 1.24316C506.246 1.16504 506.295 1.12598 506.373 1.12598H510.724C510.802 1.12598 510.851 1.16504 510.87 1.24316L514.444 21.8535C514.454 21.9512 514.415 22 514.327 22H511.002C510.904 22 510.851 21.9512 510.841 21.8535L510.519 19.6562H506.432L506.109 21.8535C506.1 21.9512 506.051 22 505.963 22H502.623C502.545 22 502.506 21.9512 502.506 21.8535ZM508.38 8.02539L507.032 16.4482H509.918L508.688 8.02539L508.512 6.91211L508.38 8.02539ZM519.835 22H516.437C516.358 22 516.319 21.9512 516.319 21.8535L516.378 1.24316C516.378 1.16504 516.417 1.12598 516.495 1.12598H522.56C523.644 1.12598 524.64 1.38965 525.548 1.91699C526.456 2.44434 527.179 3.15234 527.716 4.04102C528.263 4.92969 528.536 5.93555 528.536 7.05859C528.536 7.79102 528.424 8.45508 528.199 9.05078C527.975 9.64648 527.711 10.1494 527.408 10.5596C527.115 10.9697 526.847 11.2725 526.603 11.4678C527.687 12.6689 528.229 14.0801 528.229 15.7012L528.258 21.8535C528.258 21.9512 528.209 22 528.111 22H524.713C524.635 22 524.596 21.9707 524.596 21.9121V15.7012C524.596 14.9785 524.342 14.3535 523.834 13.8262C523.326 13.2988 522.701 13.0352 521.959 13.0352H519.981L519.952 21.8535C519.952 21.9512 519.913 22 519.835 22ZM522.56 4.71484H519.981V9.43164H522.56C523.175 9.43164 523.722 9.20215 524.2 8.74316C524.688 8.28418 524.933 7.72266 524.933 7.05859C524.933 6.42383 524.698 5.87695 524.229 5.41797C523.761 4.94922 523.204 4.71484 522.56 4.71484ZM537.193 22H533.81C533.722 22 533.678 21.9512 533.678 21.8535V4.74414H529.781C529.684 4.74414 529.635 4.69531 529.635 4.59766L529.664 1.24316C529.664 1.16504 529.703 1.12598 529.781 1.12598H541.178C541.285 1.12598 541.339 1.16504 541.339 1.24316V4.59766C541.339 4.69531 541.3 4.74414 541.222 4.74414H537.281L537.311 21.8535C537.311 21.9512 537.271 22 537.193 22ZM547.901 22.293C546.837 22.293 545.855 22.0195 544.957 21.4727C544.068 20.9258 543.355 20.1982 542.818 19.29C542.291 18.3721 542.027 17.3662 542.027 16.2725V14.8955C542.027 14.7881 542.076 14.7344 542.174 14.7344H545.543C545.621 14.7344 545.66 14.7881 545.66 14.8955V16.2725C545.66 16.9268 545.88 17.4932 546.319 17.9717C546.759 18.4404 547.286 18.6748 547.901 18.6748C548.526 18.6748 549.059 18.4355 549.498 17.957C549.938 17.4688 550.157 16.9072 550.157 16.2725C550.157 15.54 549.679 14.9004 548.722 14.3535C548.565 14.2559 548.36 14.1387 548.106 14.002C547.862 13.8555 547.569 13.6895 547.228 13.5039C546.886 13.3184 546.554 13.1377 546.231 12.9619C545.909 12.7764 545.597 12.6006 545.294 12.4346C544.2 11.79 543.385 10.9844 542.848 10.0176C542.32 9.04102 542.057 7.94727 542.057 6.73633C542.057 5.62305 542.33 4.61719 542.877 3.71875C543.424 2.83008 544.137 2.12695 545.016 1.60938C545.904 1.08203 546.866 0.818359 547.901 0.818359C548.966 0.818359 549.942 1.08203 550.831 1.60938C551.72 2.14648 552.428 2.85938 552.955 3.74805C553.492 4.63672 553.761 5.63281 553.761 6.73633V9.19727C553.761 9.27539 553.722 9.31445 553.644 9.31445H550.274C550.196 9.31445 550.157 9.27539 550.157 9.19727L550.128 6.73633C550.128 6.0332 549.908 5.46191 549.469 5.02246C549.029 4.58301 548.507 4.36328 547.901 4.36328C547.286 4.36328 546.759 4.59766 546.319 5.06641C545.88 5.53516 545.66 6.0918 545.66 6.73633C545.66 7.39062 545.797 7.9375 546.07 8.37695C546.354 8.81641 546.866 9.23633 547.608 9.63672C547.687 9.67578 547.867 9.77344 548.15 9.92969C548.434 10.0859 548.746 10.2617 549.088 10.457C549.439 10.6426 549.757 10.8135 550.04 10.9697C550.323 11.1162 550.494 11.2041 550.553 11.2334C551.549 11.79 552.335 12.4736 552.911 13.2842C553.497 14.0947 553.79 15.0908 553.79 16.2725C553.79 17.415 553.526 18.4404 552.999 19.3486C552.462 20.2568 551.749 20.9746 550.86 21.502C549.972 22.0293 548.985 22.293 547.901 22.293ZM567.076 22H563.78C563.702 22 563.663 21.9609 563.663 21.8828V1.24316C563.663 1.16504 563.702 1.12598 563.78 1.12598H567.018C567.105 1.12598 567.149 1.16504 567.149 1.24316V21.8828C567.149 21.9609 567.125 22 567.076 22ZM580.919 22H577.521C577.442 22 577.403 21.9512 577.403 21.8535L577.433 1.24316C577.433 1.16504 577.481 1.12598 577.579 1.12598H580.919C581.017 1.12598 581.065 1.16504 581.065 1.24316L581.036 9.40234H585.533V1.24316C585.533 1.16504 585.572 1.12598 585.65 1.12598H588.99C589.088 1.12598 589.137 1.16504 589.137 1.24316L589.195 21.8535C589.195 21.9512 589.146 22 589.049 22H585.68C585.582 22 585.533 21.9512 585.533 21.8535V13.0352H581.036V21.8535C581.036 21.9512 580.997 22 580.919 22ZM597.164 22.293C596.109 22.293 595.133 22.0195 594.234 21.4727C593.336 20.9258 592.618 20.1934 592.081 19.2754C591.554 18.3477 591.29 17.3369 591.29 16.2432L591.349 1.24316C591.349 1.16504 591.388 1.12598 591.466 1.12598H594.835C594.913 1.12598 594.952 1.16504 594.952 1.24316V16.2432C594.952 16.917 595.167 17.4932 595.597 17.9717C596.026 18.4404 596.549 18.6748 597.164 18.6748C597.809 18.6748 598.346 18.4404 598.775 17.9717C599.205 17.4932 599.42 16.917 599.42 16.2432V1.24316C599.42 1.16504 599.459 1.12598 599.537 1.12598H602.906C602.984 1.12598 603.023 1.16504 603.023 1.24316L603.082 16.2432C603.082 17.3467 602.818 18.3623 602.291 19.29C601.754 20.208 601.041 20.9404 600.152 21.4873C599.264 22.0244 598.268 22.293 597.164 22.293ZM608.956 22H605.558C605.479 22 605.44 21.9512 605.44 21.8535L605.499 1.24316C605.499 1.16504 605.538 1.12598 605.616 1.12598H609.278C609.356 1.12598 609.425 1.16504 609.483 1.24316L612.223 5.19824L614.947 1.24316C615.006 1.16504 615.079 1.12598 615.167 1.12598H618.844C618.932 1.12598 618.976 1.16504 618.976 1.24316L619.034 21.8535C619.034 21.9512 618.995 22 618.917 22H615.519C615.44 22 615.401 21.9512 615.401 21.8535L615.372 6.5459L612.223 11.1162L609.103 6.5459L609.073 21.8535C609.073 21.9512 609.034 22 608.956 22ZM627.105 22.293C626.041 22.293 625.06 22.0195 624.161 21.4727C623.272 20.9258 622.555 20.1982 622.008 19.29C621.471 18.3721 621.202 17.3662 621.202 16.2725L621.231 6.76562C621.231 5.65234 621.5 4.65137 622.037 3.7627C622.564 2.86426 623.277 2.14648 624.176 1.60938C625.074 1.0625 626.051 0.789062 627.105 0.789062C628.199 0.789062 629.181 1.05762 630.05 1.59473C630.929 2.13184 631.632 2.85449 632.159 3.7627C632.696 4.66113 632.965 5.66211 632.965 6.76562L632.994 16.2725C632.994 17.3662 632.73 18.3672 632.203 19.2754C631.666 20.1934 630.953 20.9258 630.064 21.4727C629.176 22.0195 628.189 22.293 627.105 22.293ZM627.105 18.6748C627.711 18.6748 628.238 18.4307 628.688 17.9424C629.137 17.4443 629.361 16.8877 629.361 16.2725L629.332 6.76562C629.332 6.10156 629.122 5.54004 628.702 5.08105C628.282 4.62207 627.75 4.39258 627.105 4.39258C626.49 4.39258 625.963 4.61719 625.523 5.06641C625.084 5.51562 624.864 6.08203 624.864 6.76562V16.2725C624.864 16.9268 625.084 17.4932 625.523 17.9717C625.963 18.4404 626.49 18.6748 627.105 18.6748ZM638.78 22H635.382C635.304 22 635.265 21.9512 635.265 21.8535L635.323 1.24316C635.323 1.16504 635.362 1.12598 635.44 1.12598H641.505C642.589 1.12598 643.585 1.38965 644.493 1.91699C645.401 2.44434 646.124 3.15234 646.661 4.04102C647.208 4.92969 647.481 5.93555 647.481 7.05859C647.481 7.79102 647.369 8.45508 647.145 9.05078C646.92 9.64648 646.656 10.1494 646.354 10.5596C646.061 10.9697 645.792 11.2725 645.548 11.4678C646.632 12.6689 647.174 14.0801 647.174 15.7012L647.203 21.8535C647.203 21.9512 647.154 22 647.057 22H643.658C643.58 22 643.541 21.9707 643.541 21.9121V15.7012C643.541 14.9785 643.287 14.3535 642.779 13.8262C642.271 13.2988 641.646 13.0352 640.904 13.0352H638.927L638.897 21.8535C638.897 21.9512 638.858 22 638.78 22ZM641.505 4.71484H638.927V9.43164H641.505C642.12 9.43164 642.667 9.20215 643.146 8.74316C643.634 8.28418 643.878 7.72266 643.878 7.05859C643.878 6.42383 643.644 5.87695 643.175 5.41797C642.706 4.94922 642.149 4.71484 641.505 4.71484Z" fill="black"/>
<line x1="115" y1="28.25" x2="344" y2="28.25" stroke="black" stroke-width="1.5"/>
<line x1="575" y1="28.25" x2="649" y2="28.25" stroke="black" stroke-width="1.5"/>
<line x1="365" y1="28.25" x2="559" y2="28.25" stroke="black" stroke-width="1.5"/>
</svg>
