<svg width="204" height="24" viewBox="0 0 204 24" fill="none" xmlns="http://www.w3.org/2000/svg">
<path d="M4.33984 7.175C5.55651 5.99167 6.85651 5.4 8.23984 5.4C9.63984 5.4 10.7982 5.90833 11.7148 6.925C12.6482 7.94167 13.1315 9.475 13.1648 11.525C13.2148 13.575 12.7148 15.2333 11.6648 16.5C10.6148 17.75 9.13984 18.375 7.23984 18.375C6.28984 18.375 5.32318 18.1583 4.33984 17.725L2.61484 17.075V2.225L1.31484 2.075C0.914844 2.04167 0.714844 1.68333 0.714844 1L4.33984 0.55V7.175ZM4.33984 15.8C5.23984 16.6167 6.32318 17.025 7.58984 17.025C8.87318 17.025 9.81484 16.5333 10.4148 15.55C11.0148 14.5667 11.3148 13.3417 11.3148 11.875C11.3148 10.4083 11.0148 9.20833 10.4148 8.275C9.83151 7.34167 8.92318 6.875 7.68984 6.875C7.07318 6.875 6.52318 7 6.03984 7.25C5.55651 7.5 4.98984 7.89167 4.33984 8.425V15.8ZM23.1338 5.775H26.4338C26.4171 5.825 26.4171 5.89167 26.4338 5.975C26.4505 6.04167 26.4421 6.125 26.4088 6.225C26.3921 6.30833 26.3671 6.39167 26.3338 6.475C26.2338 6.675 25.9171 6.8 25.3838 6.85L21.1088 17.375H21.1338C20.6838 18.575 20.2255 19.6083 19.7588 20.475C19.3088 21.3417 18.9505 21.9333 18.6838 22.25C18.0338 23.0667 17.3921 23.475 16.7588 23.475C16.1255 23.475 15.6588 23.3417 15.3588 23.075C15.0588 22.825 14.9088 22.5167 14.9088 22.15C14.9088 21.8 15.0005 21.5083 15.1838 21.275C15.3838 21.0583 15.6005 20.95 15.8338 20.95C16.0838 20.95 16.2505 20.9667 16.3338 21C16.1838 21.6667 16.3755 22 16.9088 22C17.3421 22 17.8338 21.5083 18.3838 20.525C18.9338 19.5417 19.4255 18.5 19.8588 17.4L15.5088 6.95H15.4838L14.2588 6.8C14.1921 6.11667 14.4255 5.775 14.9588 5.775H19.1588V5.95C19.1588 6.35 19.0421 6.6 18.8088 6.7C18.6755 6.76667 18.2171 6.83333 17.4338 6.9L20.6838 15.275L23.8838 6.95L22.4338 6.8C22.3671 6.11667 22.6005 5.775 23.1338 5.775ZM34.2262 18V17.7C34.2262 17.3333 34.2762 17.0917 34.3762 16.975C34.4762 16.8583 34.5595 16.7667 34.6262 16.7C34.7762 16.5833 34.9678 16.525 35.2012 16.525L36.0762 16.475V2.475L34.2512 2.325C34.2178 1.39167 34.5012 0.924999 35.1012 0.924999H40.7512C44.7012 0.924999 46.6762 2.375 46.6762 5.275C46.6762 6.55833 46.2845 7.625 45.5012 8.475C44.7178 9.325 43.6095 9.89167 42.1762 10.175C43.1762 12.1583 44.2178 13.7 45.3012 14.8C46.3845 15.9 47.4012 16.45 48.3512 16.45C48.3012 17.0167 48.0845 17.4833 47.7012 17.85C47.3345 18.2 46.8262 18.375 46.1762 18.375C45.5428 18.375 44.7928 17.9333 43.9262 17.05C42.3095 15.3833 41.0012 13.1583 40.0012 10.375C39.4345 10.375 39.0012 10.3667 38.7012 10.35V16.425L40.7262 16.575C40.8095 17.525 40.4928 18 39.7762 18H34.2262ZM38.7012 2.35V8.95C38.9178 8.96667 39.2178 8.975 39.6012 8.975C42.5012 8.975 43.9512 7.81667 43.9512 5.5C43.9512 3.25 42.7178 2.18333 40.2512 2.3L38.7512 2.35H38.7012ZM52.5605 17.875C52.2272 18.2083 51.8189 18.375 51.3355 18.375C50.8522 18.375 50.4439 18.2083 50.1105 17.875C49.7772 17.5417 49.6105 17.1333 49.6105 16.65C49.6105 16.1667 49.7772 15.7583 50.1105 15.425C50.4439 15.075 50.8522 14.9 51.3355 14.9C51.8189 14.9 52.2272 15.075 52.5605 15.425C52.8939 15.7583 53.0605 16.1667 53.0605 16.65C53.0605 17.1333 52.8939 17.5417 52.5605 17.875ZM61.9605 18V17.7C61.9605 17.3333 62.0105 17.0917 62.1105 16.975C62.2105 16.8583 62.2939 16.7667 62.3605 16.7C62.5105 16.5833 62.7022 16.525 62.9355 16.525L63.8105 16.475V2.525L62.0105 2.375C61.9105 1.425 62.2355 0.949999 62.9855 0.949999H73.7855V4.625C73.7855 5.30833 73.3105 5.6 72.3605 5.5L72.1355 2.575L66.4355 2.5V8.875L71.0355 8.425C71.2022 9.09167 71.2105 9.83333 71.0605 10.65L66.4355 10.375V16.425L72.5605 16.225L72.7855 13.325C73.7189 13.225 74.1855 13.5083 74.1855 14.175V18H61.9605ZM80.3213 7.275C80.7713 6.74167 81.363 6.25833 82.0963 5.825C82.8296 5.375 83.4546 5.15 83.9713 5.15C84.5046 5.15 84.938 5.3 85.2713 5.6C85.6213 5.9 85.7963 6.43333 85.7963 7.2C85.7963 7.95 85.5713 8.53333 85.1213 8.95C84.8546 9.15 84.4296 9.225 83.8463 9.175C83.8463 8.45833 83.7713 7.975 83.6213 7.725C83.4713 7.45833 83.2296 7.325 82.8963 7.325C82.0963 7.325 81.263 7.875 80.3963 8.975V16.45L82.4713 16.6C82.5713 17.5333 82.2463 18 81.4963 18H76.0213C76.0213 18 76.0213 17.9333 76.0213 17.8C76.0213 17.0333 76.3463 16.6167 76.9963 16.55L77.8463 16.5V7.225L76.6463 7.1C76.1963 7.05 75.9713 6.61667 75.9713 5.8L80.0463 5.275L80.2463 7.275H80.3213ZM92.0629 18H86.7879V17.8C86.7879 17.0333 87.1129 16.6167 87.7629 16.55L88.6379 16.5V7.125L87.5379 7C87.0046 6.95 86.7379 6.5 86.7379 5.65L91.1879 5.15V16.45L93.0129 16.6C93.1129 17.5333 92.7962 18 92.0629 18ZM91.3379 2.1C91.3379 2.56667 91.1796 2.95833 90.8629 3.275C90.5629 3.575 90.1796 3.725 89.7129 3.725C89.2629 3.725 88.8796 3.575 88.5629 3.275C88.2629 2.95833 88.1129 2.56667 88.1129 2.1C88.1129 1.63333 88.2629 1.25 88.5629 0.949999C88.8796 0.633332 89.2629 0.474999 89.7129 0.474999C90.1796 0.474999 90.5629 0.633332 90.8629 0.949999C91.1796 1.25 91.3379 1.63333 91.3379 2.1ZM100.528 5.15C101.678 5.15 102.603 5.39167 103.303 5.875C104.02 6.35833 104.378 6.95833 104.378 7.675C104.378 8.39167 104.187 8.88333 103.803 9.15C103.42 9.41667 102.987 9.525 102.503 9.475C102.487 8.80833 102.287 8.21667 101.903 7.7C101.52 7.18333 100.945 6.925 100.178 6.925C99.195 6.925 98.4367 7.35833 97.9033 8.225C97.37 9.075 97.1033 10.2167 97.1033 11.65C97.1033 14.8333 98.3367 16.425 100.803 16.425C101.92 16.425 103.02 15.9833 104.103 15.1C104.237 15.1833 104.345 15.325 104.428 15.525C104.512 15.7083 104.553 15.8667 104.553 16C104.553 16.5167 104.07 17.0417 103.103 17.575C102.137 18.1083 101.053 18.375 99.8533 18.375C98.1533 18.375 96.8283 17.8167 95.8783 16.7C94.9283 15.5667 94.445 14 94.4283 12C94.4283 9.98333 94.9783 8.34167 96.0783 7.075C97.1783 5.79167 98.6617 5.15 100.528 5.15ZM112.339 0.949999H126.914V4.275C126.914 4.74167 126.722 5.025 126.339 5.125C126.089 5.19167 125.814 5.225 125.514 5.225L125.289 2.6H120.939V16.425L122.939 16.575C123.039 17.525 122.722 18 121.989 18H116.289V17.8C116.289 17.0167 116.614 16.5917 117.264 16.525L118.339 16.475V2.6H113.964L113.764 5.225C113.081 5.225 112.656 5.1 112.489 4.85C112.389 4.7 112.339 4.50833 112.339 4.275V0.949999ZM141.865 18H136.64V17.8C136.64 17.0333 136.965 16.6167 137.615 16.55L138.465 16.5V10.3C138.465 9.23333 138.24 8.46667 137.79 8C137.357 7.53333 136.657 7.3 135.69 7.3C134.723 7.3 133.748 7.74167 132.765 8.625V16.45L134.59 16.6C134.69 17.5333 134.373 18 133.64 18H128.365V17.8C128.365 17.0333 128.69 16.6167 129.34 16.55L130.215 16.5V2.3L129.115 2.2C128.582 2.13333 128.315 1.675 128.315 0.824999L132.765 0.3V6.8C133.932 5.7 135.157 5.15 136.44 5.15C137.74 5.15 138.823 5.575 139.69 6.425C140.557 7.25833 140.99 8.55833 140.99 10.325L141.015 16.45L142.84 16.6C142.94 17.5333 142.615 18 141.865 18ZM149.982 6.85C149.016 6.85 148.266 7.30833 147.732 8.225C147.199 9.125 146.932 10.325 146.932 11.825C146.932 13.325 147.191 14.5167 147.707 15.4C148.224 16.2833 148.966 16.725 149.932 16.725C150.916 16.7083 151.674 16.275 152.207 15.425C152.741 14.5583 153.007 13.375 153.007 11.875C153.007 10.375 152.749 9.15833 152.232 8.225C151.716 7.29167 150.966 6.83333 149.982 6.85ZM144.257 12C144.257 9.91667 144.774 8.25833 145.807 7.025C146.857 5.775 148.257 5.15 150.007 5.15C151.757 5.15 153.132 5.7 154.132 6.8C155.149 7.88333 155.657 9.48333 155.657 11.6C155.674 13.7 155.157 15.3583 154.107 16.575C153.074 17.775 151.641 18.375 149.807 18.375C147.991 18.375 146.616 17.8333 145.682 16.75C144.749 15.6667 144.274 14.0833 144.257 12ZM178.865 18H173.64V17.8C173.64 17.0333 173.965 16.6167 174.615 16.55L175.44 16.5V10.3C175.44 9.25 175.215 8.49167 174.765 8.025C174.332 7.54167 173.64 7.3 172.69 7.3C171.757 7.3 170.79 7.75833 169.79 8.675C169.923 9.15833 169.99 9.70833 169.99 10.325V16.45L171.815 16.6C171.915 17.5333 171.59 18 170.84 18H165.59V17.8C165.59 17.0333 165.915 16.6167 166.565 16.55L167.44 16.5V10.3C167.44 8.3 166.582 7.3 164.865 7.3C163.915 7.3 162.94 7.73333 161.94 8.6V16.45L163.765 16.6C163.865 17.5333 163.548 18 162.815 18H157.54V17.8C157.54 17.0333 157.865 16.6167 158.515 16.55L159.39 16.5V7.2L158.365 7.125C157.782 7.075 157.49 6.61667 157.49 5.75L161.54 5.25L161.74 6.85H161.815C162.232 6.48333 162.565 6.2 162.815 6C163.082 5.8 163.473 5.60833 163.99 5.425C164.507 5.24167 165.082 5.15 165.715 5.15C166.365 5.15 167.015 5.325 167.665 5.675C168.332 6.00833 168.865 6.53333 169.265 7.25C170.632 5.85 172.048 5.15 173.515 5.15C174.748 5.15 175.798 5.575 176.665 6.425C177.548 7.25833 177.99 8.55833 177.99 10.325V16.45L179.815 16.6C179.915 17.5333 179.598 18 178.865 18ZM192.87 17C192.87 17.9167 192.261 18.375 191.045 18.375C189.845 18.375 189.103 17.9167 188.82 17C187.736 17.9167 186.553 18.375 185.27 18.375C183.986 18.375 182.995 18.075 182.295 17.475C181.595 16.8583 181.245 16.0167 181.245 14.95C181.245 13.8833 181.645 13 182.445 12.3C183.261 11.6 184.57 11.25 186.37 11.25C187.153 11.25 187.92 11.3167 188.67 11.45V10.05C188.67 7.93333 187.845 6.875 186.195 6.875C185.528 6.875 184.995 7.1 184.595 7.55C184.211 8 184.003 8.56667 183.97 9.25C183.403 9.3 182.928 9.2 182.545 8.95C182.178 8.7 181.995 8.31667 181.995 7.8C181.995 7.03333 182.386 6.4 183.17 5.9C183.97 5.4 185.045 5.15 186.395 5.15C187.761 5.15 188.903 5.51667 189.82 6.25C190.753 6.98333 191.22 8.2 191.22 9.9V16.8L192.87 17ZM188.67 13.2C188.003 12.9167 187.27 12.775 186.47 12.775C185.686 12.775 185.07 12.9417 184.62 13.275C184.17 13.6083 183.945 14.0833 183.945 14.7C183.945 15.3 184.12 15.7667 184.47 16.1C184.82 16.4333 185.386 16.6 186.17 16.6C186.97 16.6 187.803 16.2917 188.67 15.675V13.2ZM194.187 8.8C194.187 7.66667 194.653 6.775 195.587 6.125C196.52 5.475 197.537 5.15 198.637 5.15C199.753 5.15 200.662 5.33333 201.362 5.7C202.078 6.05 202.437 6.60833 202.437 7.375C202.437 7.90833 202.262 8.31667 201.912 8.6C201.562 8.86667 201.137 8.96667 200.637 8.9C200.653 8.3 200.437 7.8 199.987 7.4C199.537 7 198.987 6.8 198.337 6.8C197.703 6.78333 197.195 6.90833 196.812 7.175C196.445 7.44167 196.262 7.79167 196.262 8.225C196.262 8.65833 196.495 9.025 196.962 9.325C197.445 9.625 198.112 9.95 198.962 10.3C199.828 10.6333 200.437 10.8917 200.787 11.075C201.137 11.2583 201.512 11.5 201.912 11.8C202.678 12.3667 203.053 13.2083 203.037 14.325C203.037 15.4417 202.578 16.4 201.662 17.2C200.762 18 199.537 18.3917 197.987 18.375C196.87 18.3583 195.887 18.1417 195.037 17.725C194.203 17.2917 193.787 16.675 193.787 15.875C193.803 15.3583 193.987 14.9583 194.337 14.675C194.687 14.3917 195.103 14.25 195.587 14.25C195.703 15.0167 196.012 15.6167 196.512 16.05C197.012 16.4833 197.637 16.7083 198.387 16.725C199.153 16.725 199.762 16.5833 200.212 16.3C200.662 16.0167 200.887 15.6083 200.887 15.075C200.887 14.525 200.687 14.1083 200.287 13.825C199.887 13.5417 199.295 13.25 198.512 12.95C197.728 12.6333 197.137 12.3833 196.737 12.2C196.337 12 195.92 11.7417 195.487 11.425C194.62 10.7917 194.187 9.91667 194.187 8.8Z" fill="black"/>
<path d="M37 18H203" stroke="black" stroke-width="1.5"/>
</svg>
