<svg width="183" height="24" viewBox="0 0 183 24" fill="none" xmlns="http://www.w3.org/2000/svg">
<path d="M4.08154 7.175C5.29821 5.99167 6.59821 5.4 7.98154 5.4C9.38154 5.4 10.5399 5.90833 11.4565 6.925C12.3899 7.94167 12.8732 9.475 12.9065 11.525C12.9565 13.575 12.4565 15.2333 11.4065 16.5C10.3565 17.75 8.88154 18.375 6.98154 18.375C6.03154 18.375 5.06488 18.1583 4.08154 17.725L2.35654 17.075V2.225L1.05654 2.075C0.656543 2.04167 0.456543 1.68333 0.456543 1L4.08154 0.55V7.175ZM4.08154 15.8C4.98154 16.6167 6.06488 17.025 7.33154 17.025C8.61488 17.025 9.55654 16.5333 10.1565 15.55C10.7565 14.5667 11.0565 13.3417 11.0565 11.875C11.0565 10.4083 10.7565 9.20833 10.1565 8.275C9.57321 7.34167 8.66488 6.875 7.43154 6.875C6.81488 6.875 6.26488 7 5.78154 7.25C5.29821 7.5 4.73154 7.89167 4.08154 8.425V15.8ZM22.8755 5.775H26.1755C26.1588 5.825 26.1588 5.89167 26.1755 5.975C26.1922 6.04167 26.1838 6.125 26.1505 6.225C26.1338 6.30833 26.1088 6.39167 26.0755 6.475C25.9755 6.675 25.6588 6.8 25.1255 6.85L20.8505 17.375H20.8755C20.4255 18.575 19.9672 19.6083 19.5005 20.475C19.0505 21.3417 18.6922 21.9333 18.4255 22.25C17.7755 23.0667 17.1338 23.475 16.5005 23.475C15.8672 23.475 15.4005 23.3417 15.1005 23.075C14.8005 22.825 14.6505 22.5167 14.6505 22.15C14.6505 21.8 14.7422 21.5083 14.9255 21.275C15.1255 21.0583 15.3422 20.95 15.5755 20.95C15.8255 20.95 15.9922 20.9667 16.0755 21C15.9255 21.6667 16.1172 22 16.6505 22C17.0838 22 17.5755 21.5083 18.1255 20.525C18.6755 19.5417 19.1672 18.5 19.6005 17.4L15.2505 6.95H15.2255L14.0005 6.8C13.9338 6.11667 14.1672 5.775 14.7005 5.775H18.9005V5.95C18.9005 6.35 18.7838 6.6 18.5505 6.7C18.4172 6.76667 17.9588 6.83333 17.1755 6.9L20.4255 15.275L23.6255 6.95L22.1755 6.8C22.1088 6.11667 22.3422 5.775 22.8755 5.775ZM39.2929 18H33.9679V17.8C33.9679 17.0167 34.2929 16.5917 34.9429 16.525L35.8179 16.475V2.525L34.0179 2.375C33.9179 1.425 34.2345 0.949999 34.9679 0.949999H40.3179V1.15C40.3179 1.93333 39.9929 2.35833 39.3429 2.425L38.4429 2.475V16.425H38.4679L40.2679 16.575C40.3679 17.525 40.0429 18 39.2929 18ZM63.5919 18H58.3669V17.8C58.3669 17.0333 58.6919 16.6167 59.3419 16.55L60.1669 16.5V10.3C60.1669 9.25 59.9419 8.49167 59.4919 8.025C59.0586 7.54167 58.3669 7.3 57.4169 7.3C56.4836 7.3 55.5169 7.75833 54.5169 8.675C54.6502 9.15833 54.7169 9.70833 54.7169 10.325V16.45L56.5419 16.6C56.6419 17.5333 56.3169 18 55.5669 18H50.3169V17.8C50.3169 17.0333 50.6419 16.6167 51.2919 16.55L52.1669 16.5V10.3C52.1669 8.3 51.3086 7.3 49.5919 7.3C48.6419 7.3 47.6669 7.73333 46.6669 8.6V16.45L48.4919 16.6C48.5919 17.5333 48.2752 18 47.5419 18H42.2669V17.8C42.2669 17.0333 42.5919 16.6167 43.2419 16.55L44.1169 16.5V7.2L43.0919 7.125C42.5086 7.075 42.2169 6.61667 42.2169 5.75L46.2669 5.25L46.4669 6.85H46.5419C46.9586 6.48333 47.2919 6.2 47.5419 6C47.8086 5.8 48.2002 5.60833 48.7169 5.425C49.2336 5.24167 49.8086 5.15 50.4419 5.15C51.0919 5.15 51.7419 5.325 52.3919 5.675C53.0586 6.00833 53.5919 6.53333 53.9919 7.25C55.3586 5.85 56.7752 5.15 58.2419 5.15C59.4752 5.15 60.5252 5.575 61.3919 6.425C62.2752 7.25833 62.7169 8.55833 62.7169 10.325V16.45L64.5419 16.6C64.6419 17.5333 64.3252 18 63.5919 18ZM69.8218 6.625C70.9218 5.64167 72.1551 5.15 73.5218 5.15C74.8884 5.15 76.0468 5.65 76.9968 6.65C77.9634 7.63333 78.4634 9.175 78.4968 11.275C78.5301 13.375 78.0218 15.0833 76.9718 16.4C75.9218 17.7167 74.3968 18.375 72.3968 18.375C71.4634 18.375 70.6051 18.2 69.8218 17.85L67.2968 17.025V2.275L66.1718 2.175C65.5884 2.10833 65.3301 1.65 65.3968 0.799999L69.8218 0.274999V6.625ZM72.6718 16.6C74.7718 16.6 75.8218 14.9833 75.8218 11.75C75.8218 10.3 75.5551 9.15833 75.0218 8.325C74.5051 7.475 73.7551 7.05 72.7718 7.05C71.7884 7.05 70.8051 7.49167 69.8218 8.375V15.5C70.6718 16.2333 71.6218 16.6 72.6718 16.6ZM86.0522 6.85C85.0856 6.85 84.3356 7.30833 83.8022 8.225C83.2689 9.125 83.0022 10.325 83.0022 11.825C83.0022 13.325 83.2606 14.5167 83.7772 15.4C84.2939 16.2833 85.0356 16.725 86.0022 16.725C86.9856 16.7083 87.7439 16.275 88.2772 15.425C88.8106 14.5583 89.0772 13.375 89.0772 11.875C89.0772 10.375 88.8189 9.15833 88.3022 8.225C87.7856 7.29167 87.0356 6.83333 86.0522 6.85ZM80.3272 12C80.3272 9.91667 80.8439 8.25833 81.8772 7.025C82.9272 5.775 84.3272 5.15 86.0772 5.15C87.8272 5.15 89.2022 5.7 90.2022 6.8C91.2189 7.88333 91.7272 9.48333 91.7272 11.6C91.7439 13.7 91.2272 15.3583 90.1772 16.575C89.1439 17.775 87.7106 18.375 85.8772 18.375C84.0606 18.375 82.6856 17.8333 81.7522 16.75C80.8189 15.6667 80.3439 14.0833 80.3272 12ZM98.8347 18H93.5847V17.8C93.5847 17.4 93.643 17.1333 93.7597 17C93.9763 16.7333 94.2513 16.5833 94.5847 16.55L95.4597 16.5V2.275L94.3597 2.175C93.8263 2.10833 93.5597 1.65 93.5597 0.799999L98.0097 0.3V16.45L99.7847 16.6C99.8847 17.5333 99.568 18 98.8347 18ZM106.926 6.85C105.96 6.85 105.21 7.30833 104.676 8.225C104.143 9.125 103.876 10.325 103.876 11.825C103.876 13.325 104.135 14.5167 104.651 15.4C105.168 16.2833 105.91 16.725 106.876 16.725C107.86 16.7083 108.618 16.275 109.151 15.425C109.685 14.5583 109.951 13.375 109.951 11.875C109.951 10.375 109.693 9.15833 109.176 8.225C108.66 7.29167 107.91 6.83333 106.926 6.85ZM101.201 12C101.201 9.91667 101.718 8.25833 102.751 7.025C103.801 5.775 105.201 5.15 106.951 5.15C108.701 5.15 110.076 5.7 111.076 6.8C112.093 7.88333 112.601 9.48333 112.601 11.6C112.618 13.7 112.101 15.3583 111.051 16.575C110.018 17.775 108.585 18.375 106.751 18.375C104.935 18.375 103.56 17.8333 102.626 16.75C101.693 15.6667 101.218 14.0833 101.201 12ZM140.423 18H135.148V17.8C135.148 17.0167 135.473 16.5917 136.123 16.525L136.948 16.475L136.048 3.975L131.473 15.15C130.94 15.3167 130.473 15.35 130.073 15.25L125.223 4.45L124.398 16.425L126.348 16.575C126.448 17.525 126.131 18 125.398 18H120.523V17.8C120.523 17.0167 120.848 16.5917 121.498 16.525L122.548 16.475L123.523 2.525L121.798 2.375C121.698 1.40833 122.015 0.924999 122.748 0.924999H126.523L131.198 11.425L135.323 0.924999H139.348C140.098 0.924999 140.423 1.40833 140.323 2.375L138.573 2.525L139.623 16.4L141.373 16.575C141.473 17.525 141.156 18 140.423 18ZM146.458 6.625C147.558 5.64167 148.791 5.15 150.158 5.15C151.524 5.15 152.683 5.65 153.633 6.65C154.599 7.63333 155.099 9.175 155.133 11.275C155.166 13.375 154.658 15.0833 153.608 16.4C152.558 17.7167 151.033 18.375 149.033 18.375C148.099 18.375 147.241 18.2 146.458 17.85L143.933 17.025V2.275L142.808 2.175C142.224 2.10833 141.966 1.65 142.033 0.799999L146.458 0.274999V6.625ZM149.308 16.6C151.408 16.6 152.458 14.9833 152.458 11.75C152.458 10.3 152.191 9.15833 151.658 8.325C151.141 7.475 150.391 7.05 149.408 7.05C148.424 7.05 147.441 7.49167 146.458 8.375V15.5C147.308 16.2333 148.258 16.6 149.308 16.6ZM164.188 7.025V6.725C164.188 6.325 164.238 6.06667 164.338 5.95C164.438 5.83333 164.513 5.75 164.563 5.7C164.68 5.58333 164.863 5.525 165.113 5.525H168.663V16.425L169.463 16.475C169.963 16.4917 170.213 16.95 170.213 17.85L166.863 18.175L166.413 16.8C165.23 17.85 164.005 18.375 162.738 18.375C161.488 18.375 160.421 17.9583 159.538 17.125C158.655 16.275 158.213 14.9667 158.213 13.2V7.075L156.363 7.025V6.8C156.363 5.95 156.68 5.525 157.313 5.525H160.763V13.2C160.763 15.3333 161.638 16.4 163.388 16.4C164.338 16.4 165.246 16.05 166.113 15.35V7.075L164.188 7.025ZM174.409 11.7V12.175C174.409 13.5583 174.676 14.6167 175.209 15.35C175.742 16.0833 176.626 16.45 177.859 16.45C179.109 16.45 180.301 16 181.434 15.1C181.717 15.3 181.859 15.6 181.859 16C181.859 16.5333 181.401 17.0667 180.484 17.6C179.567 18.1167 178.467 18.375 177.184 18.375C175.467 18.375 174.126 17.8583 173.159 16.825C172.209 15.775 171.734 14.1833 171.734 12.05C171.734 9.91667 172.276 8.23333 173.359 7C174.442 5.76667 175.801 5.15 177.434 5.15C179.084 5.15 180.284 5.64167 181.034 6.625C181.784 7.60833 182.151 8.85 182.134 10.35V11.7H174.409ZM177.359 6.875C175.842 6.875 174.909 7.98333 174.559 10.2H179.609C179.559 7.98333 178.809 6.875 177.359 6.875Z" fill="black"/>
<path d="M40 18H180" stroke="black" stroke-width="1.5"/>
</svg>
