<svg width="201" height="24" viewBox="0 0 201 24" fill="none" xmlns="http://www.w3.org/2000/svg">
<path d="M4.3291 7.175C5.54577 5.99167 6.84577 5.4 8.2291 5.4C9.6291 5.4 10.7874 5.90833 11.7041 6.925C12.6374 7.94167 13.1208 9.475 13.1541 11.525C13.2041 13.575 12.7041 15.2333 11.6541 16.5C10.6041 17.75 9.1291 18.375 7.2291 18.375C6.2791 18.375 5.31244 18.1583 4.3291 17.725L2.6041 17.075V2.225L1.3041 2.075C0.904102 2.04167 0.704102 1.68333 0.704102 1L4.3291 0.55V7.175ZM4.3291 15.8C5.2291 16.6167 6.31244 17.025 7.5791 17.025C8.86244 17.025 9.8041 16.5333 10.4041 15.55C11.0041 14.5667 11.3041 13.3417 11.3041 11.875C11.3041 10.4083 11.0041 9.20833 10.4041 8.275C9.82077 7.34167 8.91244 6.875 7.6791 6.875C7.06243 6.875 6.51244 7 6.0291 7.25C5.54577 7.5 4.9791 7.89167 4.3291 8.425V15.8ZM23.123 5.775H26.423C26.4064 5.825 26.4064 5.89167 26.423 5.975C26.4397 6.04167 26.4314 6.125 26.398 6.225C26.3814 6.30833 26.3564 6.39167 26.323 6.475C26.223 6.675 25.9064 6.8 25.373 6.85L21.098 17.375H21.123C20.673 18.575 20.2147 19.6083 19.748 20.475C19.298 21.3417 18.9397 21.9333 18.673 22.25C18.023 23.0667 17.3814 23.475 16.748 23.475C16.1147 23.475 15.648 23.3417 15.348 23.075C15.048 22.825 14.898 22.5167 14.898 22.15C14.898 21.8 14.9897 21.5083 15.173 21.275C15.373 21.0583 15.5897 20.95 15.823 20.95C16.073 20.95 16.2397 20.9667 16.323 21C16.173 21.6667 16.3647 22 16.898 22C17.3314 22 17.823 21.5083 18.373 20.525C18.923 19.5417 19.4147 18.5 19.848 17.4L15.498 6.95H15.473L14.248 6.8C14.1814 6.11667 14.4147 5.775 14.948 5.775H19.148V5.95C19.148 6.35 19.0314 6.6 18.798 6.7C18.6647 6.76667 18.2064 6.83333 17.423 6.9L20.673 15.275L23.873 6.95L22.423 6.8C22.3564 6.11667 22.5897 5.775 23.123 5.775ZM36.6154 0.949999H42.0404C42.0404 0.949999 42.0404 1.01667 42.0404 1.15C42.0404 1.55 41.9821 1.825 41.8654 1.975C41.6488 2.24167 41.3738 2.39167 41.0404 2.425L40.2154 2.475V14.6C40.2154 16.05 39.8238 17.2417 39.0404 18.175C38.2571 19.1083 37.1988 19.575 35.8654 19.575C35.1654 19.575 34.5821 19.3917 34.1154 19.025C33.6654 18.6583 33.4404 18.225 33.4404 17.725C33.4404 17.2083 33.5821 16.8 33.8654 16.5C34.1488 16.1833 34.5988 16.0333 35.2154 16.05C35.2488 17.1833 35.6654 17.75 36.4654 17.75C36.8488 17.75 37.1321 17.5417 37.3154 17.125C37.4988 16.6917 37.5904 15.9167 37.5904 14.8V2.525H37.5654L35.6654 2.375C35.5654 1.425 35.8821 0.949999 36.6154 0.949999ZM55.1881 17C55.1881 17.9167 54.5798 18.375 53.3631 18.375C52.1631 18.375 51.4214 17.9167 51.1381 17C50.0548 17.9167 48.8714 18.375 47.5881 18.375C46.3048 18.375 45.3131 18.075 44.6131 17.475C43.9131 16.8583 43.5631 16.0167 43.5631 14.95C43.5631 13.8833 43.9631 13 44.7631 12.3C45.5798 11.6 46.8881 11.25 48.6881 11.25C49.4714 11.25 50.2381 11.3167 50.9881 11.45V10.05C50.9881 7.93333 50.1631 6.875 48.5131 6.875C47.8464 6.875 47.3131 7.1 46.9131 7.55C46.5298 8 46.3214 8.56667 46.2881 9.25C45.7214 9.3 45.2464 9.2 44.8631 8.95C44.4964 8.7 44.3131 8.31667 44.3131 7.8C44.3131 7.03333 44.7048 6.4 45.4881 5.9C46.2881 5.4 47.3631 5.15 48.7131 5.15C50.0798 5.15 51.2214 5.51667 52.1381 6.25C53.0714 6.98333 53.5381 8.2 53.5381 9.9V16.8L55.1881 17ZM50.9881 13.2C50.3214 12.9167 49.5881 12.775 48.7881 12.775C48.0048 12.775 47.3881 12.9417 46.9381 13.275C46.4881 13.6083 46.2631 14.0833 46.2631 14.7C46.2631 15.3 46.4381 15.7667 46.7881 16.1C47.1381 16.4333 47.7048 16.6 48.4881 16.6C49.2881 16.6 50.1214 16.2917 50.9881 15.675V13.2ZM77.7799 18H72.5549V17.8C72.5549 17.0333 72.8799 16.6167 73.5299 16.55L74.3549 16.5V10.3C74.3549 9.25 74.1299 8.49167 73.6799 8.025C73.2466 7.54167 72.5549 7.3 71.6049 7.3C70.6715 7.3 69.7049 7.75833 68.7049 8.675C68.8382 9.15833 68.9049 9.70833 68.9049 10.325V16.45L70.7299 16.6C70.8299 17.5333 70.5049 18 69.7549 18H64.5049V17.8C64.5049 17.0333 64.8299 16.6167 65.4799 16.55L66.3549 16.5V10.3C66.3549 8.3 65.4965 7.3 63.7799 7.3C62.8299 7.3 61.8549 7.73333 60.8549 8.6V16.45L62.6799 16.6C62.7799 17.5333 62.4632 18 61.7299 18H56.4549V17.8C56.4549 17.0333 56.7799 16.6167 57.4299 16.55L58.3049 16.5V7.2L57.2799 7.125C56.6965 7.075 56.4049 6.61667 56.4049 5.75L60.4549 5.25L60.6549 6.85H60.7299C61.1465 6.48333 61.4799 6.2 61.7299 6C61.9965 5.8 62.3882 5.60833 62.9049 5.425C63.4215 5.24167 63.9965 5.15 64.6299 5.15C65.2799 5.15 65.9299 5.325 66.5799 5.675C67.2465 6.00833 67.7799 6.53333 68.1799 7.25C69.5466 5.85 70.9632 5.15 72.4299 5.15C73.6632 5.15 74.7132 5.575 75.5799 6.425C76.4632 7.25833 76.9049 8.55833 76.9049 10.325V16.45L78.7299 16.6C78.8299 17.5333 78.5132 18 77.7799 18ZM82.8598 11.7V12.175C82.8598 13.5583 83.1264 14.6167 83.6598 15.35C84.1931 16.0833 85.0764 16.45 86.3098 16.45C87.5598 16.45 88.7514 16 89.8848 15.1C90.1681 15.3 90.3098 15.6 90.3098 16C90.3098 16.5333 89.8514 17.0667 88.9348 17.6C88.0181 18.1167 86.9181 18.375 85.6348 18.375C83.9181 18.375 82.5764 17.8583 81.6098 16.825C80.6598 15.775 80.1848 14.1833 80.1848 12.05C80.1848 9.91667 80.7264 8.23333 81.8098 7C82.8931 5.76667 84.2514 5.15 85.8848 5.15C87.5348 5.15 88.7348 5.64167 89.4848 6.625C90.2348 7.60833 90.6014 8.85 90.5848 10.35V11.7H82.8598ZM85.8098 6.875C84.2931 6.875 83.3598 7.98333 83.0098 10.2H88.0598C88.0098 7.98333 87.2598 6.875 85.8098 6.875ZM92.3691 8.8C92.3691 7.66667 92.8358 6.775 93.7691 6.125C94.7025 5.475 95.7191 5.15 96.8191 5.15C97.9358 5.15 98.8441 5.33333 99.5441 5.7C100.261 6.05 100.619 6.60833 100.619 7.375C100.619 7.90833 100.444 8.31667 100.094 8.6C99.7441 8.86667 99.3191 8.96667 98.8191 8.9C98.8358 8.3 98.6191 7.8 98.1691 7.4C97.7191 7 97.1691 6.8 96.5191 6.8C95.8858 6.78333 95.3775 6.90833 94.9941 7.175C94.6275 7.44167 94.4441 7.79167 94.4441 8.225C94.4441 8.65833 94.6775 9.025 95.1441 9.325C95.6275 9.625 96.2941 9.95 97.1441 10.3C98.0108 10.6333 98.6191 10.8917 98.9691 11.075C99.3191 11.2583 99.6941 11.5 100.094 11.8C100.861 12.3667 101.236 13.2083 101.219 14.325C101.219 15.4417 100.761 16.4 99.8441 17.2C98.9441 18 97.7191 18.3917 96.1691 18.375C95.0525 18.3583 94.0691 18.1417 93.2191 17.725C92.3858 17.2917 91.9691 16.675 91.9691 15.875C91.9858 15.3583 92.1691 14.9583 92.5191 14.675C92.8691 14.3917 93.2858 14.25 93.7691 14.25C93.8858 15.0167 94.1941 15.6167 94.6941 16.05C95.1941 16.4833 95.8191 16.7083 96.5691 16.725C97.3358 16.725 97.9441 16.5833 98.3941 16.3C98.8441 16.0167 99.0691 15.6083 99.0691 15.075C99.0691 14.525 98.8691 14.1083 98.4691 13.825C98.0691 13.5417 97.4775 13.25 96.6941 12.95C95.9108 12.6333 95.3191 12.3833 94.9191 12.2C94.5191 12 94.1025 11.7417 93.6691 11.425C92.8025 10.7917 92.3691 9.91667 92.3691 8.8ZM128.732 18H123.457V17.8C123.457 17.0167 123.782 16.5917 124.432 16.525L125.257 16.475L124.357 3.975L119.782 15.15C119.249 15.3167 118.782 15.35 118.382 15.25L113.532 4.45L112.707 16.425L114.657 16.575C114.757 17.525 114.441 18 113.707 18H108.832V17.8C108.832 17.0167 109.157 16.5917 109.807 16.525L110.857 16.475L111.832 2.525L110.107 2.375C110.007 1.40833 110.324 0.924999 111.057 0.924999H114.832L119.507 11.425L123.632 0.924999H127.657C128.407 0.924999 128.732 1.40833 128.632 2.375L126.882 2.525L127.932 16.4L129.682 16.575C129.782 17.525 129.466 18 128.732 18ZM137.017 5.15C138.167 5.15 139.092 5.39167 139.792 5.875C140.508 6.35833 140.867 6.95833 140.867 7.675C140.867 8.39167 140.675 8.88333 140.292 9.15C139.908 9.41667 139.475 9.525 138.992 9.475C138.975 8.80833 138.775 8.21667 138.392 7.7C138.008 7.18333 137.433 6.925 136.667 6.925C135.683 6.925 134.925 7.35833 134.392 8.225C133.858 9.075 133.592 10.2167 133.592 11.65C133.592 14.8333 134.825 16.425 137.292 16.425C138.408 16.425 139.508 15.9833 140.592 15.1C140.725 15.1833 140.833 15.325 140.917 15.525C141 15.7083 141.042 15.8667 141.042 16C141.042 16.5167 140.558 17.0417 139.592 17.575C138.625 18.1083 137.542 18.375 136.342 18.375C134.642 18.375 133.317 17.8167 132.367 16.7C131.417 15.5667 130.933 14 130.917 12C130.917 9.98333 131.467 8.34167 132.567 7.075C133.667 5.79167 135.15 5.15 137.017 5.15ZM146.388 6.625C147.488 5.64167 148.721 5.15 150.088 5.15C151.454 5.15 152.613 5.65 153.563 6.65C154.529 7.63333 155.029 9.175 155.063 11.275C155.096 13.375 154.588 15.0833 153.538 16.4C152.488 17.7167 150.963 18.375 148.963 18.375C148.029 18.375 147.171 18.2 146.388 17.85L143.863 17.025V2.275L142.738 2.175C142.154 2.10833 141.896 1.65 141.963 0.799999L146.388 0.274999V6.625ZM149.238 16.6C151.338 16.6 152.388 14.9833 152.388 11.75C152.388 10.3 152.121 9.15833 151.588 8.325C151.071 7.475 150.321 7.05 149.338 7.05C148.354 7.05 147.371 7.49167 146.388 8.375V15.5C147.238 16.2333 148.188 16.6 149.238 16.6ZM161.243 7.275C161.693 6.74167 162.285 6.25833 163.018 5.825C163.751 5.375 164.376 5.15 164.893 5.15C165.426 5.15 165.86 5.3 166.193 5.6C166.543 5.9 166.718 6.43333 166.718 7.2C166.718 7.95 166.493 8.53333 166.043 8.95C165.776 9.15 165.351 9.225 164.768 9.175C164.768 8.45833 164.693 7.975 164.543 7.725C164.393 7.45833 164.151 7.325 163.818 7.325C163.018 7.325 162.185 7.875 161.318 8.975V16.45L163.393 16.6C163.493 17.5333 163.168 18 162.418 18H156.943C156.943 18 156.943 17.9333 156.943 17.8C156.943 17.0333 157.268 16.6167 157.918 16.55L158.768 16.5V7.225L157.568 7.1C157.118 7.05 156.893 6.61667 156.893 5.8L160.968 5.275L161.168 7.275H161.243ZM172.985 18H167.71V17.8C167.71 17.0333 168.035 16.6167 168.685 16.55L169.56 16.5V7.125L168.46 7C167.926 6.95 167.66 6.5 167.66 5.65L172.11 5.15V16.45L173.935 16.6C174.035 17.5333 173.718 18 172.985 18ZM172.26 2.1C172.26 2.56667 172.101 2.95833 171.785 3.275C171.485 3.575 171.101 3.725 170.635 3.725C170.185 3.725 169.801 3.575 169.485 3.275C169.185 2.95833 169.035 2.56667 169.035 2.1C169.035 1.63333 169.185 1.25 169.485 0.949999C169.801 0.633332 170.185 0.474999 170.635 0.474999C171.101 0.474999 171.485 0.633332 171.785 0.949999C172.101 1.25 172.26 1.63333 172.26 2.1ZM188.225 16.95C188.225 17.9167 187.584 18.4 186.3 18.4C185.034 18.4 184.3 17.8833 184.1 16.85C183 17.8667 181.759 18.375 180.375 18.375C179.009 18.375 177.842 17.8833 176.875 16.9C175.909 15.9 175.409 14.35 175.375 12.25C175.342 10.15 175.85 8.44167 176.9 7.125C177.967 5.80833 179.492 5.15 181.475 5.15C182.409 5.15 183.267 5.325 184.05 5.675V2.275L182.95 2.175C182.35 2.10833 182.084 1.65 182.15 0.799999L186.6 0.274999V16.775L188.225 16.95ZM184.05 8.025C183.217 7.29167 182.25 6.925 181.15 6.925C180.05 6.925 179.25 7.39167 178.75 8.325C178.267 9.24167 178.025 10.4083 178.025 11.825C178.025 13.225 178.292 14.35 178.825 15.2C179.375 16.0333 180.142 16.45 181.125 16.45C182.109 16.45 183.084 16.0167 184.05 15.15V8.025ZM192.162 11.7V12.175C192.162 13.5583 192.428 14.6167 192.962 15.35C193.495 16.0833 194.378 16.45 195.612 16.45C196.862 16.45 198.053 16 199.187 15.1C199.47 15.3 199.612 15.6 199.612 16C199.612 16.5333 199.153 17.0667 198.237 17.6C197.32 18.1167 196.22 18.375 194.937 18.375C193.22 18.375 191.878 17.8583 190.912 16.825C189.962 15.775 189.487 14.1833 189.487 12.05C189.487 9.91667 190.028 8.23333 191.112 7C192.195 5.76667 193.553 5.15 195.187 5.15C196.837 5.15 198.037 5.64167 198.787 6.625C199.537 7.60833 199.903 8.85 199.887 10.35V11.7H192.162ZM195.112 6.875C193.595 6.875 192.662 7.98333 192.312 10.2H197.362C197.312 7.98333 196.562 6.875 195.112 6.875Z" fill="black"/>
<path d="M35 18H201" stroke="black" stroke-width="1.5"/>
</svg>
