<svg width="200" height="24" viewBox="0 0 200 24" fill="none" xmlns="http://www.w3.org/2000/svg">
<path d="M4.25977 7.175C5.47643 5.99167 6.77643 5.4 8.15977 5.4C9.55977 5.4 10.7181 5.90833 11.6348 6.925C12.5681 7.94167 13.0514 9.475 13.0848 11.525C13.1348 13.575 12.6348 15.2333 11.5848 16.5C10.5348 17.75 9.05977 18.375 7.15977 18.375C6.20977 18.375 5.2431 18.1583 4.25977 17.725L2.53477 17.075V2.225L1.23477 2.075C0.834766 2.04167 0.634766 1.68333 0.634766 1L4.25977 0.55V7.175ZM4.25977 15.8C5.15977 16.6167 6.2431 17.025 7.50977 17.025C8.7931 17.025 9.73477 16.5333 10.3348 15.55C10.9348 14.5667 11.2348 13.3417 11.2348 11.875C11.2348 10.4083 10.9348 9.20833 10.3348 8.275C9.75143 7.34167 8.8431 6.875 7.60977 6.875C6.9931 6.875 6.4431 7 5.95977 7.25C5.47643 7.5 4.90977 7.89167 4.25977 8.425V15.8ZM23.0537 5.775H26.3537C26.337 5.825 26.337 5.89167 26.3537 5.975C26.3704 6.04167 26.362 6.125 26.3287 6.225C26.312 6.30833 26.287 6.39167 26.2537 6.475C26.1537 6.675 25.837 6.8 25.3037 6.85L21.0287 17.375H21.0537C20.6037 18.575 20.1454 19.6083 19.6787 20.475C19.2287 21.3417 18.8704 21.9333 18.6037 22.25C17.9537 23.0667 17.312 23.475 16.6787 23.475C16.0454 23.475 15.5787 23.3417 15.2787 23.075C14.9787 22.825 14.8287 22.5167 14.8287 22.15C14.8287 21.8 14.9204 21.5083 15.1037 21.275C15.3037 21.0583 15.5204 20.95 15.7537 20.95C16.0037 20.95 16.1704 20.9667 16.2537 21C16.1037 21.6667 16.2954 22 16.8287 22C17.262 22 17.7537 21.5083 18.3037 20.525C18.8537 19.5417 19.3454 18.5 19.7787 17.4L15.4287 6.95H15.4037L14.1787 6.8C14.112 6.11667 14.3454 5.775 14.8787 5.775H19.0787V5.95C19.0787 6.35 18.962 6.6 18.7287 6.7C18.5954 6.76667 18.137 6.83333 17.3537 6.9L20.6037 15.275L23.8037 6.95L22.3537 6.8C22.287 6.11667 22.5204 5.775 23.0537 5.775ZM36.5461 0.949999H41.9711C41.9711 0.949999 41.9711 1.01667 41.9711 1.15C41.9711 1.55 41.9128 1.825 41.7961 1.975C41.5794 2.24167 41.3044 2.39167 40.9711 2.425L40.1461 2.475V14.6C40.1461 16.05 39.7544 17.2417 38.9711 18.175C38.1878 19.1083 37.1294 19.575 35.7961 19.575C35.0961 19.575 34.5128 19.3917 34.0461 19.025C33.5961 18.6583 33.3711 18.225 33.3711 17.725C33.3711 17.2083 33.5128 16.8 33.7961 16.5C34.0794 16.1833 34.5294 16.0333 35.1461 16.05C35.1794 17.1833 35.5961 17.75 36.3961 17.75C36.7794 17.75 37.0628 17.5417 37.2461 17.125C37.4294 16.6917 37.5211 15.9167 37.5211 14.8V2.525H37.4961L35.5961 2.375C35.4961 1.425 35.8128 0.949999 36.5461 0.949999ZM55.1188 17C55.1188 17.9167 54.5104 18.375 53.2938 18.375C52.0938 18.375 51.3521 17.9167 51.0688 17C49.9854 17.9167 48.8021 18.375 47.5188 18.375C46.2354 18.375 45.2438 18.075 44.5438 17.475C43.8438 16.8583 43.4938 16.0167 43.4938 14.95C43.4938 13.8833 43.8938 13 44.6938 12.3C45.5104 11.6 46.8188 11.25 48.6188 11.25C49.4021 11.25 50.1688 11.3167 50.9188 11.45V10.05C50.9188 7.93333 50.0938 6.875 48.4438 6.875C47.7771 6.875 47.2438 7.1 46.8438 7.55C46.4604 8 46.2521 8.56667 46.2188 9.25C45.6521 9.3 45.1771 9.2 44.7938 8.95C44.4271 8.7 44.2437 8.31667 44.2437 7.8C44.2437 7.03333 44.6354 6.4 45.4188 5.9C46.2188 5.4 47.2938 5.15 48.6438 5.15C50.0104 5.15 51.1521 5.51667 52.0688 6.25C53.0021 6.98333 53.4688 8.2 53.4688 9.9V16.8L55.1188 17ZM50.9188 13.2C50.2521 12.9167 49.5188 12.775 48.7188 12.775C47.9354 12.775 47.3188 12.9417 46.8688 13.275C46.4188 13.6083 46.1938 14.0833 46.1938 14.7C46.1938 15.3 46.3688 15.7667 46.7188 16.1C47.0688 16.4333 47.6354 16.6 48.4188 16.6C49.2188 16.6 50.0521 16.2917 50.9188 15.675V13.2ZM56.4355 8.8C56.4355 7.66667 56.9022 6.775 57.8355 6.125C58.7689 5.475 59.7855 5.15 60.8855 5.15C62.0022 5.15 62.9105 5.33333 63.6105 5.7C64.3272 6.05 64.6855 6.60833 64.6855 7.375C64.6855 7.90833 64.5105 8.31667 64.1605 8.6C63.8105 8.86667 63.3855 8.96667 62.8855 8.9C62.9022 8.3 62.6855 7.8 62.2355 7.4C61.7855 7 61.2355 6.8 60.5855 6.8C59.9522 6.78333 59.4439 6.90833 59.0605 7.175C58.6939 7.44167 58.5105 7.79167 58.5105 8.225C58.5105 8.65833 58.7439 9.025 59.2105 9.325C59.6939 9.625 60.3605 9.95 61.2105 10.3C62.0772 10.6333 62.6855 10.8917 63.0355 11.075C63.3855 11.2583 63.7605 11.5 64.1605 11.8C64.9272 12.3667 65.3022 13.2083 65.2855 14.325C65.2855 15.4417 64.8272 16.4 63.9105 17.2C63.0105 18 61.7855 18.3917 60.2355 18.375C59.1189 18.3583 58.1355 18.1417 57.2855 17.725C56.4522 17.2917 56.0355 16.675 56.0355 15.875C56.0522 15.3583 56.2355 14.9583 56.5855 14.675C56.9355 14.3917 57.3522 14.25 57.8355 14.25C57.9522 15.0167 58.2605 15.6167 58.7605 16.05C59.2605 16.4833 59.8855 16.7083 60.6355 16.725C61.4022 16.725 62.0105 16.5833 62.4605 16.3C62.9105 16.0167 63.1355 15.6083 63.1355 15.075C63.1355 14.525 62.9355 14.1083 62.5355 13.825C62.1355 13.5417 61.5439 13.25 60.7605 12.95C59.9772 12.6333 59.3855 12.3833 58.9855 12.2C58.5855 12 58.1689 11.7417 57.7355 11.425C56.8689 10.7917 56.4355 9.91667 56.4355 8.8ZM88.1842 18H82.9592V17.8C82.9592 17.0333 83.2842 16.6167 83.9342 16.55L84.7592 16.5V10.3C84.7592 9.25 84.5342 8.49167 84.0842 8.025C83.6508 7.54167 82.9592 7.3 82.0092 7.3C81.0758 7.3 80.1092 7.75833 79.1092 8.675C79.2425 9.15833 79.3092 9.70833 79.3092 10.325V16.45L81.1342 16.6C81.2342 17.5333 80.9092 18 80.1592 18H74.9092V17.8C74.9092 17.0333 75.2342 16.6167 75.8842 16.55L76.7592 16.5V10.3C76.7592 8.3 75.9008 7.3 74.1842 7.3C73.2342 7.3 72.2592 7.73333 71.2592 8.6V16.45L73.0842 16.6C73.1842 17.5333 72.8675 18 72.1342 18H66.8592V17.8C66.8592 17.0333 67.1842 16.6167 67.8342 16.55L68.7092 16.5V7.2L67.6842 7.125C67.1008 7.075 66.8092 6.61667 66.8092 5.75L70.8592 5.25L71.0592 6.85H71.1342C71.5508 6.48333 71.8842 6.2 72.1342 6C72.4008 5.8 72.7925 5.60833 73.3092 5.425C73.8258 5.24167 74.4008 5.15 75.0342 5.15C75.6842 5.15 76.3342 5.325 76.9842 5.675C77.6508 6.00833 78.1842 6.53333 78.5842 7.25C79.9508 5.85 81.3675 5.15 82.8342 5.15C84.0675 5.15 85.1175 5.575 85.9842 6.425C86.8675 7.25833 87.3092 8.55833 87.3092 10.325V16.45L89.1342 16.6C89.2342 17.5333 88.9175 18 88.1842 18ZM95.8891 18H90.6141V17.8C90.6141 17.0333 90.9391 16.6167 91.5891 16.55L92.4641 16.5V7.125L91.3641 7C90.8307 6.95 90.5641 6.5 90.5641 5.65L95.0141 5.15V16.45L96.8391 16.6C96.9391 17.5333 96.6224 18 95.8891 18ZM95.1641 2.1C95.1641 2.56667 95.0057 2.95833 94.6891 3.275C94.3891 3.575 94.0057 3.725 93.5391 3.725C93.0891 3.725 92.7057 3.575 92.3891 3.275C92.0891 2.95833 91.9391 2.56667 91.9391 2.1C91.9391 1.63333 92.0891 1.25 92.3891 0.949999C92.7057 0.633332 93.0891 0.474999 93.5391 0.474999C94.0057 0.474999 94.3891 0.633332 94.6891 0.949999C95.0057 1.25 95.1641 1.63333 95.1641 2.1ZM111.754 18H106.554V17.8C106.554 17.0333 106.879 16.6167 107.529 16.55L108.404 16.5V10.225C108.404 8.25833 107.596 7.275 105.979 7.275C105.313 7.275 104.738 7.38333 104.254 7.6C103.771 7.8 103.254 8.14167 102.704 8.625V16.45L104.479 16.6C104.579 17.5333 104.263 18 103.529 18H98.2795V17.8C98.2795 17.4 98.3378 17.1333 98.4545 17C98.6712 16.7333 98.9462 16.5833 99.2795 16.55L100.154 16.5V7.225L99.0545 7.1C98.5212 7.05 98.2545 6.6 98.2545 5.75L102.304 5.25L102.529 6.925H102.604C103.888 5.74167 105.171 5.15 106.454 5.15C107.738 5.15 108.804 5.56667 109.654 6.4C110.521 7.21667 110.954 8.49167 110.954 10.225V16.45L112.704 16.6C112.804 17.5333 112.488 18 111.754 18ZM116.848 11.7V12.175C116.848 13.5583 117.115 14.6167 117.648 15.35C118.181 16.0833 119.065 16.45 120.298 16.45C121.548 16.45 122.74 16 123.873 15.1C124.156 15.3 124.298 15.6 124.298 16C124.298 16.5333 123.84 17.0667 122.923 17.6C122.006 18.1167 120.906 18.375 119.623 18.375C117.906 18.375 116.565 17.8583 115.598 16.825C114.648 15.775 114.173 14.1833 114.173 12.05C114.173 9.91667 114.715 8.23333 115.798 7C116.881 5.76667 118.24 5.15 119.873 5.15C121.523 5.15 122.723 5.64167 123.473 6.625C124.223 7.60833 124.59 8.85 124.573 10.35V11.7H116.848ZM119.798 6.875C118.281 6.875 117.348 7.98333 116.998 10.2H122.048C121.998 7.98333 121.248 6.875 119.798 6.875ZM152.247 18H146.972V17.8C146.972 17.0167 147.297 16.5917 147.947 16.525L148.772 16.475L147.872 3.975L143.297 15.15C142.764 15.3167 142.297 15.35 141.897 15.25L137.047 4.45L136.222 16.425L138.172 16.575C138.272 17.525 137.955 18 137.222 18H132.347V17.8C132.347 17.0167 132.672 16.5917 133.322 16.525L134.372 16.475L135.347 2.525L133.622 2.375C133.522 1.40833 133.839 0.924999 134.572 0.924999H138.347L143.022 11.425L147.147 0.924999H151.172C151.922 0.924999 152.247 1.40833 152.147 2.375L150.397 2.525L151.447 16.4L153.197 16.575C153.297 17.525 152.98 18 152.247 18ZM166.056 17C166.056 17.9167 165.448 18.375 164.231 18.375C163.031 18.375 162.29 17.9167 162.006 17C160.923 17.9167 159.74 18.375 158.456 18.375C157.173 18.375 156.181 18.075 155.481 17.475C154.781 16.8583 154.431 16.0167 154.431 14.95C154.431 13.8833 154.831 13 155.631 12.3C156.448 11.6 157.756 11.25 159.556 11.25C160.34 11.25 161.106 11.3167 161.856 11.45V10.05C161.856 7.93333 161.031 6.875 159.381 6.875C158.715 6.875 158.181 7.1 157.781 7.55C157.398 8 157.19 8.56667 157.156 9.25C156.59 9.3 156.115 9.2 155.731 8.95C155.365 8.7 155.181 8.31667 155.181 7.8C155.181 7.03333 155.573 6.4 156.356 5.9C157.156 5.4 158.231 5.15 159.581 5.15C160.948 5.15 162.09 5.51667 163.006 6.25C163.94 6.98333 164.406 8.2 164.406 9.9V16.8L166.056 17ZM161.856 13.2C161.19 12.9167 160.456 12.775 159.656 12.775C158.873 12.775 158.256 12.9417 157.806 13.275C157.356 13.6083 157.131 14.0833 157.131 14.7C157.131 15.3 157.306 15.7667 157.656 16.1C158.006 16.4333 158.573 16.6 159.356 16.6C160.156 16.6 160.99 16.2917 161.856 15.675V13.2ZM180.773 18H175.573V17.8C175.573 17.0333 175.898 16.6167 176.548 16.55L177.423 16.5V10.225C177.423 8.25833 176.615 7.275 174.998 7.275C174.331 7.275 173.756 7.38333 173.273 7.6C172.79 7.8 172.273 8.14167 171.723 8.625V16.45L173.498 16.6C173.598 17.5333 173.281 18 172.548 18H167.298V17.8C167.298 17.4 167.356 17.1333 167.473 17C167.69 16.7333 167.965 16.5833 168.298 16.55L169.173 16.5V7.225L168.073 7.1C167.54 7.05 167.273 6.6 167.273 5.75L171.323 5.25L171.548 6.925H171.623C172.906 5.74167 174.19 5.15 175.473 5.15C176.756 5.15 177.823 5.56667 178.673 6.4C179.54 7.21667 179.973 8.49167 179.973 10.225V16.45L181.723 16.6C181.823 17.5333 181.506 18 180.773 18ZM183.267 8.8C183.267 7.66667 183.733 6.775 184.667 6.125C185.6 5.475 186.617 5.15 187.717 5.15C188.833 5.15 189.742 5.33333 190.442 5.7C191.158 6.05 191.517 6.60833 191.517 7.375C191.517 7.90833 191.342 8.31667 190.992 8.6C190.642 8.86667 190.217 8.96667 189.717 8.9C189.733 8.3 189.517 7.8 189.067 7.4C188.617 7 188.067 6.8 187.417 6.8C186.783 6.78333 186.275 6.90833 185.892 7.175C185.525 7.44167 185.342 7.79167 185.342 8.225C185.342 8.65833 185.575 9.025 186.042 9.325C186.525 9.625 187.192 9.95 188.042 10.3C188.908 10.6333 189.517 10.8917 189.867 11.075C190.217 11.2583 190.592 11.5 190.992 11.8C191.758 12.3667 192.133 13.2083 192.117 14.325C192.117 15.4417 191.658 16.4 190.742 17.2C189.842 18 188.617 18.3917 187.067 18.375C185.95 18.3583 184.967 18.1417 184.117 17.725C183.283 17.2917 182.867 16.675 182.867 15.875C182.883 15.3583 183.067 14.9583 183.417 14.675C183.767 14.3917 184.183 14.25 184.667 14.25C184.783 15.0167 185.092 15.6167 185.592 16.05C186.092 16.4833 186.717 16.7083 187.467 16.725C188.233 16.725 188.842 16.5833 189.292 16.3C189.742 16.0167 189.967 15.6083 189.967 15.075C189.967 14.525 189.767 14.1083 189.367 13.825C188.967 13.5417 188.375 13.25 187.592 12.95C186.808 12.6333 186.217 12.3833 185.817 12.2C185.417 12 185 11.7417 184.567 11.425C183.7 10.7917 183.267 9.91667 183.267 8.8Z" fill="black"/>
<path d="M34 18H200" stroke="black" stroke-width="1.5"/>
</svg>
