<svg width="196" height="24" viewBox="0 0 196 24" fill="none" xmlns="http://www.w3.org/2000/svg">
<path d="M4.46826 7.175C5.68493 5.99167 6.98493 5.4 8.36826 5.4C9.76826 5.4 10.9266 5.90833 11.8433 6.925C12.7766 7.94167 13.2599 9.475 13.2933 11.525C13.3433 13.575 12.8433 15.2333 11.7933 16.5C10.7433 17.75 9.26826 18.375 7.36826 18.375C6.41826 18.375 5.4516 18.1583 4.46826 17.725L2.74326 17.075V2.225L1.44326 2.075C1.04326 2.04167 0.843262 1.68333 0.843262 1L4.46826 0.55V7.175ZM4.46826 15.8C5.36826 16.6167 6.4516 17.025 7.71826 17.025C9.0016 17.025 9.94326 16.5333 10.5433 15.55C11.1433 14.5667 11.4433 13.3417 11.4433 11.875C11.4433 10.4083 11.1433 9.20833 10.5433 8.275C9.95993 7.34167 9.0516 6.875 7.81826 6.875C7.2016 6.875 6.6516 7 6.16826 7.25C5.68493 7.5 5.11826 7.89167 4.46826 8.425V15.8ZM23.2622 5.775H26.5622C26.5455 5.825 26.5455 5.89167 26.5622 5.975C26.5789 6.04167 26.5705 6.125 26.5372 6.225C26.5205 6.30833 26.4955 6.39167 26.4622 6.475C26.3622 6.675 26.0455 6.8 25.5122 6.85L21.2372 17.375H21.2622C20.8122 18.575 20.3539 19.6083 19.8872 20.475C19.4372 21.3417 19.0789 21.9333 18.8122 22.25C18.1622 23.0667 17.5205 23.475 16.8872 23.475C16.2539 23.475 15.7872 23.3417 15.4872 23.075C15.1872 22.825 15.0372 22.5167 15.0372 22.15C15.0372 21.8 15.1289 21.5083 15.3122 21.275C15.5122 21.0583 15.7289 20.95 15.9622 20.95C16.2122 20.95 16.3789 20.9667 16.4622 21C16.3122 21.6667 16.5039 22 17.0372 22C17.4705 22 17.9622 21.5083 18.5122 20.525C19.0622 19.5417 19.5539 18.5 19.9872 17.4L15.6372 6.95H15.6122L14.3872 6.8C14.3205 6.11667 14.5539 5.775 15.0872 5.775H19.2872V5.95C19.2872 6.35 19.1705 6.6 18.9372 6.7C18.8039 6.76667 18.3455 6.83333 17.5622 6.9L20.8122 15.275L24.0122 6.95L22.5622 6.8C22.4955 6.11667 22.7289 5.775 23.2622 5.775ZM53.5296 18H48.2546V17.8C48.2546 17.0167 48.5796 16.5917 49.2296 16.525L50.0546 16.475L49.1546 3.975L44.5796 15.15C44.0463 15.3167 43.5796 15.35 43.1796 15.25L38.3296 4.45L37.5046 16.425L39.4546 16.575C39.5546 17.525 39.2379 18 38.5046 18H33.6296V17.8C33.6296 17.0167 33.9546 16.5917 34.6046 16.525L35.6546 16.475L36.6296 2.525L34.9046 2.375C34.8046 1.40833 35.1213 0.924999 35.8546 0.924999H39.6296L44.3046 11.425L48.4296 0.924999H52.4546C53.2046 0.924999 53.5296 1.40833 53.4296 2.375L51.6796 2.525L52.7296 16.4L54.4796 16.575C54.5796 17.525 54.2629 18 53.5296 18ZM67.339 17C67.339 17.9167 66.7306 18.375 65.514 18.375C64.314 18.375 63.5723 17.9167 63.289 17C62.2056 17.9167 61.0223 18.375 59.739 18.375C58.4556 18.375 57.464 18.075 56.764 17.475C56.064 16.8583 55.714 16.0167 55.714 14.95C55.714 13.8833 56.114 13 56.914 12.3C57.7306 11.6 59.039 11.25 60.839 11.25C61.6223 11.25 62.389 11.3167 63.139 11.45V10.05C63.139 7.93333 62.314 6.875 60.664 6.875C59.9973 6.875 59.464 7.1 59.064 7.55C58.6806 8 58.4723 8.56667 58.439 9.25C57.8723 9.3 57.3973 9.2 57.014 8.95C56.6473 8.7 56.464 8.31667 56.464 7.8C56.464 7.03333 56.8556 6.4 57.639 5.9C58.439 5.4 59.514 5.15 60.864 5.15C62.2306 5.15 63.3723 5.51667 64.289 6.25C65.2223 6.98333 65.689 8.2 65.689 9.9V16.8L67.339 17ZM63.139 13.2C62.4723 12.9167 61.739 12.775 60.939 12.775C60.1556 12.775 59.539 12.9417 59.089 13.275C58.639 13.6083 58.414 14.0833 58.414 14.7C58.414 15.3 58.589 15.7667 58.939 16.1C59.289 16.4333 59.8556 16.6 60.639 16.6C61.439 16.6 62.2723 16.2917 63.139 15.675V13.2ZM72.9058 7.275C73.3558 6.74167 73.9474 6.25833 74.6808 5.825C75.4141 5.375 76.0391 5.15 76.5558 5.15C77.0891 5.15 77.5224 5.3 77.8558 5.6C78.2058 5.9 78.3808 6.43333 78.3808 7.2C78.3808 7.95 78.1558 8.53333 77.7058 8.95C77.4391 9.15 77.0141 9.225 76.4308 9.175C76.4308 8.45833 76.3558 7.975 76.2058 7.725C76.0558 7.45833 75.8141 7.325 75.4808 7.325C74.6808 7.325 73.8474 7.875 72.9808 8.975V16.45L75.0558 16.6C75.1558 17.5333 74.8308 18 74.0808 18H68.6058C68.6058 18 68.6058 17.9333 68.6058 17.8C68.6058 17.0333 68.9308 16.6167 69.5808 16.55L70.4308 16.5V7.225L69.2308 7.1C68.7808 7.05 68.5558 6.61667 68.5558 5.8L72.6308 5.275L72.8308 7.275H72.9058ZM84.5974 18H79.3474V17.8C79.3474 17.4 79.4057 17.1333 79.5224 17C79.739 16.7333 80.014 16.5833 80.3474 16.55L81.2224 16.5V2.275L80.1224 2.175C79.589 2.10833 79.3224 1.65 79.3224 0.799999L83.7724 0.3V16.45L85.5474 16.6C85.6474 17.5333 85.3307 18 84.5974 18ZM92.689 6.85C91.7223 6.85 90.9723 7.30833 90.439 8.225C89.9056 9.125 89.639 10.325 89.639 11.825C89.639 13.325 89.8973 14.5167 90.414 15.4C90.9306 16.2833 91.6723 16.725 92.639 16.725C93.6223 16.7083 94.3806 16.275 94.914 15.425C95.4473 14.5583 95.714 13.375 95.714 11.875C95.714 10.375 95.4556 9.15833 94.939 8.225C94.4223 7.29167 93.6723 6.83333 92.689 6.85ZM86.964 12C86.964 9.91667 87.4806 8.25833 88.514 7.025C89.564 5.775 90.964 5.15 92.714 5.15C94.464 5.15 95.839 5.7 96.839 6.8C97.8556 7.88333 98.364 9.48333 98.364 11.6C98.3806 13.7 97.864 15.3583 96.814 16.575C95.7806 17.775 94.3473 18.375 92.514 18.375C90.6973 18.375 89.3223 17.8333 88.389 16.75C87.4556 15.6667 86.9806 14.0833 86.964 12ZM113.696 18H108.496V17.8C108.496 17.0333 108.821 16.6167 109.471 16.55L110.346 16.5V10.225C110.346 8.25833 109.538 7.275 107.921 7.275C107.255 7.275 106.68 7.38333 106.196 7.6C105.713 7.8 105.196 8.14167 104.646 8.625V16.45L106.421 16.6C106.521 17.5333 106.205 18 105.471 18H100.221V17.8C100.221 17.4 100.28 17.1333 100.396 17C100.613 16.7333 100.888 16.5833 101.221 16.55L102.096 16.5V7.225L100.996 7.1C100.463 7.05 100.196 6.6 100.196 5.75L104.246 5.25L104.471 6.925H104.546C105.83 5.74167 107.113 5.15 108.396 5.15C109.68 5.15 110.746 5.56667 111.596 6.4C112.463 7.21667 112.896 8.49167 112.896 10.225V16.45L114.646 16.6C114.746 17.5333 114.43 18 113.696 18ZM125.304 0.949999H130.729C130.729 0.949999 130.729 1.01667 130.729 1.15C130.729 1.55 130.671 1.825 130.554 1.975C130.338 2.24167 130.063 2.39167 129.729 2.425L128.904 2.475V14.6C128.904 16.05 128.513 17.2417 127.729 18.175C126.946 19.1083 125.888 19.575 124.554 19.575C123.854 19.575 123.271 19.3917 122.804 19.025C122.354 18.6583 122.129 18.225 122.129 17.725C122.129 17.2083 122.271 16.8 122.554 16.5C122.838 16.1833 123.288 16.0333 123.904 16.05C123.938 17.1833 124.354 17.75 125.154 17.75C125.538 17.75 125.821 17.5417 126.004 17.125C126.188 16.6917 126.279 15.9167 126.279 14.8V2.525H126.254L124.354 2.375C124.254 1.425 124.571 0.949999 125.304 0.949999ZM143.877 17C143.877 17.9167 143.269 18.375 142.052 18.375C140.852 18.375 140.11 17.9167 139.827 17C138.744 17.9167 137.56 18.375 136.277 18.375C134.994 18.375 134.002 18.075 133.302 17.475C132.602 16.8583 132.252 16.0167 132.252 14.95C132.252 13.8833 132.652 13 133.452 12.3C134.269 11.6 135.577 11.25 137.377 11.25C138.16 11.25 138.927 11.3167 139.677 11.45V10.05C139.677 7.93333 138.852 6.875 137.202 6.875C136.535 6.875 136.002 7.1 135.602 7.55C135.219 8 135.01 8.56667 134.977 9.25C134.41 9.3 133.935 9.2 133.552 8.95C133.185 8.7 133.002 8.31667 133.002 7.8C133.002 7.03333 133.394 6.4 134.177 5.9C134.977 5.4 136.052 5.15 137.402 5.15C138.769 5.15 139.91 5.51667 140.827 6.25C141.76 6.98333 142.227 8.2 142.227 9.9V16.8L143.877 17ZM139.677 13.2C139.01 12.9167 138.277 12.775 137.477 12.775C136.694 12.775 136.077 12.9417 135.627 13.275C135.177 13.6083 134.952 14.0833 134.952 14.7C134.952 15.3 135.127 15.7667 135.477 16.1C135.827 16.4333 136.394 16.6 137.177 16.6C137.977 16.6 138.81 16.2917 139.677 15.675V13.2ZM166.469 18H161.244V17.8C161.244 17.0333 161.569 16.6167 162.219 16.55L163.044 16.5V10.3C163.044 9.25 162.819 8.49167 162.369 8.025C161.936 7.54167 161.244 7.3 160.294 7.3C159.361 7.3 158.394 7.75833 157.394 8.675C157.527 9.15833 157.594 9.70833 157.594 10.325V16.45L159.419 16.6C159.519 17.5333 159.194 18 158.444 18H153.194V17.8C153.194 17.0333 153.519 16.6167 154.169 16.55L155.044 16.5V10.3C155.044 8.3 154.186 7.3 152.469 7.3C151.519 7.3 150.544 7.73333 149.544 8.6V16.45L151.369 16.6C151.469 17.5333 151.152 18 150.419 18H145.144V17.8C145.144 17.0333 145.469 16.6167 146.119 16.55L146.994 16.5V7.2L145.969 7.125C145.386 7.075 145.094 6.61667 145.094 5.75L149.144 5.25L149.344 6.85H149.419C149.836 6.48333 150.169 6.2 150.419 6C150.686 5.8 151.077 5.60833 151.594 5.425C152.111 5.24167 152.686 5.15 153.319 5.15C153.969 5.15 154.619 5.325 155.269 5.675C155.936 6.00833 156.469 6.53333 156.869 7.25C158.236 5.85 159.652 5.15 161.119 5.15C162.352 5.15 163.402 5.575 164.269 6.425C165.152 7.25833 165.594 8.55833 165.594 10.325V16.45L167.419 16.6C167.519 17.5333 167.202 18 166.469 18ZM171.549 11.7V12.175C171.549 13.5583 171.815 14.6167 172.349 15.35C172.882 16.0833 173.765 16.45 174.999 16.45C176.249 16.45 177.44 16 178.574 15.1C178.857 15.3 178.999 15.6 178.999 16C178.999 16.5333 178.54 17.0667 177.624 17.6C176.707 18.1167 175.607 18.375 174.324 18.375C172.607 18.375 171.265 17.8583 170.299 16.825C169.349 15.775 168.874 14.1833 168.874 12.05C168.874 9.91667 169.415 8.23333 170.499 7C171.582 5.76667 172.94 5.15 174.574 5.15C176.224 5.15 177.424 5.64167 178.174 6.625C178.924 7.60833 179.29 8.85 179.274 10.35V11.7H171.549ZM174.499 6.875C172.982 6.875 172.049 7.98333 171.699 10.2H176.749C176.699 7.98333 175.949 6.875 174.499 6.875ZM181.058 8.8C181.058 7.66667 181.525 6.775 182.458 6.125C183.391 5.475 184.408 5.15 185.508 5.15C186.625 5.15 187.533 5.33333 188.233 5.7C188.95 6.05 189.308 6.60833 189.308 7.375C189.308 7.90833 189.133 8.31667 188.783 8.6C188.433 8.86667 188.008 8.96667 187.508 8.9C187.525 8.3 187.308 7.8 186.858 7.4C186.408 7 185.858 6.8 185.208 6.8C184.575 6.78333 184.066 6.90833 183.683 7.175C183.316 7.44167 183.133 7.79167 183.133 8.225C183.133 8.65833 183.366 9.025 183.833 9.325C184.316 9.625 184.983 9.95 185.833 10.3C186.7 10.6333 187.308 10.8917 187.658 11.075C188.008 11.2583 188.383 11.5 188.783 11.8C189.55 12.3667 189.925 13.2083 189.908 14.325C189.908 15.4417 189.45 16.4 188.533 17.2C187.633 18 186.408 18.3917 184.858 18.375C183.741 18.3583 182.758 18.1417 181.908 17.725C181.075 17.2917 180.658 16.675 180.658 15.875C180.675 15.3583 180.858 14.9583 181.208 14.675C181.558 14.3917 181.975 14.25 182.458 14.25C182.575 15.0167 182.883 15.6167 183.383 16.05C183.883 16.4833 184.508 16.7083 185.258 16.725C186.025 16.725 186.633 16.5833 187.083 16.3C187.533 16.0167 187.758 15.6083 187.758 15.075C187.758 14.525 187.558 14.1083 187.158 13.825C186.758 13.5417 186.166 13.25 185.383 12.95C184.6 12.6333 184.008 12.3833 183.608 12.2C183.208 12 182.791 11.7417 182.358 11.425C181.491 10.7917 181.058 9.91667 181.058 8.8Z" fill="black"/>
<path d="M30 18H196" stroke="black" stroke-width="1.5"/>
</svg>
