<svg width="297" height="42" viewBox="0 0 297 42" fill="none" xmlns="http://www.w3.org/2000/svg">
<path d="M92.25 22H88.8809C88.7832 22 88.7344 21.9512 88.7344 21.8535L88.793 1.24316C88.793 1.16504 88.832 1.12598 88.9102 1.12598H94.6816C96.5176 1.12598 97.9678 1.6875 99.0322 2.81055C100.106 3.92383 100.644 5.44238 100.644 7.36621C100.644 8.77246 100.365 9.99805 99.8086 11.043C99.2422 12.0781 98.5098 12.8789 97.6113 13.4453C96.7129 14.0117 95.7363 14.2949 94.6816 14.2949H92.3965V21.8535C92.3965 21.9512 92.3477 22 92.25 22ZM94.6816 4.68555L92.3965 4.71484V10.6621H94.6816C95.3164 10.6621 95.8682 10.3594 96.3369 9.75391C96.8057 9.13867 97.04 8.34277 97.04 7.36621C97.04 6.58496 96.8301 5.94531 96.4102 5.44727C95.9902 4.93945 95.4141 4.68555 94.6816 4.68555ZM101.435 21.8535L105.155 1.24316C105.175 1.16504 105.224 1.12598 105.302 1.12598H109.652C109.73 1.12598 109.779 1.16504 109.799 1.24316L113.373 21.8535C113.383 21.9512 113.344 22 113.256 22H109.931C109.833 22 109.779 21.9512 109.77 21.8535L109.447 19.6562H105.36L105.038 21.8535C105.028 21.9512 104.979 22 104.892 22H101.552C101.474 22 101.435 21.9512 101.435 21.8535ZM107.309 8.02539L105.961 16.4482H108.847L107.616 8.02539L107.44 6.91211L107.309 8.02539ZM118.764 22H115.395C115.297 22 115.248 21.9512 115.248 21.8535L115.307 1.24316C115.307 1.16504 115.346 1.12598 115.424 1.12598H121.195C123.031 1.12598 124.481 1.6875 125.546 2.81055C126.62 3.92383 127.157 5.44238 127.157 7.36621C127.157 8.77246 126.879 9.99805 126.322 11.043C125.756 12.0781 125.023 12.8789 124.125 13.4453C123.227 14.0117 122.25 14.2949 121.195 14.2949H118.91V21.8535C118.91 21.9512 118.861 22 118.764 22ZM121.195 4.68555L118.91 4.71484V10.6621H121.195C121.83 10.6621 122.382 10.3594 122.851 9.75391C123.319 9.13867 123.554 8.34277 123.554 7.36621C123.554 6.58496 123.344 5.94531 122.924 5.44727C122.504 4.93945 121.928 4.68555 121.195 4.68555ZM139.008 22H129.311C129.232 22 129.193 21.9512 129.193 21.8535L129.223 1.24316C129.223 1.16504 129.262 1.12598 129.34 1.12598H138.979C139.057 1.12598 139.096 1.1748 139.096 1.27246V4.62695C139.096 4.70508 139.057 4.74414 138.979 4.74414H132.826V9.43164H138.979C139.057 9.43164 139.096 9.4707 139.096 9.54883L139.125 12.9473C139.125 13.0254 139.086 13.0645 139.008 13.0645H132.826V18.3086H139.008C139.086 18.3086 139.125 18.3574 139.125 18.4551V21.8828C139.125 21.9609 139.086 22 139.008 22ZM145.307 22H141.908C141.83 22 141.791 21.9512 141.791 21.8535L141.85 1.24316C141.85 1.16504 141.889 1.12598 141.967 1.12598H148.031C149.115 1.12598 150.111 1.38965 151.02 1.91699C151.928 2.44434 152.65 3.15234 153.188 4.04102C153.734 4.92969 154.008 5.93555 154.008 7.05859C154.008 7.79102 153.896 8.45508 153.671 9.05078C153.446 9.64648 153.183 10.1494 152.88 10.5596C152.587 10.9697 152.318 11.2725 152.074 11.4678C153.158 12.6689 153.7 14.0801 153.7 15.7012L153.729 21.8535C153.729 21.9512 153.681 22 153.583 22H150.185C150.106 22 150.067 21.9707 150.067 21.9121V15.7012C150.067 14.9785 149.813 14.3535 149.306 13.8262C148.798 13.2988 148.173 13.0352 147.431 13.0352H145.453L145.424 21.8535C145.424 21.9512 145.385 22 145.307 22ZM148.031 4.71484H145.453V9.43164H148.031C148.646 9.43164 149.193 9.20215 149.672 8.74316C150.16 8.28418 150.404 7.72266 150.404 7.05859C150.404 6.42383 150.17 5.87695 149.701 5.41797C149.232 4.94922 148.676 4.71484 148.031 4.71484ZM161.757 22H156.381C156.303 22 156.264 21.9512 156.264 21.8535L156.322 1.24316C156.322 1.16504 156.361 1.12598 156.439 1.12598H162.211C163.334 1.12598 164.354 1.39941 165.272 1.94629C166.171 2.49316 166.879 3.2207 167.396 4.12891C167.914 5.02734 168.173 6.00391 168.173 7.05859C168.173 7.91797 167.978 8.71875 167.587 9.46094C167.196 10.2031 166.732 10.8037 166.195 11.2627C166.771 11.8389 167.221 12.5078 167.543 13.2695C167.865 14.0312 168.026 14.832 168.026 15.6719C168.026 16.834 167.748 17.8936 167.191 18.8506C166.625 19.8076 165.868 20.5742 164.921 21.1504C163.974 21.7168 162.919 22 161.757 22ZM162.211 4.68555H159.926V9.40234H162.211C162.904 9.40234 163.466 9.1582 163.896 8.66992C164.325 8.17188 164.54 7.63477 164.54 7.05859C164.54 6.42383 164.311 5.87207 163.852 5.40332C163.393 4.9248 162.846 4.68555 162.211 4.68555ZM161.757 13.0352H159.926L159.896 18.3379H161.757C162.479 18.3379 163.1 18.0742 163.617 17.5469C164.135 17.0195 164.394 16.3945 164.394 15.6719C164.394 14.9492 164.135 14.3291 163.617 13.8115C163.1 13.2939 162.479 13.0352 161.757 13.0352ZM169.169 21.8535L172.89 1.24316C172.909 1.16504 172.958 1.12598 173.036 1.12598H177.387C177.465 1.12598 177.514 1.16504 177.533 1.24316L181.107 21.8535C181.117 21.9512 181.078 22 180.99 22H177.665C177.567 22 177.514 21.9512 177.504 21.8535L177.182 19.6562H173.095L172.772 21.8535C172.763 21.9512 172.714 22 172.626 22H169.286C169.208 22 169.169 21.9512 169.169 21.8535ZM175.043 8.02539L173.695 16.4482H176.581L175.351 8.02539L175.175 6.91211L175.043 8.02539ZM188.505 22.293C187.421 22.293 186.43 22.0195 185.531 21.4727C184.643 20.9258 183.935 20.1934 183.407 19.2754C182.89 18.3477 182.631 17.3174 182.631 16.1846L182.66 6.82422C182.66 5.71094 182.914 4.70508 183.422 3.80664C183.93 2.89844 184.628 2.1709 185.517 1.62402C186.415 1.06738 187.411 0.789062 188.505 0.789062C189.618 0.789062 190.609 1.05762 191.479 1.59473C192.357 2.13184 193.056 2.85938 193.573 3.77734C194.101 4.68555 194.364 5.70117 194.364 6.82422V8.20117C194.364 8.2793 194.325 8.31836 194.247 8.31836H190.878C190.8 8.31836 190.761 8.2793 190.761 8.20117V6.82422C190.761 6.16016 190.546 5.58887 190.116 5.11035C189.687 4.63184 189.149 4.39258 188.505 4.39258C187.792 4.39258 187.245 4.63672 186.864 5.125C186.483 5.61328 186.293 6.17969 186.293 6.82422V16.1846C186.293 16.917 186.508 17.5176 186.938 17.9863C187.367 18.4453 187.89 18.6748 188.505 18.6748C189.149 18.6748 189.687 18.4209 190.116 17.9131C190.546 17.3955 190.761 16.8193 190.761 16.1846V14.793C190.761 14.7148 190.8 14.6758 190.878 14.6758H194.276C194.354 14.6758 194.394 14.7148 194.394 14.793V16.1846C194.394 17.3076 194.13 18.333 193.603 19.2607C193.065 20.1787 192.357 20.916 191.479 21.4727C190.6 22.0195 189.608 22.293 188.505 22.293ZM200.092 22H196.693C196.615 22 196.576 21.9512 196.576 21.8535L196.635 1.27246C196.635 1.1748 196.674 1.12598 196.752 1.12598H200.121C200.199 1.12598 200.238 1.1748 200.238 1.27246V8.37695L204.94 1.24316C205.019 1.16504 205.092 1.12598 205.16 1.12598H208.603C208.69 1.12598 208.71 1.16504 208.661 1.24316L203.476 9.51953L209.291 21.8828C209.34 21.9609 209.291 22 209.145 22H205.482C205.385 22 205.326 21.9609 205.307 21.8828L201.249 13.0645L200.209 14.7051V21.8535C200.209 21.9512 200.17 22 200.092 22ZM1.54688 40.0527C1.23047 40.0527 1.01367 39.9531 0.896484 39.7539C0.779297 39.5547 0.720703 39.3145 0.720703 39.0332V27.9238C0.720703 27.5371 0.855469 27.209 1.125 26.9395C1.39453 26.6582 1.72266 26.5176 2.10938 26.5176H7.57617C7.8457 26.5176 8.06836 26.5762 8.24414 26.6934C8.41992 26.7988 8.50781 26.998 8.50781 27.291C8.50781 27.584 8.41992 27.7891 8.24414 27.9062C8.06836 28.0117 7.8457 28.0645 7.57617 28.0645H3.09375C2.625 28.0645 2.39062 28.2988 2.39062 28.7676V32.3535H6.73242C7.00195 32.3535 7.22461 32.4121 7.40039 32.5293C7.57617 32.6348 7.66406 32.834 7.66406 33.127C7.66406 33.4199 7.57617 33.625 7.40039 33.7422C7.22461 33.8477 7.00195 33.9004 6.73242 33.9004H2.39062V39.0332C2.39062 39.3262 2.32617 39.5723 2.19727 39.7715C2.08008 39.959 1.86328 40.0527 1.54688 40.0527ZM13.6934 40.0703C12.7559 40.0703 11.9941 39.8418 11.4082 39.3848C10.8223 38.9277 10.3945 38.3301 10.125 37.5918C9.85547 36.8535 9.7207 36.0684 9.7207 35.2363C9.7207 34.627 9.78516 34.0352 9.91406 33.4609C10.0547 32.8867 10.2715 32.3711 10.5645 31.9141C10.8691 31.4453 11.2617 31.0762 11.7422 30.8066C12.2344 30.5371 12.8262 30.4023 13.5176 30.4023C14.3496 30.4023 15.041 30.5781 15.5918 30.9297C16.1543 31.2812 16.5762 31.7676 16.8574 32.3887C17.1387 32.998 17.2793 33.7012 17.2793 34.498C17.2793 35.2363 16.8984 35.6055 16.1367 35.6055H11.3555C11.3555 36.1328 11.4141 36.6367 11.5312 37.1172C11.6484 37.5859 11.8711 37.9727 12.1992 38.2773C12.5391 38.5703 13.0195 38.7168 13.6406 38.7168C14.1094 38.7168 14.4668 38.6465 14.7129 38.5059C14.9707 38.3535 15.1582 38.1719 15.2754 37.9609C15.4043 37.75 15.5098 37.5391 15.5918 37.3281C15.6855 37.1172 15.791 36.9414 15.9082 36.8008C16.0371 36.6484 16.2305 36.5723 16.4883 36.5723C16.7227 36.5723 16.9102 36.6309 17.0508 36.748C17.1914 36.8652 17.2617 37.0469 17.2617 37.293C17.2617 37.6562 17.1621 37.9961 16.9629 38.3125C16.7754 38.6172 16.5527 38.8926 16.2949 39.1387C15.9434 39.4668 15.5391 39.707 15.082 39.8594C14.6367 40 14.1738 40.0703 13.6934 40.0703ZM11.4082 34.2168H15.3984C15.5391 34.2168 15.6094 34.1523 15.6094 34.0234C15.6094 33.3906 15.4277 32.8574 15.0645 32.4238C14.7012 31.9785 14.1914 31.7559 13.5352 31.7559C13.043 31.7559 12.6445 31.873 12.3398 32.1074C12.0469 32.3301 11.8301 32.6289 11.6895 33.0039C11.5488 33.3789 11.4551 33.7832 11.4082 34.2168ZM19.6172 40.0527C19.3242 40.0527 19.1191 39.959 19.002 39.7715C18.8848 39.584 18.8262 39.3555 18.8262 39.0859V27.2383C18.8262 26.957 18.8848 26.7285 19.002 26.5527C19.1191 26.3652 19.3301 26.2715 19.6348 26.2715C19.9395 26.2715 20.1445 26.3652 20.25 26.5527C20.3672 26.7402 20.4258 26.9688 20.4258 27.2383V31.8613C20.7305 31.416 21.0879 31.0645 21.498 30.8066C21.9199 30.5371 22.4004 30.4023 22.9395 30.4023C23.5723 30.4023 24.1055 30.5488 24.5391 30.8418C24.9727 31.123 25.3242 31.5039 25.5938 31.9844C25.8633 32.4531 26.0566 32.9629 26.1738 33.5137C26.3027 34.0645 26.3672 34.6035 26.3672 35.1309C26.3672 35.6816 26.3145 36.2441 26.209 36.8184C26.1035 37.3926 25.9219 37.9258 25.6641 38.418C25.4062 38.9102 25.0547 39.3086 24.6094 39.6133C24.1758 39.9062 23.625 40.0527 22.957 40.0527C22.418 40.0527 21.9375 39.9297 21.5156 39.6836C21.0938 39.4375 20.7305 39.0918 20.4258 38.6465C20.4258 38.8574 20.4199 39.0742 20.4082 39.2969C20.3965 39.5078 20.3379 39.6895 20.2324 39.8418C20.127 39.9824 19.9219 40.0527 19.6172 40.0527ZM22.7461 38.6289C23.1914 38.6289 23.543 38.5176 23.8008 38.2949C24.0703 38.0605 24.2695 37.7617 24.3984 37.3984C24.5273 37.0352 24.6094 36.6543 24.6445 36.2559C24.6914 35.8574 24.7148 35.4941 24.7148 35.166C24.7148 34.8262 24.6914 34.4629 24.6445 34.0762C24.5977 33.6895 24.5039 33.3262 24.3633 32.9863C24.2344 32.6465 24.0352 32.3711 23.7656 32.1602C23.4961 31.9375 23.1387 31.8262 22.6934 31.8262C22.2949 31.8262 21.9199 31.9434 21.5684 32.1777C21.2285 32.4121 20.9531 32.7109 20.7422 33.0742C20.5312 33.4375 20.4258 33.8184 20.4258 34.2168V36.3438C20.4258 36.7539 20.5312 37.1348 20.7422 37.4863C20.9648 37.8262 21.252 38.1016 21.6035 38.3125C21.9668 38.5234 22.3477 38.6289 22.7461 38.6289ZM41.2031 40.0527C40.8867 40.0527 40.6641 39.9531 40.5352 39.7539C40.418 39.5547 40.3594 39.3086 40.3594 39.0156V28.7676C40.2539 28.8848 40.1191 29.0254 39.9551 29.1895C39.8027 29.3535 39.6328 29.5 39.4453 29.6289C39.2695 29.7461 39.0879 29.8047 38.9004 29.8047C38.3262 29.8047 38.0391 29.5234 38.0391 28.9609C38.0391 28.7617 38.1035 28.5977 38.2324 28.4688C38.3613 28.3398 38.502 28.2285 38.6543 28.1348C38.9824 27.9355 39.2871 27.6953 39.5684 27.4141C39.8496 27.1211 40.1191 26.8398 40.377 26.5703C40.5762 26.3711 40.8047 26.2715 41.0625 26.2715C41.7305 26.2715 42.0645 26.6113 42.0645 27.291V39.0156C42.0645 39.3086 42 39.5547 41.8711 39.7539C41.7539 39.9531 41.5312 40.0527 41.2031 40.0527ZM47.0215 39.8066C46.6699 39.8066 46.3828 39.7305 46.1602 39.5781C45.9375 39.4258 45.8262 39.1621 45.8262 38.7871C45.8262 38.5762 45.9609 38.2891 46.2305 37.9258C46.5 37.5625 46.8457 37.1406 47.2676 36.6602C47.6895 36.168 48.1348 35.6406 48.6035 35.0781C49.0723 34.5039 49.5176 33.918 49.9395 33.3203C50.3613 32.7109 50.707 32.1016 50.9766 31.4922C51.2461 30.8828 51.3809 30.2969 51.3809 29.7344C51.3809 29.3828 51.3164 29.0547 51.1875 28.75C51.0586 28.4336 50.8652 28.1758 50.6074 27.9766C50.3496 27.7773 50.0273 27.6777 49.6406 27.6777C49.1602 27.6777 48.8027 27.7773 48.5684 27.9766C48.334 28.1641 48.1641 28.4043 48.0586 28.6973C47.9648 28.9785 47.8828 29.2656 47.8125 29.5586C47.7539 29.8516 47.6543 30.0977 47.5137 30.2969C47.3848 30.4844 47.168 30.5781 46.8633 30.5781C46.2891 30.5781 46.002 30.291 46.002 29.7168C46.002 29.4824 46.0371 29.248 46.1074 29.0137C46.1895 28.7793 46.2773 28.5566 46.3711 28.3457C46.6992 27.6426 47.1445 27.1211 47.707 26.7812C48.2812 26.4297 48.9492 26.2539 49.7109 26.2539C50.3555 26.2539 50.9355 26.3887 51.4512 26.6582C51.9785 26.9277 52.3945 27.3086 52.6992 27.8008C53.0156 28.2812 53.1738 28.8555 53.1738 29.5234C53.1738 30.1094 53.0391 30.7305 52.7695 31.3867C52.5117 32.0312 52.1719 32.6875 51.75 33.3555C51.3281 34.0117 50.8711 34.6504 50.3789 35.2715C49.8867 35.8926 49.4062 36.4727 48.9375 37.0117C48.4805 37.5391 48.082 38.002 47.7422 38.4004H52.3125C52.5586 38.4004 52.7637 38.4531 52.9277 38.5586C53.0918 38.6523 53.1738 38.834 53.1738 39.1035C53.1738 39.373 53.0918 39.5605 52.9277 39.666C52.7637 39.7598 52.5586 39.8066 52.3125 39.8066H47.0215ZM55.4941 41.4414C55.2129 41.4414 55.0723 41.2949 55.0723 41.002C55.0723 40.8965 55.1426 40.7852 55.2832 40.668C55.4238 40.5625 55.582 40.4395 55.7578 40.2988C55.9336 40.1699 56.0918 40.0234 56.2324 39.8594C56.373 39.6953 56.4434 39.5137 56.4434 39.3145C56.4434 39.291 56.4375 39.2617 56.4258 39.2266C56.4141 39.1914 56.3906 39.1797 56.3555 39.1914C55.9219 39.2617 55.5762 39.1973 55.3184 38.998C55.0723 38.7871 54.9492 38.4648 54.9492 38.0312C54.9492 37.2227 55.3711 36.8184 56.2148 36.8184C56.7188 36.8184 57.0703 36.9707 57.2695 37.2754C57.4688 37.5684 57.5684 37.9492 57.5684 38.418C57.5684 39.2266 57.3047 39.9297 56.7773 40.5273C56.6484 40.6797 56.4609 40.8672 56.2148 41.0898C55.9688 41.3242 55.7285 41.4414 55.4941 41.4414ZM74.0215 39.8066C73.6699 39.8066 73.3828 39.7305 73.1602 39.5781C72.9375 39.4258 72.8262 39.1621 72.8262 38.7871C72.8262 38.5762 72.9609 38.2891 73.2305 37.9258C73.5 37.5625 73.8457 37.1406 74.2676 36.6602C74.6895 36.168 75.1348 35.6406 75.6035 35.0781C76.0723 34.5039 76.5176 33.918 76.9395 33.3203C77.3613 32.7109 77.707 32.1016 77.9766 31.4922C78.2461 30.8828 78.3809 30.2969 78.3809 29.7344C78.3809 29.3828 78.3164 29.0547 78.1875 28.75C78.0586 28.4336 77.8652 28.1758 77.6074 27.9766C77.3496 27.7773 77.0273 27.6777 76.6406 27.6777C76.1602 27.6777 75.8027 27.7773 75.5684 27.9766C75.334 28.1641 75.1641 28.4043 75.0586 28.6973C74.9648 28.9785 74.8828 29.2656 74.8125 29.5586C74.7539 29.8516 74.6543 30.0977 74.5137 30.2969C74.3848 30.4844 74.168 30.5781 73.8633 30.5781C73.2891 30.5781 73.002 30.291 73.002 29.7168C73.002 29.4824 73.0371 29.248 73.1074 29.0137C73.1895 28.7793 73.2773 28.5566 73.3711 28.3457C73.6992 27.6426 74.1445 27.1211 74.707 26.7812C75.2812 26.4297 75.9492 26.2539 76.7109 26.2539C77.3555 26.2539 77.9355 26.3887 78.4512 26.6582C78.9785 26.9277 79.3945 27.3086 79.6992 27.8008C80.0156 28.2812 80.1738 28.8555 80.1738 29.5234C80.1738 30.1094 80.0391 30.7305 79.7695 31.3867C79.5117 32.0312 79.1719 32.6875 78.75 33.3555C78.3281 34.0117 77.8711 34.6504 77.3789 35.2715C76.8867 35.8926 76.4062 36.4727 75.9375 37.0117C75.4805 37.5391 75.082 38.002 74.7422 38.4004H79.3125C79.5586 38.4004 79.7637 38.4531 79.9277 38.5586C80.0918 38.6523 80.1738 38.834 80.1738 39.1035C80.1738 39.373 80.0918 39.5605 79.9277 39.666C79.7637 39.7598 79.5586 39.8066 79.3125 39.8066H74.0215ZM85.5 40.0527C84.7969 40.0527 84.2109 39.9062 83.7422 39.6133C83.2852 39.3086 82.9219 38.9102 82.6523 38.418C82.3945 37.9258 82.2012 37.3809 82.0723 36.7832C81.9434 36.1855 81.8613 35.582 81.8262 34.9727C81.791 34.3516 81.7734 33.7773 81.7734 33.25C81.7734 32.7227 81.791 32.1484 81.8262 31.5273C81.873 30.8945 81.9551 30.2734 82.0723 29.6641C82.2012 29.043 82.3828 28.4922 82.6172 28.0117C82.9219 27.3906 83.3203 26.9453 83.8125 26.6758C84.3047 26.4062 84.8906 26.2715 85.5703 26.2715C86.2617 26.2715 86.8359 26.4238 87.293 26.7285C87.7617 27.0215 88.1426 27.4785 88.4355 28.0996C88.6582 28.5684 88.8223 29.1016 88.9277 29.6992C89.0449 30.2969 89.1211 30.9004 89.1562 31.5098C89.2031 32.1191 89.2266 32.6816 89.2266 33.1973C89.2266 33.7246 89.209 34.2988 89.1738 34.9199C89.1387 35.5293 89.0566 36.1387 88.9277 36.748C88.8105 37.3457 88.6172 37.8965 88.3477 38.4004C88.0898 38.8926 87.7266 39.291 87.2578 39.5957C86.8008 39.9004 86.2148 40.0527 85.5 40.0527ZM85.5 38.6289C85.9102 38.6289 86.2383 38.4824 86.4844 38.1895C86.7422 37.8965 86.9414 37.5215 87.082 37.0645C87.2227 36.6074 87.3223 36.127 87.3809 35.623C87.4512 35.1074 87.4922 34.627 87.5039 34.1816C87.5156 33.7363 87.5215 33.3848 87.5215 33.127C87.5215 32.8691 87.5156 32.5176 87.5039 32.0723C87.4922 31.627 87.4512 31.1582 87.3809 30.666C87.3223 30.1621 87.2168 29.6875 87.0645 29.2422C86.9238 28.7852 86.7246 28.416 86.4668 28.1348C86.209 27.8418 85.875 27.6953 85.4648 27.6953C85.0664 27.6953 84.7383 27.8418 84.4805 28.1348C84.2344 28.4277 84.041 28.8027 83.9004 29.2598C83.7598 29.7168 83.6602 30.1973 83.6016 30.7012C83.543 31.2051 83.5078 31.6797 83.4961 32.125C83.4844 32.5703 83.4785 32.916 83.4785 33.1621C83.4785 33.4199 83.4844 33.7715 83.4961 34.2168C83.5078 34.6621 83.543 35.1367 83.6016 35.6406C83.6719 36.1445 83.7773 36.625 83.918 37.082C84.0586 37.5391 84.2578 37.9141 84.5156 38.207C84.7734 38.4883 85.1016 38.6289 85.5 38.6289ZM94.5 40.0527C93.7969 40.0527 93.2109 39.9062 92.7422 39.6133C92.2852 39.3086 91.9219 38.9102 91.6523 38.418C91.3945 37.9258 91.2012 37.3809 91.0723 36.7832C90.9434 36.1855 90.8613 35.582 90.8262 34.9727C90.791 34.3516 90.7734 33.7773 90.7734 33.25C90.7734 32.7227 90.791 32.1484 90.8262 31.5273C90.873 30.8945 90.9551 30.2734 91.0723 29.6641C91.2012 29.043 91.3828 28.4922 91.6172 28.0117C91.9219 27.3906 92.3203 26.9453 92.8125 26.6758C93.3047 26.4062 93.8906 26.2715 94.5703 26.2715C95.2617 26.2715 95.8359 26.4238 96.293 26.7285C96.7617 27.0215 97.1426 27.4785 97.4355 28.0996C97.6582 28.5684 97.8223 29.1016 97.9277 29.6992C98.0449 30.2969 98.1211 30.9004 98.1562 31.5098C98.2031 32.1191 98.2266 32.6816 98.2266 33.1973C98.2266 33.7246 98.209 34.2988 98.1738 34.9199C98.1387 35.5293 98.0566 36.1387 97.9277 36.748C97.8105 37.3457 97.6172 37.8965 97.3477 38.4004C97.0898 38.8926 96.7266 39.291 96.2578 39.5957C95.8008 39.9004 95.2148 40.0527 94.5 40.0527ZM94.5 38.6289C94.9102 38.6289 95.2383 38.4824 95.4844 38.1895C95.7422 37.8965 95.9414 37.5215 96.082 37.0645C96.2227 36.6074 96.3223 36.127 96.3809 35.623C96.4512 35.1074 96.4922 34.627 96.5039 34.1816C96.5156 33.7363 96.5215 33.3848 96.5215 33.127C96.5215 32.8691 96.5156 32.5176 96.5039 32.0723C96.4922 31.627 96.4512 31.1582 96.3809 30.666C96.3223 30.1621 96.2168 29.6875 96.0645 29.2422C95.9238 28.7852 95.7246 28.416 95.4668 28.1348C95.209 27.8418 94.875 27.6953 94.4648 27.6953C94.0664 27.6953 93.7383 27.8418 93.4805 28.1348C93.2344 28.4277 93.041 28.8027 92.9004 29.2598C92.7598 29.7168 92.6602 30.1973 92.6016 30.7012C92.543 31.2051 92.5078 31.6797 92.4961 32.125C92.4844 32.5703 92.4785 32.916 92.4785 33.1621C92.4785 33.4199 92.4844 33.7715 92.4961 34.2168C92.5078 34.6621 92.543 35.1367 92.6016 35.6406C92.6719 36.1445 92.7773 36.625 92.918 37.082C93.0586 37.5391 93.2578 37.9141 93.5156 38.207C93.7734 38.4883 94.1016 38.6289 94.5 38.6289ZM102.99 40.0527C102.369 40.0527 101.818 39.918 101.338 39.6484C100.869 39.3672 100.494 38.9453 100.213 38.3828C100.131 38.2188 100.049 38.0371 99.9668 37.8379C99.8965 37.6387 99.8613 37.4453 99.8613 37.2578C99.8613 36.7188 100.137 36.4492 100.688 36.4492C100.957 36.4492 101.15 36.5254 101.268 36.6777C101.385 36.8301 101.479 37.0176 101.549 37.2402C101.619 37.4629 101.695 37.6914 101.777 37.9258C101.871 38.1484 102.012 38.3359 102.199 38.4883C102.387 38.6406 102.668 38.7168 103.043 38.7168C103.453 38.7168 103.799 38.6055 104.08 38.3828C104.361 38.1484 104.59 37.8496 104.766 37.4863C104.941 37.1113 105.076 36.7129 105.17 36.291C105.275 35.8574 105.352 35.4414 105.398 35.043C105.445 34.6328 105.475 34.2812 105.486 33.9883C105.146 34.4219 104.748 34.7793 104.291 35.0605C103.846 35.3301 103.336 35.4648 102.762 35.4648C102.176 35.4648 101.689 35.3301 101.303 35.0605C100.916 34.7793 100.611 34.416 100.389 33.9707C100.166 33.5137 100.008 33.0273 99.9141 32.5117C99.8203 31.9961 99.7734 31.5039 99.7734 31.0352C99.7734 30.4609 99.8379 29.8926 99.9668 29.3301C100.096 28.7676 100.301 28.2578 100.582 27.8008C100.875 27.332 101.25 26.9629 101.707 26.6934C102.176 26.4121 102.744 26.2715 103.412 26.2715C104.092 26.2715 104.66 26.4121 105.117 26.6934C105.574 26.9629 105.943 27.332 106.225 27.8008C106.506 28.2695 106.717 28.791 106.857 29.3652C106.998 29.9277 107.092 30.502 107.139 31.0879C107.197 31.6738 107.227 32.2246 107.227 32.7402C107.227 33.3145 107.197 33.9355 107.139 34.6035C107.092 35.2598 106.986 35.9102 106.822 36.5547C106.67 37.1992 106.436 37.7852 106.119 38.3125C105.814 38.8398 105.404 39.2617 104.889 39.5781C104.385 39.8945 103.752 40.0527 102.99 40.0527ZM103.131 34.1289C103.447 34.1289 103.77 34.0293 104.098 33.8301C104.426 33.6309 104.719 33.3848 104.977 33.0918C105.234 32.7988 105.416 32.5176 105.521 32.248C105.521 31.9785 105.51 31.6445 105.486 31.2461C105.475 30.8477 105.434 30.4434 105.363 30.0332C105.293 29.6113 105.182 29.2188 105.029 28.8555C104.877 28.4805 104.672 28.1816 104.414 27.959C104.156 27.7246 103.828 27.6074 103.43 27.6074C102.996 27.6074 102.65 27.7188 102.393 27.9414C102.135 28.1641 101.936 28.4512 101.795 28.8027C101.666 29.1426 101.578 29.5059 101.531 29.8926C101.496 30.2793 101.479 30.6367 101.479 30.9648C101.479 31.2461 101.49 31.5684 101.514 31.9316C101.549 32.2832 101.619 32.6289 101.725 32.9688C101.83 33.2969 101.994 33.5723 102.217 33.7949C102.439 34.0176 102.744 34.1289 103.131 34.1289ZM121.5 41.4414C121.266 41.4414 121.102 41.3652 121.008 41.2129C120.914 41.0605 120.867 40.8789 120.867 40.668V25.6562C120.867 25.4453 120.914 25.2637 121.008 25.1113C121.102 24.959 121.266 24.8828 121.5 24.8828C121.734 24.8828 121.898 24.959 121.992 25.1113C122.086 25.2637 122.133 25.4453 122.133 25.6562V40.668C122.133 40.8789 122.086 41.0605 121.992 41.2129C121.898 41.3652 121.734 41.4414 121.5 41.4414ZM139.482 40.0527C139.154 40.0527 138.926 39.9531 138.797 39.7539C138.68 39.543 138.621 39.291 138.621 38.998V27.3262C138.621 27.0215 138.686 26.7695 138.814 26.5703C138.943 26.3711 139.172 26.2715 139.5 26.2715C139.828 26.2715 140.051 26.3711 140.168 26.5703C140.297 26.7695 140.361 27.0215 140.361 27.3262V38.998C140.361 39.291 140.297 39.543 140.168 39.7539C140.039 39.9531 139.811 40.0527 139.482 40.0527ZM148.605 40.0527C147.855 40.0527 147.182 39.9062 146.584 39.6133C145.986 39.3086 145.5 38.8164 145.125 38.1367C144.973 37.8672 144.844 37.5859 144.738 37.293C144.645 36.9883 144.598 36.6777 144.598 36.3613C144.598 35.7637 144.891 35.4648 145.477 35.4648C145.746 35.4648 145.945 35.541 146.074 35.6934C146.203 35.834 146.303 36.0215 146.373 36.2559C146.443 36.4902 146.514 36.7422 146.584 37.0117C146.654 37.2695 146.76 37.5156 146.9 37.75C147.041 37.9844 147.246 38.1777 147.516 38.3301C147.797 38.4707 148.172 38.541 148.641 38.541C149.285 38.541 149.789 38.3184 150.152 37.873C150.516 37.416 150.697 36.8828 150.697 36.2734C150.697 35.7812 150.586 35.3711 150.363 35.043C150.152 34.7148 149.871 34.4395 149.52 34.2168C149.168 33.9824 148.781 33.7715 148.359 33.584C147.938 33.3965 147.51 33.2031 147.076 33.0039C146.654 32.793 146.268 32.5527 145.916 32.2832C145.564 32.002 145.277 31.6562 145.055 31.2461C144.844 30.8242 144.738 30.3086 144.738 29.6992C144.738 28.9844 144.896 28.375 145.213 27.8711C145.529 27.3555 145.957 26.9629 146.496 26.6934C147.047 26.4121 147.662 26.2715 148.342 26.2715C148.951 26.2715 149.543 26.4004 150.117 26.6582C150.691 26.9043 151.166 27.2676 151.541 27.748C151.928 28.2168 152.121 28.7852 152.121 29.4531C152.121 30.0156 151.84 30.2969 151.277 30.2969C150.996 30.2969 150.785 30.2148 150.645 30.0508C150.516 29.875 150.404 29.6641 150.311 29.418C150.229 29.1602 150.123 28.9082 149.994 28.6621C149.877 28.416 149.689 28.2109 149.432 28.0469C149.174 27.8711 148.805 27.7832 148.324 27.7832C147.703 27.7832 147.223 27.9355 146.883 28.2402C146.555 28.5449 146.391 29.0137 146.391 29.6465C146.391 30.0566 146.496 30.4023 146.707 30.6836C146.93 30.9531 147.217 31.1934 147.568 31.4043C147.932 31.6035 148.324 31.7969 148.746 31.9844C149.18 32.1602 149.607 32.3594 150.029 32.582C150.463 32.793 150.855 33.0566 151.207 33.373C151.57 33.6777 151.857 34.0586 152.068 34.5156C152.291 34.9727 152.402 35.5352 152.402 36.2031C152.402 37.375 152.062 38.3125 151.383 39.0156C150.715 39.707 149.789 40.0527 148.605 40.0527ZM155.285 39.8066C154.852 39.8066 154.482 39.6602 154.178 39.3672C153.873 39.0625 153.721 38.6934 153.721 38.2598V28.0645C153.721 27.6426 153.873 27.2793 154.178 26.9746C154.494 26.6699 154.863 26.5176 155.285 26.5176H156.955C157.705 26.5176 158.391 26.5996 159.012 26.7637C159.633 26.916 160.131 27.2207 160.506 27.6777C160.881 28.123 161.068 28.791 161.068 29.6816C161.068 30.4668 160.875 31.1289 160.488 31.668C160.102 32.1953 159.545 32.5938 158.818 32.8633C159.674 33.1094 160.318 33.5137 160.752 34.0762C161.197 34.627 161.42 35.3535 161.42 36.2559C161.42 37.0293 161.244 37.6797 160.893 38.207C160.553 38.7344 160.084 39.1328 159.486 39.4023C158.9 39.6719 158.238 39.8066 157.5 39.8066H155.285ZM155.373 32.1602H156.832C157.594 32.1602 158.209 31.9844 158.678 31.6328C159.158 31.2695 159.398 30.6895 159.398 29.8926C159.398 29.1426 159.205 28.6445 158.818 28.3984C158.432 28.1406 157.893 28.0117 157.201 28.0117H156.059C155.848 28.0117 155.678 28.0762 155.549 28.2051C155.432 28.334 155.373 28.5039 155.373 28.7148V32.1602ZM156.076 38.3125H156.99C157.518 38.3125 157.986 38.2422 158.396 38.1016C158.818 37.9609 159.146 37.7266 159.381 37.3984C159.627 37.0586 159.75 36.6016 159.75 36.0273C159.75 35.4297 159.621 34.9609 159.363 34.6211C159.117 34.2695 158.777 34.0234 158.344 33.8828C157.922 33.7305 157.441 33.6543 156.902 33.6543H155.373V37.6094C155.373 38.0781 155.607 38.3125 156.076 38.3125ZM163.512 40.0527C163.219 40.0527 163.014 39.959 162.896 39.7715C162.779 39.584 162.721 39.3555 162.721 39.0859V27.502C162.721 27.1621 162.791 26.875 162.932 26.6406C163.072 26.3945 163.33 26.2715 163.705 26.2715C163.975 26.2715 164.191 26.3652 164.355 26.5527C164.52 26.7285 164.643 26.9277 164.725 27.1504L168.68 36.8184V27.2559C168.68 26.9863 168.738 26.7578 168.855 26.5703C168.973 26.3711 169.178 26.2715 169.471 26.2715C169.775 26.2715 169.986 26.3711 170.104 26.5703C170.221 26.7578 170.279 26.9863 170.279 27.2559V38.8047C170.279 39.1445 170.209 39.4375 170.068 39.6836C169.928 39.9297 169.664 40.0527 169.277 40.0527C169.008 40.0527 168.785 39.959 168.609 39.7715C168.445 39.584 168.316 39.3789 168.223 39.1562L164.32 29.5762V39.0859C164.32 39.3672 164.262 39.6016 164.145 39.7891C164.027 39.9648 163.816 40.0527 163.512 40.0527ZM183.99 40.0527C183.369 40.0527 182.818 39.918 182.338 39.6484C181.869 39.3672 181.494 38.9453 181.213 38.3828C181.131 38.2188 181.049 38.0371 180.967 37.8379C180.896 37.6387 180.861 37.4453 180.861 37.2578C180.861 36.7188 181.137 36.4492 181.688 36.4492C181.957 36.4492 182.15 36.5254 182.268 36.6777C182.385 36.8301 182.479 37.0176 182.549 37.2402C182.619 37.4629 182.695 37.6914 182.777 37.9258C182.871 38.1484 183.012 38.3359 183.199 38.4883C183.387 38.6406 183.668 38.7168 184.043 38.7168C184.453 38.7168 184.799 38.6055 185.08 38.3828C185.361 38.1484 185.59 37.8496 185.766 37.4863C185.941 37.1113 186.076 36.7129 186.17 36.291C186.275 35.8574 186.352 35.4414 186.398 35.043C186.445 34.6328 186.475 34.2812 186.486 33.9883C186.146 34.4219 185.748 34.7793 185.291 35.0605C184.846 35.3301 184.336 35.4648 183.762 35.4648C183.176 35.4648 182.689 35.3301 182.303 35.0605C181.916 34.7793 181.611 34.416 181.389 33.9707C181.166 33.5137 181.008 33.0273 180.914 32.5117C180.82 31.9961 180.773 31.5039 180.773 31.0352C180.773 30.4609 180.838 29.8926 180.967 29.3301C181.096 28.7676 181.301 28.2578 181.582 27.8008C181.875 27.332 182.25 26.9629 182.707 26.6934C183.176 26.4121 183.744 26.2715 184.412 26.2715C185.092 26.2715 185.66 26.4121 186.117 26.6934C186.574 26.9629 186.943 27.332 187.225 27.8008C187.506 28.2695 187.717 28.791 187.857 29.3652C187.998 29.9277 188.092 30.502 188.139 31.0879C188.197 31.6738 188.227 32.2246 188.227 32.7402C188.227 33.3145 188.197 33.9355 188.139 34.6035C188.092 35.2598 187.986 35.9102 187.822 36.5547C187.67 37.1992 187.436 37.7852 187.119 38.3125C186.814 38.8398 186.404 39.2617 185.889 39.5781C185.385 39.8945 184.752 40.0527 183.99 40.0527ZM184.131 34.1289C184.447 34.1289 184.77 34.0293 185.098 33.8301C185.426 33.6309 185.719 33.3848 185.977 33.0918C186.234 32.7988 186.416 32.5176 186.521 32.248C186.521 31.9785 186.51 31.6445 186.486 31.2461C186.475 30.8477 186.434 30.4434 186.363 30.0332C186.293 29.6113 186.182 29.2188 186.029 28.8555C185.877 28.4805 185.672 28.1816 185.414 27.959C185.156 27.7246 184.828 27.6074 184.43 27.6074C183.996 27.6074 183.65 27.7188 183.393 27.9414C183.135 28.1641 182.936 28.4512 182.795 28.8027C182.666 29.1426 182.578 29.5059 182.531 29.8926C182.496 30.2793 182.479 30.6367 182.479 30.9648C182.479 31.2461 182.49 31.5684 182.514 31.9316C182.549 32.2832 182.619 32.6289 182.725 32.9688C182.83 33.2969 182.994 33.5723 183.217 33.7949C183.439 34.0176 183.744 34.1289 184.131 34.1289ZM191.812 40.0703C191.273 40.0703 191.004 39.8184 191.004 39.3145C191.004 39.2207 191.016 39.1387 191.039 39.0684C191.062 38.9863 191.086 38.9043 191.109 38.8223C191.156 38.7051 191.262 38.4355 191.426 38.0137C191.59 37.5801 191.789 37.0469 192.023 36.4141C192.27 35.7812 192.527 35.1074 192.797 34.3926C193.078 33.666 193.354 32.9512 193.623 32.248C193.893 31.5332 194.139 30.8828 194.361 30.2969C194.584 29.6992 194.76 29.2188 194.889 28.8555C195.029 28.4922 195.1 28.3047 195.1 28.293C195.1 28.1992 195.07 28.1406 195.012 28.1172C194.953 28.082 194.883 28.0645 194.801 28.0645H190.758C190.5 28.0645 190.277 28.0117 190.09 27.9062C189.902 27.7891 189.809 27.584 189.809 27.291C189.809 26.998 189.902 26.7988 190.09 26.6934C190.277 26.5762 190.5 26.5176 190.758 26.5176H195.979C196.717 26.5176 197.086 26.8691 197.086 27.5723C197.086 27.6777 197.074 27.7773 197.051 27.8711C197.027 27.9648 196.998 28.0586 196.963 28.1523L192.691 39.2969C192.609 39.4961 192.498 39.6777 192.357 39.8418C192.229 39.9941 192.047 40.0703 191.812 40.0703ZM202.518 40.0527C201.732 40.0527 201.041 39.9004 200.443 39.5957C199.857 39.2793 199.395 38.834 199.055 38.2598C198.727 37.6855 198.562 37 198.562 36.2031C198.562 35.3359 198.773 34.6152 199.195 34.041C199.617 33.4551 200.227 33.0098 201.023 32.7051C200.344 32.4355 199.816 32.0547 199.441 31.5625C199.078 31.0586 198.896 30.4316 198.896 29.6816C198.896 28.9785 199.055 28.375 199.371 27.8711C199.699 27.3555 200.133 26.9629 200.672 26.6934C201.223 26.4121 201.832 26.2715 202.5 26.2715C203.18 26.2715 203.789 26.4121 204.328 26.6934C204.867 26.9746 205.295 27.373 205.611 27.8887C205.939 28.3926 206.104 28.9902 206.104 29.6816C206.104 31.1582 205.4 32.166 203.994 32.7051C204.791 33.0098 205.4 33.4551 205.822 34.041C206.244 34.6152 206.455 35.3359 206.455 36.2031C206.455 37.3984 206.092 38.3418 205.365 39.0332C204.65 39.7129 203.701 40.0527 202.518 40.0527ZM202.5 31.9316C203.121 31.9316 203.613 31.7207 203.977 31.2988C204.34 30.877 204.521 30.3672 204.521 29.7695C204.521 28.3633 203.836 27.6602 202.465 27.6602C201.773 27.6602 201.27 27.8477 200.953 28.2227C200.637 28.5977 200.479 29.1191 200.479 29.7871C200.479 30.3848 200.66 30.8945 201.023 31.3164C201.398 31.7266 201.891 31.9316 202.5 31.9316ZM202.5 38.6641C203.332 38.6641 203.924 38.4297 204.275 37.9609C204.627 37.4805 204.803 36.8477 204.803 36.0625C204.803 35.5938 204.709 35.1602 204.521 34.7617C204.346 34.3633 204.082 34.041 203.73 33.7949C203.391 33.5488 202.969 33.4258 202.465 33.4258C201.961 33.4258 201.539 33.5547 201.199 33.8125C200.871 34.0703 200.625 34.4102 200.461 34.832C200.297 35.2422 200.215 35.6758 200.215 36.1328C200.215 36.9062 200.391 37.5215 200.742 37.9785C201.094 38.4355 201.68 38.6641 202.5 38.6641ZM211.5 40.0527C210.797 40.0527 210.211 39.9062 209.742 39.6133C209.285 39.3086 208.922 38.9102 208.652 38.418C208.395 37.9258 208.201 37.3809 208.072 36.7832C207.943 36.1855 207.861 35.582 207.826 34.9727C207.791 34.3516 207.773 33.7773 207.773 33.25C207.773 32.7227 207.791 32.1484 207.826 31.5273C207.873 30.8945 207.955 30.2734 208.072 29.6641C208.201 29.043 208.383 28.4922 208.617 28.0117C208.922 27.3906 209.32 26.9453 209.812 26.6758C210.305 26.4062 210.891 26.2715 211.57 26.2715C212.262 26.2715 212.836 26.4238 213.293 26.7285C213.762 27.0215 214.143 27.4785 214.436 28.0996C214.658 28.5684 214.822 29.1016 214.928 29.6992C215.045 30.2969 215.121 30.9004 215.156 31.5098C215.203 32.1191 215.227 32.6816 215.227 33.1973C215.227 33.7246 215.209 34.2988 215.174 34.9199C215.139 35.5293 215.057 36.1387 214.928 36.748C214.811 37.3457 214.617 37.8965 214.348 38.4004C214.09 38.8926 213.727 39.291 213.258 39.5957C212.801 39.9004 212.215 40.0527 211.5 40.0527ZM211.5 38.6289C211.91 38.6289 212.238 38.4824 212.484 38.1895C212.742 37.8965 212.941 37.5215 213.082 37.0645C213.223 36.6074 213.322 36.127 213.381 35.623C213.451 35.1074 213.492 34.627 213.504 34.1816C213.516 33.7363 213.521 33.3848 213.521 33.127C213.521 32.8691 213.516 32.5176 213.504 32.0723C213.492 31.627 213.451 31.1582 213.381 30.666C213.322 30.1621 213.217 29.6875 213.064 29.2422C212.924 28.7852 212.725 28.416 212.467 28.1348C212.209 27.8418 211.875 27.6953 211.465 27.6953C211.066 27.6953 210.738 27.8418 210.48 28.1348C210.234 28.4277 210.041 28.8027 209.9 29.2598C209.76 29.7168 209.66 30.1973 209.602 30.7012C209.543 31.2051 209.508 31.6797 209.496 32.125C209.484 32.5703 209.479 32.916 209.479 33.1621C209.479 33.4199 209.484 33.7715 209.496 34.2168C209.508 34.6621 209.543 35.1367 209.602 35.6406C209.672 36.1445 209.777 36.625 209.918 37.082C210.059 37.5391 210.258 37.9141 210.516 38.207C210.773 38.4883 211.102 38.6289 211.5 38.6289ZM220.359 40.0527C219.855 40.0527 219.381 39.9766 218.936 39.8242C218.49 39.6719 218.086 39.4141 217.723 39.0508C217.441 38.7695 217.201 38.4531 217.002 38.1016C216.814 37.75 216.721 37.3691 216.721 36.959C216.721 36.3848 217.02 36.0977 217.617 36.0977C217.863 36.0977 218.045 36.1855 218.162 36.3613C218.291 36.5371 218.396 36.7539 218.479 37.0117C218.561 37.2695 218.666 37.5332 218.795 37.8027C218.924 38.0605 219.111 38.2773 219.357 38.4531C219.604 38.6289 219.949 38.7168 220.395 38.7168C220.887 38.7168 221.297 38.5879 221.625 38.3301C221.953 38.0723 222.199 37.7441 222.363 37.3457C222.527 36.9355 222.609 36.5137 222.609 36.0801C222.609 35.3652 222.475 34.8262 222.205 34.4629C221.947 34.0996 221.578 33.8535 221.098 33.7246C220.629 33.5957 220.078 33.5312 219.445 33.5312C219.211 33.5312 219.041 33.4668 218.936 33.3379C218.83 33.1973 218.777 33.0156 218.777 32.793C218.777 32.3125 219.006 32.0723 219.463 32.0723C219.615 32.0723 219.768 32.0781 219.92 32.0898C220.072 32.1016 220.225 32.1074 220.377 32.1074C221.115 32.1191 221.637 31.9023 221.941 31.457C222.258 31.0117 222.416 30.4492 222.416 29.7695C222.416 29.1484 222.287 28.6328 222.029 28.2227C221.771 27.8125 221.297 27.6074 220.605 27.6074C220.184 27.6074 219.867 27.6953 219.656 27.8711C219.445 28.0352 219.287 28.2402 219.182 28.4863C219.076 28.7324 218.982 28.9785 218.9 29.2246C218.83 29.4707 218.73 29.6816 218.602 29.8574C218.473 30.0215 218.268 30.1035 217.986 30.1035C217.471 30.1035 217.213 29.8516 217.213 29.3477C217.213 28.7148 217.377 28.1699 217.705 27.7129C218.033 27.2559 218.455 26.9043 218.971 26.6582C219.498 26.4004 220.055 26.2715 220.641 26.2715C221.66 26.2715 222.486 26.5703 223.119 27.168C223.764 27.7656 224.086 28.5859 224.086 29.6289C224.086 30.4141 223.91 31.0762 223.559 31.6152C223.219 32.1543 222.674 32.5645 221.924 32.8457C223.494 33.373 224.279 34.4863 224.279 36.1855C224.279 37.3809 223.922 38.3242 223.207 39.0156C222.492 39.707 221.543 40.0527 220.359 40.0527ZM228.99 40.0527C228.369 40.0527 227.818 39.918 227.338 39.6484C226.869 39.3672 226.494 38.9453 226.213 38.3828C226.131 38.2188 226.049 38.0371 225.967 37.8379C225.896 37.6387 225.861 37.4453 225.861 37.2578C225.861 36.7188 226.137 36.4492 226.688 36.4492C226.957 36.4492 227.15 36.5254 227.268 36.6777C227.385 36.8301 227.479 37.0176 227.549 37.2402C227.619 37.4629 227.695 37.6914 227.777 37.9258C227.871 38.1484 228.012 38.3359 228.199 38.4883C228.387 38.6406 228.668 38.7168 229.043 38.7168C229.453 38.7168 229.799 38.6055 230.08 38.3828C230.361 38.1484 230.59 37.8496 230.766 37.4863C230.941 37.1113 231.076 36.7129 231.17 36.291C231.275 35.8574 231.352 35.4414 231.398 35.043C231.445 34.6328 231.475 34.2812 231.486 33.9883C231.146 34.4219 230.748 34.7793 230.291 35.0605C229.846 35.3301 229.336 35.4648 228.762 35.4648C228.176 35.4648 227.689 35.3301 227.303 35.0605C226.916 34.7793 226.611 34.416 226.389 33.9707C226.166 33.5137 226.008 33.0273 225.914 32.5117C225.82 31.9961 225.773 31.5039 225.773 31.0352C225.773 30.4609 225.838 29.8926 225.967 29.3301C226.096 28.7676 226.301 28.2578 226.582 27.8008C226.875 27.332 227.25 26.9629 227.707 26.6934C228.176 26.4121 228.744 26.2715 229.412 26.2715C230.092 26.2715 230.66 26.4121 231.117 26.6934C231.574 26.9629 231.943 27.332 232.225 27.8008C232.506 28.2695 232.717 28.791 232.857 29.3652C232.998 29.9277 233.092 30.502 233.139 31.0879C233.197 31.6738 233.227 32.2246 233.227 32.7402C233.227 33.3145 233.197 33.9355 233.139 34.6035C233.092 35.2598 232.986 35.9102 232.822 36.5547C232.67 37.1992 232.436 37.7852 232.119 38.3125C231.814 38.8398 231.404 39.2617 230.889 39.5781C230.385 39.8945 229.752 40.0527 228.99 40.0527ZM229.131 34.1289C229.447 34.1289 229.77 34.0293 230.098 33.8301C230.426 33.6309 230.719 33.3848 230.977 33.0918C231.234 32.7988 231.416 32.5176 231.521 32.248C231.521 31.9785 231.51 31.6445 231.486 31.2461C231.475 30.8477 231.434 30.4434 231.363 30.0332C231.293 29.6113 231.182 29.2188 231.029 28.8555C230.877 28.4805 230.672 28.1816 230.414 27.959C230.156 27.7246 229.828 27.6074 229.43 27.6074C228.996 27.6074 228.65 27.7188 228.393 27.9414C228.135 28.1641 227.936 28.4512 227.795 28.8027C227.666 29.1426 227.578 29.5059 227.531 29.8926C227.496 30.2793 227.479 30.6367 227.479 30.9648C227.479 31.2461 227.49 31.5684 227.514 31.9316C227.549 32.2832 227.619 32.6289 227.725 32.9688C227.83 33.2969 227.994 33.5723 228.217 33.7949C228.439 34.0176 228.744 34.1289 229.131 34.1289ZM237.99 40.0527C237.369 40.0527 236.818 39.918 236.338 39.6484C235.869 39.3672 235.494 38.9453 235.213 38.3828C235.131 38.2188 235.049 38.0371 234.967 37.8379C234.896 37.6387 234.861 37.4453 234.861 37.2578C234.861 36.7188 235.137 36.4492 235.688 36.4492C235.957 36.4492 236.15 36.5254 236.268 36.6777C236.385 36.8301 236.479 37.0176 236.549 37.2402C236.619 37.4629 236.695 37.6914 236.777 37.9258C236.871 38.1484 237.012 38.3359 237.199 38.4883C237.387 38.6406 237.668 38.7168 238.043 38.7168C238.453 38.7168 238.799 38.6055 239.08 38.3828C239.361 38.1484 239.59 37.8496 239.766 37.4863C239.941 37.1113 240.076 36.7129 240.17 36.291C240.275 35.8574 240.352 35.4414 240.398 35.043C240.445 34.6328 240.475 34.2812 240.486 33.9883C240.146 34.4219 239.748 34.7793 239.291 35.0605C238.846 35.3301 238.336 35.4648 237.762 35.4648C237.176 35.4648 236.689 35.3301 236.303 35.0605C235.916 34.7793 235.611 34.416 235.389 33.9707C235.166 33.5137 235.008 33.0273 234.914 32.5117C234.82 31.9961 234.773 31.5039 234.773 31.0352C234.773 30.4609 234.838 29.8926 234.967 29.3301C235.096 28.7676 235.301 28.2578 235.582 27.8008C235.875 27.332 236.25 26.9629 236.707 26.6934C237.176 26.4121 237.744 26.2715 238.412 26.2715C239.092 26.2715 239.66 26.4121 240.117 26.6934C240.574 26.9629 240.943 27.332 241.225 27.8008C241.506 28.2695 241.717 28.791 241.857 29.3652C241.998 29.9277 242.092 30.502 242.139 31.0879C242.197 31.6738 242.227 32.2246 242.227 32.7402C242.227 33.3145 242.197 33.9355 242.139 34.6035C242.092 35.2598 241.986 35.9102 241.822 36.5547C241.67 37.1992 241.436 37.7852 241.119 38.3125C240.814 38.8398 240.404 39.2617 239.889 39.5781C239.385 39.8945 238.752 40.0527 237.99 40.0527ZM238.131 34.1289C238.447 34.1289 238.77 34.0293 239.098 33.8301C239.426 33.6309 239.719 33.3848 239.977 33.0918C240.234 32.7988 240.416 32.5176 240.521 32.248C240.521 31.9785 240.51 31.6445 240.486 31.2461C240.475 30.8477 240.434 30.4434 240.363 30.0332C240.293 29.6113 240.182 29.2188 240.029 28.8555C239.877 28.4805 239.672 28.1816 239.414 27.959C239.156 27.7246 238.828 27.6074 238.43 27.6074C237.996 27.6074 237.65 27.7188 237.393 27.9414C237.135 28.1641 236.936 28.4512 236.795 28.8027C236.666 29.1426 236.578 29.5059 236.531 29.8926C236.496 30.2793 236.479 30.6367 236.479 30.9648C236.479 31.2461 236.49 31.5684 236.514 31.9316C236.549 32.2832 236.619 32.6289 236.725 32.9688C236.83 33.2969 236.994 33.5723 237.217 33.7949C237.439 34.0176 237.744 34.1289 238.131 34.1289ZM247.359 40.0527C246.715 40.0527 246.117 39.9297 245.566 39.6836C245.027 39.4258 244.588 39.0098 244.248 38.4355C244.131 38.2363 244.025 38.0254 243.932 37.8027C243.838 37.5684 243.791 37.3398 243.791 37.1172C243.791 36.8477 243.85 36.6309 243.967 36.4668C244.096 36.291 244.307 36.2031 244.6 36.2031C244.846 36.2031 245.033 36.2852 245.162 36.4492C245.291 36.6133 245.396 36.8184 245.479 37.0645C245.572 37.2988 245.684 37.5391 245.812 37.7852C245.941 38.0195 246.123 38.2188 246.357 38.3828C246.604 38.5469 246.943 38.6289 247.377 38.6289C247.846 38.6289 248.221 38.5293 248.502 38.3301C248.795 38.1191 249.018 37.8496 249.17 37.5215C249.322 37.1934 249.422 36.8359 249.469 36.4492C249.527 36.0625 249.557 35.6816 249.557 35.3066C249.557 35.0254 249.539 34.709 249.504 34.3574C249.469 34.0059 249.393 33.6719 249.275 33.3555C249.17 33.0273 249.006 32.7578 248.783 32.5469C248.561 32.3359 248.256 32.2305 247.869 32.2305C247.506 32.2305 247.201 32.3184 246.955 32.4941C246.721 32.6582 246.521 32.875 246.357 33.1445C246.205 33.4141 246.064 33.6953 245.936 33.9883C245.854 34.1758 245.748 34.3223 245.619 34.4277C245.49 34.5215 245.314 34.5684 245.092 34.5684C244.764 34.5684 244.529 34.4629 244.389 34.252C244.26 34.041 244.195 33.7832 244.195 33.4785V28.0117C244.195 27.6016 244.342 27.25 244.635 26.957C244.928 26.6641 245.279 26.5176 245.689 26.5176H250.066C250.312 26.5176 250.512 26.5703 250.664 26.6758C250.828 26.7812 250.91 26.9688 250.91 27.2383C250.91 27.4961 250.828 27.6836 250.664 27.8008C250.512 27.9062 250.312 27.959 250.066 27.959H246.305C245.93 27.959 245.742 28.1465 245.742 28.5215V32.1777C246.047 31.7793 246.398 31.4688 246.797 31.2461C247.195 31.0234 247.646 30.9121 248.15 30.9121C248.748 30.9121 249.246 31.0527 249.645 31.334C250.043 31.6035 250.354 31.9609 250.576 32.4062C250.811 32.8398 250.975 33.3203 251.068 33.8477C251.174 34.3633 251.227 34.8672 251.227 35.3594C251.227 36.2383 251.109 37.0352 250.875 37.75C250.641 38.4531 250.242 39.0156 249.68 39.4375C249.117 39.8477 248.344 40.0527 247.359 40.0527ZM256.518 40.0527C255.732 40.0527 255.041 39.9004 254.443 39.5957C253.857 39.2793 253.395 38.834 253.055 38.2598C252.727 37.6855 252.562 37 252.562 36.2031C252.562 35.3359 252.773 34.6152 253.195 34.041C253.617 33.4551 254.227 33.0098 255.023 32.7051C254.344 32.4355 253.816 32.0547 253.441 31.5625C253.078 31.0586 252.896 30.4316 252.896 29.6816C252.896 28.9785 253.055 28.375 253.371 27.8711C253.699 27.3555 254.133 26.9629 254.672 26.6934C255.223 26.4121 255.832 26.2715 256.5 26.2715C257.18 26.2715 257.789 26.4121 258.328 26.6934C258.867 26.9746 259.295 27.373 259.611 27.8887C259.939 28.3926 260.104 28.9902 260.104 29.6816C260.104 31.1582 259.4 32.166 257.994 32.7051C258.791 33.0098 259.4 33.4551 259.822 34.041C260.244 34.6152 260.455 35.3359 260.455 36.2031C260.455 37.3984 260.092 38.3418 259.365 39.0332C258.65 39.7129 257.701 40.0527 256.518 40.0527ZM256.5 31.9316C257.121 31.9316 257.613 31.7207 257.977 31.2988C258.34 30.877 258.521 30.3672 258.521 29.7695C258.521 28.3633 257.836 27.6602 256.465 27.6602C255.773 27.6602 255.27 27.8477 254.953 28.2227C254.637 28.5977 254.479 29.1191 254.479 29.7871C254.479 30.3848 254.66 30.8945 255.023 31.3164C255.398 31.7266 255.891 31.9316 256.5 31.9316ZM256.5 38.6641C257.332 38.6641 257.924 38.4297 258.275 37.9609C258.627 37.4805 258.803 36.8477 258.803 36.0625C258.803 35.5938 258.709 35.1602 258.521 34.7617C258.346 34.3633 258.082 34.041 257.73 33.7949C257.391 33.5488 256.969 33.4258 256.465 33.4258C255.961 33.4258 255.539 33.5547 255.199 33.8125C254.871 34.0703 254.625 34.4102 254.461 34.832C254.297 35.2422 254.215 35.6758 254.215 36.1328C254.215 36.9062 254.391 37.5215 254.742 37.9785C255.094 38.4355 255.68 38.6641 256.5 38.6641ZM265.518 40.0527C264.732 40.0527 264.041 39.9004 263.443 39.5957C262.857 39.2793 262.395 38.834 262.055 38.2598C261.727 37.6855 261.562 37 261.562 36.2031C261.562 35.3359 261.773 34.6152 262.195 34.041C262.617 33.4551 263.227 33.0098 264.023 32.7051C263.344 32.4355 262.816 32.0547 262.441 31.5625C262.078 31.0586 261.896 30.4316 261.896 29.6816C261.896 28.9785 262.055 28.375 262.371 27.8711C262.699 27.3555 263.133 26.9629 263.672 26.6934C264.223 26.4121 264.832 26.2715 265.5 26.2715C266.18 26.2715 266.789 26.4121 267.328 26.6934C267.867 26.9746 268.295 27.373 268.611 27.8887C268.939 28.3926 269.104 28.9902 269.104 29.6816C269.104 31.1582 268.4 32.166 266.994 32.7051C267.791 33.0098 268.4 33.4551 268.822 34.041C269.244 34.6152 269.455 35.3359 269.455 36.2031C269.455 37.3984 269.092 38.3418 268.365 39.0332C267.65 39.7129 266.701 40.0527 265.518 40.0527ZM265.5 31.9316C266.121 31.9316 266.613 31.7207 266.977 31.2988C267.34 30.877 267.521 30.3672 267.521 29.7695C267.521 28.3633 266.836 27.6602 265.465 27.6602C264.773 27.6602 264.27 27.8477 263.953 28.2227C263.637 28.5977 263.479 29.1191 263.479 29.7871C263.479 30.3848 263.66 30.8945 264.023 31.3164C264.398 31.7266 264.891 31.9316 265.5 31.9316ZM265.5 38.6641C266.332 38.6641 266.924 38.4297 267.275 37.9609C267.627 37.4805 267.803 36.8477 267.803 36.0625C267.803 35.5938 267.709 35.1602 267.521 34.7617C267.346 34.3633 267.082 34.041 266.73 33.7949C266.391 33.5488 265.969 33.4258 265.465 33.4258C264.961 33.4258 264.539 33.5547 264.199 33.8125C263.871 34.0703 263.625 34.4102 263.461 34.832C263.297 35.2422 263.215 35.6758 263.215 36.1328C263.215 36.9062 263.391 37.5215 263.742 37.9785C264.094 38.4355 264.68 38.6641 265.5 38.6641ZM275.203 40.0527C274.887 40.0527 274.664 39.9531 274.535 39.7539C274.418 39.5547 274.359 39.3086 274.359 39.0156V28.7676C274.254 28.8848 274.119 29.0254 273.955 29.1895C273.803 29.3535 273.633 29.5 273.445 29.6289C273.27 29.7461 273.088 29.8047 272.9 29.8047C272.326 29.8047 272.039 29.5234 272.039 28.9609C272.039 28.7617 272.104 28.5977 272.232 28.4688C272.361 28.3398 272.502 28.2285 272.654 28.1348C272.982 27.9355 273.287 27.6953 273.568 27.4141C273.85 27.1211 274.119 26.8398 274.377 26.5703C274.576 26.3711 274.805 26.2715 275.062 26.2715C275.73 26.2715 276.064 26.6113 276.064 27.291V39.0156C276.064 39.3086 276 39.5547 275.871 39.7539C275.754 39.9531 275.531 40.0527 275.203 40.0527ZM282.99 40.0527C282.369 40.0527 281.818 39.918 281.338 39.6484C280.869 39.3672 280.494 38.9453 280.213 38.3828C280.131 38.2188 280.049 38.0371 279.967 37.8379C279.896 37.6387 279.861 37.4453 279.861 37.2578C279.861 36.7188 280.137 36.4492 280.688 36.4492C280.957 36.4492 281.15 36.5254 281.268 36.6777C281.385 36.8301 281.479 37.0176 281.549 37.2402C281.619 37.4629 281.695 37.6914 281.777 37.9258C281.871 38.1484 282.012 38.3359 282.199 38.4883C282.387 38.6406 282.668 38.7168 283.043 38.7168C283.453 38.7168 283.799 38.6055 284.08 38.3828C284.361 38.1484 284.59 37.8496 284.766 37.4863C284.941 37.1113 285.076 36.7129 285.17 36.291C285.275 35.8574 285.352 35.4414 285.398 35.043C285.445 34.6328 285.475 34.2812 285.486 33.9883C285.146 34.4219 284.748 34.7793 284.291 35.0605C283.846 35.3301 283.336 35.4648 282.762 35.4648C282.176 35.4648 281.689 35.3301 281.303 35.0605C280.916 34.7793 280.611 34.416 280.389 33.9707C280.166 33.5137 280.008 33.0273 279.914 32.5117C279.82 31.9961 279.773 31.5039 279.773 31.0352C279.773 30.4609 279.838 29.8926 279.967 29.3301C280.096 28.7676 280.301 28.2578 280.582 27.8008C280.875 27.332 281.25 26.9629 281.707 26.6934C282.176 26.4121 282.744 26.2715 283.412 26.2715C284.092 26.2715 284.66 26.4121 285.117 26.6934C285.574 26.9629 285.943 27.332 286.225 27.8008C286.506 28.2695 286.717 28.791 286.857 29.3652C286.998 29.9277 287.092 30.502 287.139 31.0879C287.197 31.6738 287.227 32.2246 287.227 32.7402C287.227 33.3145 287.197 33.9355 287.139 34.6035C287.092 35.2598 286.986 35.9102 286.822 36.5547C286.67 37.1992 286.436 37.7852 286.119 38.3125C285.814 38.8398 285.404 39.2617 284.889 39.5781C284.385 39.8945 283.752 40.0527 282.99 40.0527ZM283.131 34.1289C283.447 34.1289 283.77 34.0293 284.098 33.8301C284.426 33.6309 284.719 33.3848 284.977 33.0918C285.234 32.7988 285.416 32.5176 285.521 32.248C285.521 31.9785 285.51 31.6445 285.486 31.2461C285.475 30.8477 285.434 30.4434 285.363 30.0332C285.293 29.6113 285.182 29.2188 285.029 28.8555C284.877 28.4805 284.672 28.1816 284.414 27.959C284.156 27.7246 283.828 27.6074 283.43 27.6074C282.996 27.6074 282.65 27.7188 282.393 27.9414C282.135 28.1641 281.936 28.4512 281.795 28.8027C281.666 29.1426 281.578 29.5059 281.531 29.8926C281.496 30.2793 281.479 30.6367 281.479 30.9648C281.479 31.2461 281.49 31.5684 281.514 31.9316C281.549 32.2832 281.619 32.6289 281.725 32.9688C281.83 33.2969 281.994 33.5723 282.217 33.7949C282.439 34.0176 282.744 34.1289 283.131 34.1289ZM292.518 40.0527C291.732 40.0527 291.041 39.9004 290.443 39.5957C289.857 39.2793 289.395 38.834 289.055 38.2598C288.727 37.6855 288.562 37 288.562 36.2031C288.562 35.3359 288.773 34.6152 289.195 34.041C289.617 33.4551 290.227 33.0098 291.023 32.7051C290.344 32.4355 289.816 32.0547 289.441 31.5625C289.078 31.0586 288.896 30.4316 288.896 29.6816C288.896 28.9785 289.055 28.375 289.371 27.8711C289.699 27.3555 290.133 26.9629 290.672 26.6934C291.223 26.4121 291.832 26.2715 292.5 26.2715C293.18 26.2715 293.789 26.4121 294.328 26.6934C294.867 26.9746 295.295 27.373 295.611 27.8887C295.939 28.3926 296.104 28.9902 296.104 29.6816C296.104 31.1582 295.4 32.166 293.994 32.7051C294.791 33.0098 295.4 33.4551 295.822 34.041C296.244 34.6152 296.455 35.3359 296.455 36.2031C296.455 37.3984 296.092 38.3418 295.365 39.0332C294.65 39.7129 293.701 40.0527 292.518 40.0527ZM292.5 31.9316C293.121 31.9316 293.613 31.7207 293.977 31.2988C294.34 30.877 294.521 30.3672 294.521 29.7695C294.521 28.3633 293.836 27.6602 292.465 27.6602C291.773 27.6602 291.27 27.8477 290.953 28.2227C290.637 28.5977 290.479 29.1191 290.479 29.7871C290.479 30.3848 290.66 30.8945 291.023 31.3164C291.398 31.7266 291.891 31.9316 292.5 31.9316ZM292.5 38.6641C293.332 38.6641 293.924 38.4297 294.275 37.9609C294.627 37.4805 294.803 36.8477 294.803 36.0625C294.803 35.5938 294.709 35.1602 294.521 34.7617C294.346 34.3633 294.082 34.041 293.73 33.7949C293.391 33.5488 292.969 33.4258 292.465 33.4258C291.961 33.4258 291.539 33.5547 291.199 33.8125C290.871 34.0703 290.625 34.4102 290.461 34.832C290.297 35.2422 290.215 35.6758 290.215 36.1328C290.215 36.9062 290.391 37.5215 290.742 37.9785C291.094 38.4355 291.68 38.6641 292.5 38.6641Z" fill="black"/>
</svg>
