<svg width="243" height="43" viewBox="0 0 243 43" fill="none" xmlns="http://www.w3.org/2000/svg">
<path d="M19.5 0L24.1025 16.2381H38.9967L26.9471 26.2738L31.5496 42.5119L19.5 32.4762L7.4504 42.5119L12.0529 26.2738L0.00334167 16.2381H14.8975L19.5 0Z" fill="#DDAC00"/>
<path d="M72.5 0L77.1025 16.2381H91.9967L79.9471 26.2738L84.5496 42.5119L72.5 32.4762L60.4504 42.5119L65.0529 26.2738L53.0033 16.2381H67.8975L72.5 0Z" fill="#DDAC00"/>
<path d="M125.5 0L130.103 16.2381H144.997L132.947 26.2738L137.55 42.5119L125.5 32.4762L113.45 42.5119L118.053 26.2738L106.003 16.2381H120.897L125.5 0Z" fill="#DDAC00"/>
<path d="M173.5 0L178.103 16.2381H192.997L180.947 26.2738L185.55 42.5119L173.5 32.4762L161.45 42.5119L166.053 26.2738L154.003 16.2381H168.897L173.5 0Z" fill="#DDAC00"/>
<path d="M223.5 0L228.103 16.2381H242.997L230.947 26.2738L235.55 42.5119L223.5 32.4762L211.45 42.5119L216.053 26.2738L204.003 16.2381H218.897L223.5 0Z" fill="#DDAC00"/>
</svg>
