<svg width="177" height="24" viewBox="0 0 177 24" fill="none" xmlns="http://www.w3.org/2000/svg">
<path d="M4.04932 7.175C5.26598 5.99167 6.56598 5.4 7.94932 5.4C9.34932 5.4 10.5076 5.90833 11.4243 6.925C12.3577 7.94167 12.841 9.475 12.8743 11.525C12.9243 13.575 12.4243 15.2333 11.3743 16.5C10.3243 17.75 8.84932 18.375 6.94932 18.375C5.99932 18.375 5.03265 18.1583 4.04932 17.725L2.32432 17.075V2.225L1.02432 2.075C0.624316 2.04167 0.424316 1.68333 0.424316 1L4.04932 0.55V7.175ZM4.04932 15.8C4.94932 16.6167 6.03265 17.025 7.29932 17.025C8.58265 17.025 9.52432 16.5333 10.1243 15.55C10.7243 14.5667 11.0243 13.3417 11.0243 11.875C11.0243 10.4083 10.7243 9.20833 10.1243 8.275C9.54098 7.34167 8.63265 6.875 7.39932 6.875C6.78265 6.875 6.23265 7 5.74932 7.25C5.26598 7.5 4.69932 7.89167 4.04932 8.425V15.8ZM22.8433 5.775H26.1433C26.1266 5.825 26.1266 5.89167 26.1433 5.975C26.1599 6.04167 26.1516 6.125 26.1183 6.225C26.1016 6.30833 26.0766 6.39167 26.0433 6.475C25.9433 6.675 25.6266 6.8 25.0933 6.85L20.8183 17.375H20.8433C20.3933 18.575 19.9349 19.6083 19.4683 20.475C19.0183 21.3417 18.6599 21.9333 18.3933 22.25C17.7433 23.0667 17.1016 23.475 16.4683 23.475C15.8349 23.475 15.3683 23.3417 15.0683 23.075C14.7683 22.825 14.6183 22.5167 14.6183 22.15C14.6183 21.8 14.7099 21.5083 14.8933 21.275C15.0933 21.0583 15.3099 20.95 15.5433 20.95C15.7933 20.95 15.9599 20.9667 16.0433 21C15.8933 21.6667 16.0849 22 16.6183 22C17.0516 22 17.5433 21.5083 18.0933 20.525C18.6433 19.5417 19.1349 18.5 19.5683 17.4L15.2183 6.95H15.1933L13.9683 6.8C13.9016 6.11667 14.1349 5.775 14.6683 5.775H18.8683V5.95C18.8683 6.35 18.7516 6.6 18.5183 6.7C18.3849 6.76667 17.9266 6.83333 17.1433 6.9L20.3933 15.275L23.5933 6.95L22.1433 6.8C22.0766 6.11667 22.3099 5.775 22.8433 5.775ZM33.4106 0.949999H47.9856V4.275C47.9856 4.74167 47.794 5.025 47.4106 5.125C47.1606 5.19167 46.8856 5.225 46.5856 5.225L46.3606 2.6H42.0106V16.425L44.0106 16.575C44.1106 17.525 43.794 18 43.0606 18H37.3606V17.8C37.3606 17.0167 37.6856 16.5917 38.3356 16.525L39.4106 16.475V2.6H35.0356L34.8356 5.225C34.1523 5.225 33.7273 5.1 33.5606 4.85C33.4606 4.7 33.4106 4.50833 33.4106 4.275V0.949999ZM53.7368 7.275C54.1868 6.74167 54.7785 6.25833 55.5118 5.825C56.2452 5.375 56.8702 5.15 57.3868 5.15C57.9201 5.15 58.3535 5.3 58.6868 5.6C59.0368 5.9 59.2118 6.43333 59.2118 7.2C59.2118 7.95 58.9868 8.53333 58.5368 8.95C58.2701 9.15 57.8451 9.225 57.2618 9.175C57.2618 8.45833 57.1868 7.975 57.0368 7.725C56.8868 7.45833 56.6452 7.325 56.3118 7.325C55.5118 7.325 54.6785 7.875 53.8118 8.975V16.45L55.8868 16.6C55.9868 17.5333 55.6618 18 54.9118 18H49.4368C49.4368 18 49.4368 17.9333 49.4368 17.8C49.4368 17.0333 49.7618 16.6167 50.4118 16.55L51.2618 16.5V7.225L50.0618 7.1C49.6118 7.05 49.3868 6.61667 49.3868 5.8L53.4618 5.275L53.6618 7.275H53.7368ZM62.8534 11.7V12.175C62.8534 13.5583 63.1201 14.6167 63.6534 15.35C64.1868 16.0833 65.0701 16.45 66.3034 16.45C67.5534 16.45 68.7451 16 69.8784 15.1C70.1618 15.3 70.3034 15.6 70.3034 16C70.3034 16.5333 69.8451 17.0667 68.9284 17.6C68.0118 18.1167 66.9118 18.375 65.6284 18.375C63.9118 18.375 62.5701 17.8583 61.6034 16.825C60.6534 15.775 60.1784 14.1833 60.1784 12.05C60.1784 9.91667 60.7201 8.23333 61.8034 7C62.8868 5.76667 64.2451 5.15 65.8784 5.15C67.5284 5.15 68.7284 5.64167 69.4784 6.625C70.2284 7.60833 70.5951 8.85 70.5784 10.35V11.7H62.8534ZM65.8034 6.875C64.2868 6.875 63.3534 7.98333 63.0034 10.2H68.0534C68.0034 7.98333 67.2534 6.875 65.8034 6.875ZM76.9128 5.525L76.8878 6C76.8878 6.36667 76.7128 6.65 76.3628 6.85C76.2295 6.91667 75.8711 6.975 75.2878 7.025L77.9878 14.225L80.7628 7.05L79.5378 6.925C79.4378 5.99167 79.7545 5.525 80.4878 5.525H83.9628C83.9628 6.44167 83.6795 6.925 83.1128 6.975L82.8128 7L78.3128 18H76.8378L72.4878 7.075L71.4128 6.925C71.3795 5.99167 71.6795 5.525 72.3128 5.525H76.9128ZM90.6099 6.85C89.6432 6.85 88.8932 7.30833 88.3599 8.225C87.8265 9.125 87.5599 10.325 87.5599 11.825C87.5599 13.325 87.8182 14.5167 88.3349 15.4C88.8515 16.2833 89.5932 16.725 90.5599 16.725C91.5432 16.7083 92.3015 16.275 92.8349 15.425C93.3682 14.5583 93.6349 13.375 93.6349 11.875C93.6349 10.375 93.3765 9.15833 92.8599 8.225C92.3432 7.29167 91.5932 6.83333 90.6099 6.85ZM84.8849 12C84.8849 9.91667 85.4015 8.25833 86.4349 7.025C87.4849 5.775 88.8849 5.15 90.6349 5.15C92.3849 5.15 93.7599 5.7 94.7599 6.8C95.7765 7.88333 96.2849 9.48333 96.2849 11.6C96.3015 13.7 95.7849 15.3583 94.7349 16.575C93.7015 17.775 92.2682 18.375 90.4349 18.375C88.6182 18.375 87.2432 17.8333 86.3099 16.75C85.3765 15.6667 84.9015 14.0833 84.8849 12ZM102.467 7.275C102.917 6.74167 103.509 6.25833 104.242 5.825C104.976 5.375 105.601 5.15 106.117 5.15C106.651 5.15 107.084 5.3 107.417 5.6C107.767 5.9 107.942 6.43333 107.942 7.2C107.942 7.95 107.717 8.53333 107.267 8.95C107.001 9.15 106.576 9.225 105.992 9.175C105.992 8.45833 105.917 7.975 105.767 7.725C105.617 7.45833 105.376 7.325 105.042 7.325C104.242 7.325 103.409 7.875 102.542 8.975V16.45L104.617 16.6C104.717 17.5333 104.392 18 103.642 18H98.1673C98.1673 18 98.1673 17.9333 98.1673 17.8C98.1673 17.0333 98.4923 16.6167 99.1423 16.55L99.9923 16.5V7.225L98.7923 7.1C98.3423 7.05 98.1173 6.61667 98.1173 5.8L102.192 5.275L102.392 7.275H102.467ZM127.073 0.949999H131.448C131.448 0.949999 131.448 1.01667 131.448 1.15C131.448 1.93333 131.123 2.35833 130.473 2.425L129.573 2.475V17.7C129.09 17.9167 128.532 18.025 127.898 18.025L119.248 4.95V16.425L121.048 16.575C121.148 17.525 120.832 18 120.098 18H115.698V17.8C115.698 17.0167 116.023 16.5917 116.673 16.525L117.548 16.475V2.525L115.748 2.375C115.648 1.425 115.965 0.949999 116.698 0.949999H119.748L127.898 13.275V2.525L126.098 2.375C125.998 1.425 126.323 0.949999 127.073 0.949999ZM138.559 6.85C137.592 6.85 136.842 7.30833 136.309 8.225C135.776 9.125 135.509 10.325 135.509 11.825C135.509 13.325 135.767 14.5167 136.284 15.4C136.801 16.2833 137.542 16.725 138.509 16.725C139.492 16.7083 140.251 16.275 140.784 15.425C141.317 14.5583 141.584 13.375 141.584 11.875C141.584 10.375 141.326 9.15833 140.809 8.225C140.292 7.29167 139.542 6.83333 138.559 6.85ZM132.834 12C132.834 9.91667 133.351 8.25833 134.384 7.025C135.434 5.775 136.834 5.15 138.584 5.15C140.334 5.15 141.709 5.7 142.709 6.8C143.726 7.88333 144.234 9.48333 144.234 11.6C144.251 13.7 143.734 15.3583 142.684 16.575C141.651 17.775 140.217 18.375 138.384 18.375C136.567 18.375 135.192 17.8333 134.259 16.75C133.326 15.6667 132.851 14.0833 132.834 12ZM157.692 17C157.692 17.9167 157.083 18.375 155.867 18.375C154.667 18.375 153.925 17.9167 153.642 17C152.558 17.9167 151.375 18.375 150.092 18.375C148.808 18.375 147.817 18.075 147.117 17.475C146.417 16.8583 146.067 16.0167 146.067 14.95C146.067 13.8833 146.467 13 147.267 12.3C148.083 11.6 149.392 11.25 151.192 11.25C151.975 11.25 152.742 11.3167 153.492 11.45V10.05C153.492 7.93333 152.667 6.875 151.017 6.875C150.35 6.875 149.817 7.1 149.417 7.55C149.033 8 148.825 8.56667 148.792 9.25C148.225 9.3 147.75 9.2 147.367 8.95C147 8.7 146.817 8.31667 146.817 7.8C146.817 7.03333 147.208 6.4 147.992 5.9C148.792 5.4 149.867 5.15 151.217 5.15C152.583 5.15 153.725 5.51667 154.642 6.25C155.575 6.98333 156.042 8.2 156.042 9.9V16.8L157.692 17ZM153.492 13.2C152.825 12.9167 152.092 12.775 151.292 12.775C150.508 12.775 149.892 12.9417 149.442 13.275C148.992 13.6083 148.767 14.0833 148.767 14.7C148.767 15.3 148.942 15.7667 149.292 16.1C149.642 16.4333 150.208 16.6 150.992 16.6C151.792 16.6 152.625 16.2917 153.492 15.675V13.2ZM172.458 18H167.233V17.8C167.233 17.0333 167.558 16.6167 168.208 16.55L169.058 16.5V10.3C169.058 9.23333 168.833 8.46667 168.383 8C167.95 7.53333 167.25 7.3 166.283 7.3C165.317 7.3 164.342 7.74167 163.358 8.625V16.45L165.183 16.6C165.283 17.5333 164.967 18 164.233 18H158.958V17.8C158.958 17.0333 159.283 16.6167 159.933 16.55L160.808 16.5V2.3L159.708 2.2C159.175 2.13333 158.908 1.675 158.908 0.824999L163.358 0.3V6.8C164.525 5.7 165.75 5.15 167.033 5.15C168.333 5.15 169.417 5.575 170.283 6.425C171.15 7.25833 171.583 8.55833 171.583 10.325L171.608 16.45L173.433 16.6C173.533 17.5333 173.208 18 172.458 18Z" fill="black"/>
<path d="M27 20.9735L176 19" stroke="black" stroke-width="1.5"/>
</svg>
